<?xml version="1.0" standalone="no"?>
<!DOCTYPE svg PUBLIC "-//W3C//DTD SVG 1.1//EN" "http://www.w3.org/Graphics/SVG/1.1/DTD/svg11.dtd" >
<svg>
<metadata>
Created by FontForge 20090622 at Sat Jul 28 10:48:11 2018
 By ffonts
Copyright Paul Salame, use of this font is prohibited without the approval of the copyright owners.
</metadata>
<defs>
<font id="Pou" horiz-adv-x="301" >
  <font-face 
    font-family="Pou"
    font-weight="400"
    font-stretch="normal"
    units-per-em="1000"
    panose-1="0 0 4 0 0 0 0 0 0 0"
    ascent="800"
    descent="-200"
    x-height="620"
    cap-height="729"
    bbox="-376 -244.08 1281 993"
    underline-thickness="20"
    underline-position="-123"
    unicode-range="U+0020-U+F000"
  />
<missing-glyph horiz-adv-x="500" 
d="M63 0v800h375v-800h-375zM125 63h250v675h-250v-675z" />
    <glyph glyph-name=".notdef" horiz-adv-x="500" 
d="M63 0v800h375v-800h-375zM125 63h250v675h-250v-675z" />
    <glyph glyph-name=".null" horiz-adv-x="0" 
 />
    <glyph glyph-name="nonmarkingreturn" 
 />
    <glyph glyph-name="space" unicode=" " 
 />
    <glyph glyph-name="exclam" unicode="!" horiz-adv-x="286" 
d="M27 681q22 48 96 48q32 0 58 -12q33 -16 36 -44q6 -11 6 -46q0 -61 -17 -180q-19 -132 -38.5 -171.5t-49.5 -39.5q-29 0 -48.5 44t-36.5 167q-15 109 -15 174q0 48 9 60zM22 100q6 87 102 87h2q37 -1 55 -17t27 -52q3 -13 3 -25q0 -43 -28.5 -67t-72.5 -24q-39 0 -65 30
q-23 26 -23 60v8z" />
    <glyph glyph-name="quotedbl" unicode="&#x22;" horiz-adv-x="575" 
d="M90 748q24 9 51 9q49 0 82.5 -32.5t33.5 -80.5v-2q0 -74 -67 -156q-60 -73 -93 -73q-9 0 -15.5 10.5t-6.5 20.5q0 14 12 41.5t12 35.5q0 3 -1 6q-72 32 -72 111q0 34 17 66.5t47 43.5zM394 757q48 0 82 -32.5t35 -80.5v-2q0 -74 -67 -156q-60 -73 -94 -73q-4 0 -6 2
q-15 11 -15 29q0 14 12 41.5t12 35.5q0 3 -2 6q-72 32 -72 111q0 36 18 67q30 52 97 52z" />
    <glyph glyph-name="numbersign" unicode="#" horiz-adv-x="601" 
d="M4 481q2 59 82 59q18 0 43 -2q-6 41 -6 57q0 64 62 70q5 1 10 1q54 0 54 -74q0 -11 -2 -25v-6q0 -22 25 -22q24 0 27 24q-3 24 -3 41q0 62 51 62h3q63 -2 63 -68q0 -6 -4 -60q19 1 33 1q85 0 85 -58q0 -56 -62 -56q-19 0 -42 6q-27 0 -27 -27q0 -25 24 -29q26 3 43 3
q72 0 72 -52q0 -61 -73 -61q-22 0 -50 6q5 -34 5 -55q0 -71 -63 -71h-3q-56 2 -56 73q0 14 3 29q-4 24 -30 24q-22 0 -27 -28q2 -13 2 -25q0 -70 -51 -70h-1q-69 0 -69 97q0 12 1 26q-23 -4 -41 -4q-70 0 -75 54q4 64 75 64q17 0 42 -3q19 2 19 27q0 24 -19 26
q-26 -9 -50 -9q-70 0 -70 54v1zM238 402q2 -21 23 -22h3q19 0 19 22q0 23 -22 23q-23 0 -23 -20v-3z" />
    <glyph glyph-name="dollar" unicode="$" horiz-adv-x="592" 
d="M514 552q0 -28 -29 -52t-57 -24q-11 0 -20 5q-38 21 -49 21q-7 0 -9 -10v-29q-2 -16 -2 -35t12 -26q5 -3 30 -9q73 -17 106 -47q40 -36 43 -105v-6q0 -67 -60 -106q-49 -33 -128 -43q-3 -50 -5 -55q-12 -30 -66 -30q-55 0 -68 27q-5 10 -6 50q-71 1 -112 15
q-53 18 -89 65q0 51 6 71q11 37 46 49q18 -3 70 -26q49 -22 62 -22t13 14v5q0 35 1 41q-4 12 -33 12q-63 10 -107 49q-49 43 -49 103q0 72 61 129q54 50 130 68l6 52q9 37 67 37t58 -59q0 -15 -2 -19q59 -1 102 -26q32 -19 70 -62q8 -9 8 -22zM199 422q3 45 3 68q0 1 -3 1
q-8 0 -14 -12t-6 -20q0 -35 20 -37zM366 227q1 -1 11 -1q16 0 16 19q0 23 -16 25q-11 0 -12 -8v-21q0 -13 1 -14z" />
    <glyph glyph-name="percent" unicode="%" horiz-adv-x="591" 
d="M184 26q-18 -19 -44 -19q-32 0 -62.5 25.5t-30.5 56.5q0 10 4 19q43 96 153 298q104 193 150 299q9 22 41 22q36 0 66 -24.5t30 -59.5q0 -8 -2 -17zM329 304q30 24 82 24q51 0 84 -24q39 -53 39 -136q0 -84 -34 -134q-21 -31 -83 -31q-66 0 -93 30q-37 41 -37 142
q0 82 42 129zM380 173q0 -15 8 -29t22 -14q31 0 31 43q0 16 -8 30t-23 14q-14 0 -22 -14.5t-8 -29.5zM49 701q30 24 82 24q51 0 84 -24q39 -53 39 -136q0 -84 -34 -134q-21 -31 -83 -31q-66 0 -93 30q-37 41 -37 142q0 82 42 129zM100 570q0 -15 8 -29t22 -14q31 0 31 43
q0 16 -8 30t-23 14q-14 0 -22 -14.5t-8 -29.5z" />
    <glyph glyph-name="ampersand" unicode="&#x26;" horiz-adv-x="593" 
d="M206 499q8 4 21 20q10 22 10 50q-9 7 -22 7q-5 0 -10 -1q-13 -12 -13 -25q0 -21 14 -51zM255 180l-38 34q-14 13 -36 44q-19 -19 -20 -31v-5q0 -20 13 -33q22 -22 42 -22q13 0 39 13zM392 67q-76 -66 -178 -66q-81 0 -149 64t-68 145q0 92 89 178q-45 83 -45 167
q0 68 51.5 121t118.5 53q80 0 130 -38q56 -42 56 -119q0 -72 -22 -119t-77 -92q24 -41 63 -68q12 41 12 64q0 33 21 54t54 21t54 -21t21 -54q0 -78 -45 -172l45 -43q20 -18 20 -43q0 -29 -24.5 -59t-52.5 -30q-14 0 -22.5 10t-51.5 47z" />
    <glyph glyph-name="quotesingle" unicode="'" horiz-adv-x="383" 
d="M202 757q48 0 82 -32.5t35 -80.5v-2q0 -74 -67 -156q-60 -73 -94 -73q-4 0 -6 2q-16 11 -16 29q0 14 12 41.5t12 35.5q0 3 -1 6q-72 32 -72 111q0 36 18 67q29 52 97 52z" />
    <glyph glyph-name="parenleft" unicode="(" horiz-adv-x="532" 
d="M309 727q21 6 49 6q43 0 76 -17q42 -22 42 -61q0 -21 -14 -45q-9 -21 -63 -42q-63 -25 -91 -54q-48 -51 -48 -140v-4q1 -87 47 -132q23 -22 90 -50q60 -25 79 -59q11 -20 11 -40q0 -45 -50 -71q-41 -20 -91 -20q-28 0 -54 7q-105 28 -151 72q-91 86 -91 277v12
q2 181 104 277q59 56 155 84z" />
    <glyph glyph-name="parenright" unicode=")" horiz-adv-x="541" 
d="M370 643q102 -96 104 -277v-12q0 -191 -91 -277q-46 -44 -151 -72q-26 -7 -54 -7q-50 0 -91 20q-50 26 -50 71q0 20 11 40q19 34 79 59q67 28 90 50q46 45 47 132v4q0 89 -48 140q-28 29 -91 54q-54 21 -63 42q-14 24 -14 45q0 39 42 61q33 17 76 17q28 0 49 -6
q96 -28 155 -84z" />
    <glyph glyph-name="asterisk" unicode="*" horiz-adv-x="588" 
d="M140 729q19 10 33 10q34 0 65 -46l37 -70q29 64 32 69q28 45 62 45q16 0 31 -8q34 -18 34 -58q0 -56 -48 -104q23 14 61 14q78 0 80 -57v-2q0 -34 -31 -53q-28 -17 -65 -17q-25 0 -43 9q55 -41 55 -94q0 -32 -28 -47q-17 -7 -33 -7q-35 0 -64 37q-14 18 -39 67
q-33 -109 -95 -109q-12 0 -27 7q-30 14 -30 54q0 53 33 81q-20 -8 -45 -8q-37 0 -63 18.5t-26 54.5q0 61 77 61q33 0 61 -9q-23 12 -39 46t-16 62q0 38 31 54z" />
    <glyph glyph-name="plus" unicode="+" horiz-adv-x="570" 
d="M481 324h-77q-38 0 -55 -8q-2 -6 -2 -16q0 -13 3.5 -40t3.5 -41q0 -45 -19 -65t-65 -20q-55 0 -63 37q-10 22 -10 54q0 11 1.5 33.5t1.5 33.5q0 15 -2 26q-5 4 -15 4q-12 0 -37 -3.5t-37 -3.5q-31 0 -55 11q-30 23 -30 70q0 69 81 69q12 0 36 -2t36 -2q10 0 16 2q1 3 1 8
q0 11 -4 33q-6 37 -6 67q0 24 4 42q8 38 80 38t83 -39q7 -16 7 -40q0 -21 -5 -51q-7 -43 -7 -47v-5q0 -6 1 -9q7 -5 20 -5t39.5 5t39.5 5q71 0 71 -80q0 -57 -36 -61z" />
    <glyph glyph-name="comma" unicode="," horiz-adv-x="378" 
d="M151 218q24 9 51 9q49 0 82.5 -32.5t33.5 -80.5v-2q0 -74 -67 -156q-60 -73 -93 -73q-9 0 -15.5 10.5t-6.5 20.5q0 14 12 41.5t12 35.5q0 3 -1 6q-72 32 -72 111q0 34 17 66.5t47 43.5z" />
    <glyph glyph-name="hyphen" unicode="-" horiz-adv-x="582" 
d="M63 428q60 11 184 11q148 0 222 -11q40 -6 40 -65q0 -47 -31 -73q-97 -10 -253 -10q-109 0 -168 7q-28 14 -28 66q0 59 34 75z" />
    <glyph glyph-name="hyphen" unicode="&#x2010;" horiz-adv-x="582" 
d="M63 428q60 11 184 11q148 0 222 -11q40 -6 40 -65q0 -47 -31 -73q-97 -10 -253 -10q-109 0 -168 7q-28 14 -28 66q0 59 34 75z" />
    <glyph glyph-name="period" unicode="." horiz-adv-x="394" 
d="M161 221q23 9 49 9q69 0 109 -73q11 -20 11 -48q0 -59 -57 -95q-27 -17 -58 -17q-51 0 -85.5 35t-34.5 86q0 77 66 103z" />
    <glyph glyph-name="slash" unicode="/" horiz-adv-x="551" 
d="M347 710q18 20 56 20q42 0 74 -23q34 -24 34 -60v-6q-26 -100 -143 -320q-108 -205 -177 -298q-32 -21 -70 -21q-39 0 -66 22q-30 23 -30 61q0 14 5 31q28 99 157 332q122 220 160 262z" />
    <glyph glyph-name="zero" unicode="0" horiz-adv-x="610" 
d="M140 668q62 53 166 53t171 -53q78 -117 78 -303q0 -185 -70 -298q-43 -69 -167 -69q-51 0 -102 15q-60 19 -86 52q-36 46 -57 152q-18 88 -18 164q0 183 85 287zM243 377q0 -33 14 -61q18 -35 48 -35t48 35q14 28 14 61q0 34 -14 62q-18 35 -48 35t-48 -35
q-14 -28 -14 -62z" />
    <glyph glyph-name="one" unicode="1" horiz-adv-x="478" 
d="M60 602q-4 6 -4 14q0 27 34 57q27 24 58 36q53 15 113 15q86 0 116 -39q36 -47 36 -256q0 -245 -24 -377q-10 -56 -121 -56q-101 0 -114 41q-5 26 -5 70q0 62 10.5 185.5t10.5 185.5q0 65 -12 83q-8 26 -26 26q-7 0 -21 -4t-21 -4q-19 0 -30 23z" />
    <glyph glyph-name="two" unicode="2" horiz-adv-x="610" 
d="M80 586q32 66 93.5 102t135.5 36q79 0 142 -39q69 -43 85 -116q11 -51 11 -98q0 -148 -134 -223q-49 -27 -50 -33q49 12 90 12q37 0 58 -11q42 -14 42 -90q0 -78 -34 -95q-6 -15 -112 -23q-67 -5 -125 -5q-179 0 -207 31q-19 45 -19 86q0 80 74 153q32 32 136 105
q74 52 74 83q0 8 -3 15q-18 42 -25 48q-13 12 -58 12q-35 0 -59 -45.5t-57 -47.5h-7q-29 0 -50 16q-23 17 -23 50q0 32 22 77z" />
    <glyph glyph-name="three" unicode="3" horiz-adv-x="610" 
d="M480 57q-50 -58 -206 -58q-128 0 -179 40q-28 22 -28 68q0 49 24 82q15 20 44 20q22 0 68 -13t68 -13q51 0 51 66q0 50 -44 50q-15 0 -47.5 -6t-48.5 -6q-65 0 -73 79q8 83 91 83h25l26 -1h-2q59 0 59 54v7q-15 57 -59 57q-22 0 -70 -18.5t-70 -18.5q-10 0 -18 3
q-28 29 -28 66q0 73 82 104q57 22 143 22q145 0 189 -62q47 -66 47 -141q0 -90 -64 -132q87 -55 87 -158q0 -97 -67 -174z" />
    <glyph glyph-name="four" unicode="4" horiz-adv-x="610" 
d="M400 718q-11 1 -23 1q-132 0 -238 -166q-95 -149 -95 -289q0 -22 3 -39q52 -67 115 -67q19 0 53.5 11t48.5 11q17 0 17 -19q0 -14 -7.5 -43t-7.5 -44q0 -24 8 -46q6 -15 45 -24q29 -7 54 -7q55 0 75 24q8 23 8 58q0 26 -5 61l-4 29q16 14 40 14q5 0 16 -1t16 -1
q14 0 23 8q24 22 24 78q0 68 -26 89q-13 13 -32 13q-8 0 -22 -3t-21 -3q-11 0 -13 11q8 94 8 161q0 183 -59 183h-1zM247 389q2 14 14 35q14 25 25 25q8 0 9 -15v4q-1 0 -1 -34q0 -29 -16 -29q-22 0 -22 -1h1q-10 1 -10 11v4z" />
    <glyph glyph-name="five" unicode="5" horiz-adv-x="610" 
d="M103 663q14 64 183 64q231 0 231 -119q0 -28 -13 -53q-23 -29 -82 -31q-11 0 -103 8q-16 1 -28 1q-33 0 -42 -9q-29 0 -29 -51q0 -34 20 -45q9 -5 30 -5q10 0 21 1q37 3 61 3q12 0 21 -1q54 -4 99 -26q72 -48 72 -171q0 -60 -20 -113q-24 -63 -65.5 -89.5t-161.5 -26.5
q-156 0 -190 32q-26 24 -26 78q0 51 20 90q13 16 41 16q25 0 73 -14t72 -14q38 0 40 39q-4 52 -84 52h-31q-7 0 -18 -1h-13q-63 0 -78 27q-37 67 -37 171t37 187z" />
    <glyph glyph-name="six" unicode="6" horiz-adv-x="610" 
d="M99 625q24 55 95 82q57 23 127 23q196 0 196 -129q0 -54 -29 -90q-14 -2 -26 -2q-25 0 -73 31q-21 7 -46 7q-57 0 -95 -29q-31 -50 -31 -81q0 -21 11 -39q4 -2 10 -2q9 0 54.5 15.5t74.5 15.5q55 0 119 -28q67 -58 67 -172q0 -50 -15 -100q-19 -62 -52 -85
q-64 -44 -174 -44q-163 0 -214 97q-41 110 -41 285q0 170 42 245zM297 233q0 -44 41 -44h9q21 2 28 13q5 8 5 31q0 27 -6 32q-5 3 -20 3q-6 0 -15 -1q-44 -4 -44 -31q0 -3 1 -5q1 0 1 2z" />
    <glyph glyph-name="seven" unicode="7" horiz-adv-x="610" 
d="M87 675q47 49 200 49q61 0 124 -10q90 -15 109 -45q35 -20 35 -99q0 -102 -54 -278q-47 -153 -99 -261q-16 -34 -84 -34q-27 0 -64 8q-46 10 -54 26q-4 17 -4 35q0 64 43 158q18 40 78 151q43 80 43 106q0 14 -10 22q-31 24 -77 24q-48 0 -78 -27q-11 -8 -12 -34.5
t-11 -35.5q-26 -23 -53 -23q-14 0 -29 8q-35 19 -35 139q0 105 32 121z" />
    <glyph glyph-name="eight" unicode="8" horiz-adv-x="610" 
d="M118 670q20 29 86 43q47 11 99 11q143 0 180 -58q21 -22 34 -72q11 -42 11 -79q0 -86 -54 -131q39 -24 62 -77q21 -47 21 -98q0 -81 -46 -141q-49 -65 -190 -65q-57 0 -117 14q-74 16 -106 46q-46 66 -46 146q0 49 19 98q21 55 56 81q-53 47 -53 131q0 89 44 151z
M258 222q0 -38 45 -38q25 0 35 6.5t10 29.5q0 4 -3 12q-10 25 -40 25q-47 0 -47 -35zM258 522q0 -38 45 -38t45 36q0 22 -9.5 29.5t-33.5 7.5q-47 0 -47 -35z" />
    <glyph glyph-name="nine" unicode="9" horiz-adv-x="610" 
d="M86 107q-5 8 -17 60q4 26 23 45.5t45 19.5q14 0 30 -6q41 -36 88 -36q41 0 78.5 28.5t37.5 68.5q0 16 -9 29q-6 6 -15 6t-43.5 -11t-55.5 -11q-53 0 -111 37q-58 59 -58 155q0 94 55 170q48 66 168 66q52 0 103 -17q59 -19 85 -55t40 -126q11 -69 11 -135
q0 -156 -50 -258q-65 -135 -205 -135q-52 0 -112 20q-69 53 -88 85zM345 557q-14 11 -30 11q-4 0 -8 -1q-56 -12 -56 -47q0 -9 2 -19q8 -38 44 -38q8 0 32 4q33 5 33 55q0 20 -17 35z" />
    <glyph glyph-name="colon" unicode=":" horiz-adv-x="378" 
d="M151 631q25 10 53 10q71 0 105 -74q11 -24 11 -48q0 -59 -57 -95q-27 -17 -58 -17q-51 0 -85.5 35t-34.5 86q0 77 66 103zM151 221q25 10 53 10q71 0 105 -74q11 -24 11 -48q0 -59 -57 -95q-27 -17 -58 -17q-51 0 -85.5 35t-34.5 86q0 77 66 103z" />
    <glyph glyph-name="semicolon" unicode=";" horiz-adv-x="378" 
d="M202 227q49 0 82.5 -32.5t33.5 -80.5v-2q0 -76 -66 -156q-60 -73 -94 -73q-4 0 -6 2q-16 11 -16 29q0 14 12 41.5t12 35.5q0 3 -1 6q-72 32 -72 111q0 36 18 67q29 52 97 52zM151 631q25 10 53 10q71 0 105 -74q11 -24 11 -48q0 -59 -57 -95q-27 -17 -58 -17
q-51 0 -85.5 35t-34.5 86q0 77 66 103z" />
    <glyph glyph-name="less" unicode="&#x3c;" horiz-adv-x="544" 
d="M380 734q53 0 85 -29.5t32 -81.5q-8 -25 -113 -128q-98 -96 -98 -129q0 -38 74 -96q94 -73 121 -111q20 -28 20 -56q0 -44 -34 -73.5t-79 -29.5q-89 21 -211 148q-126 132 -127 218v1q0 71 102 195q79 96 153 154q36 18 75 18z" />
    <glyph glyph-name="equal" unicode="=" horiz-adv-x="578" 
d="M63 538q60 11 184 11q148 0 222 -11q40 -6 40 -65q0 -47 -31 -73q-97 -10 -253 -10q-109 0 -168 7q-28 14 -28 66q0 59 34 75zM63 328q60 11 184 11q148 0 222 -11q40 -6 40 -65q0 -47 -31 -73q-97 -10 -253 -10q-109 0 -168 7q-28 14 -28 66q0 59 34 75z" />
    <glyph glyph-name="greater" unicode="&#x3e;" horiz-adv-x="548" 
d="M235 716q74 -58 153 -154q102 -124 102 -195v-1q-1 -86 -127 -218q-122 -127 -211 -148q-45 0 -79 29.5t-34 73.5q0 28 20 56q27 38 121 111q74 58 74 96q0 33 -98 129q-105 103 -113 128q0 52 32 81.5t85 29.5q39 0 75 -18z" />
    <glyph glyph-name="question" unicode="?" horiz-adv-x="562" 
d="M42 584q25 73 90 111q60 35 141 35q73 0 137 -30q78 -36 89 -100q11 -32 11 -70q0 -62 -27 -112q-29 -55 -82 -80q-18 -9 -33 -24l-44 -45q-17 -37 -51 -37q-41 0 -58 39q-3 8 -6 13q-8 25 -8 48q0 35 27 59q8 8 58 38q56 34 56 69q0 20 -16 45q-27 43 -76 43
q-73 0 -131 -72q-81 0 -81 50q0 8 4 20zM173 101q5 86 101 86h2q67 -1 82 -69q3 -14 3 -25q0 -43 -28.5 -67t-72.5 -24q-43 0 -68 34q-19 26 -19 59v6z" />
    <glyph glyph-name="at" unicode="@" horiz-adv-x="602" 
d="M387 297q27 2 27 98q0 37 -6 80q-9 55 -22 70q-17 19 -103 25q-12 1 -24 1q-47 0 -74 -14q-40 -22 -48 -82q-1 -6 -6 -122q-1 -13 -1 -26q0 -92 33 -132q44 -54 169 -54q13 0 26 1q20 1 62 9.5t63 8.5q24 0 37 -30q9 -22 9 -50q0 -52 -20 -58q-81 -23 -151 -26
q-15 -1 -30 -1q-206 0 -278 105q-46 68 -46 227v26q4 189 48 267q60 106 214 106h17q147 -5 201 -82q44 -64 46 -221v-17q0 -201 -67 -225q-29 -10 -99 -12h-22q-108 0 -143 27q-43 33 -46 155v31q0 87 15 117q21 41 96 42h4q89 0 109 -39q11 -21 11 -133q0 -66 -1 -72z
M256 355q0 -36 -1 -36v2q2 -23 17 -24q4 -1 12 -2q5 0 5 34q0 11 -1 26q0 17 -1 52q0 12 -15 12q-16 0 -16 -12v-52z" />
    <glyph glyph-name="A" unicode="A" horiz-adv-x="628" 
d="M153 670q28 59 155 59q48 0 89 -13q55 -16 71 -49q35 -69 73 -287q37 -206 37 -301q0 -43 -9 -49q-7 -13 -41 -22q-28 -7 -48 -7q-48 0 -81 29q-31 50 -38 98q-4 35 -13 104q-7 29 -33 29q-11 0 -24 -7q-12 -7 -12 -17v-2q-3 -42 -11 -125q-6 -61 -29 -80
q-33 -28 -83 -28q-66 0 -96 39q-10 9 -10 68q0 114 28 279q33 193 75 282zM243 466q0 -24 18 -39.5t42 -15.5t42.5 15.5t18.5 39.5t-18.5 39.5t-42.5 15.5t-42 -15.5t-18 -39.5z" />
    <glyph glyph-name="B" unicode="B" horiz-adv-x="607" 
d="M161 717q57 17 125 17q77 0 148 -20q39 -11 64 -79q17 -46 17 -78v-4q-1 -51 -38 -96q-33 -40 -84 -63q57 -23 113 -75q51 -60 51 -131q0 -81 -57 -135q-17 -17 -84 -35q-62 -18 -92 -18q-92 0 -133 8q-70 14 -95 55q-46 76 -46 345q0 184 20 234q9 51 91 75z
M248.5 509.5q15.5 -14.5 37.5 -14.5t38 14.5t16 36.5q0 21 -16.5 35.5t-37.5 14.5t-37 -14.5t-16 -35.5q0 -22 15.5 -36.5zM264 178q17 -10 40 -10q22 0 41.5 11.5t19.5 32.5q0 22 -25 44t-47 22t-36 -21.5t-14 -44.5q0 -21 21 -34z" />
    <glyph glyph-name="C" unicode="C" horiz-adv-x="627" 
d="M481 695.5q23 -26.5 23 -64.5q0 -44 -37 -66q-16 -9 -78 -26q-76 -21 -97 -52q-31 -46 -31 -127q0 -76 38 -129q43 -28 83 -28q44 0 96 33q18 9 36 9q30 0 48 -22q15 -21 15 -47v-6q-5 -61 -26.5 -90t-87.5 -57q-45 -19 -90 -19q-34 0 -98 16q-88 34 -95 38
q-30 17 -66 61q-32 39 -50 127q-14 72 -14 139q0 61 12 96q57 120 153 188q57 41 115 52q15 3 90 8q38 -7 61 -33.5z" />
    <glyph glyph-name="D" unicode="D" horiz-adv-x="602" 
d="M134 711q46 12 94 12q128 0 216 -63q36 -26 70 -122q38 -107 38 -216q0 -146 -73 -243q-30 -40 -107 -62q-61 -17 -125 -17q-115 0 -161 47q-36 51 -36 414q0 171 10.5 202.5t73.5 47.5zM250 301q10 -26 46 -26q34 0 52 28q15 24 15 60q0 100 -95 100q-28 0 -28 -31
q0 -12 2 -36t2 -36q0 -44 6 -59z" />
    <glyph glyph-name="E" unicode="E" horiz-adv-x="608" 
d="M102 670q39 53 187 53q109 0 195 -36q32 -41 32 -78q0 -30 -23 -48q-7 -5 -20 -5q-15 0 -50.5 6.5t-53.5 6.5q-38 0 -66 -17q-32 -20 -32 -56q0 -32 22 -44q20 -15 91 -19q78 -5 94 -10q25 -16 25 -57q0 -31 -22 -44q-16 -3 -42 -3h-26l-29 1h2q-75 0 -96 -33
q5 -113 212 -113h18q38 -11 38 -68q0 -56 -49 -79q-54 -25 -175 -25q-197 0 -246 88q-38 68 -38 277q0 232 52 303z" />
    <glyph glyph-name="F" unicode="F" horiz-adv-x="612" 
d="M92 641q52 84 230 84q116 0 207 -38q33 -41 33 -91q0 -37 -24 -55q-7 -5 -20 -5q-18 0 -55 6.5t-56 6.5q-40 0 -67 -16q-34 -20 -34 -57q0 -32 22 -44q20 -15 91 -19q79 -5 94 -10q18 -11 18 -47q0 -43 -29 -60q-15 -3 -41 -3h-27l-29 1h2q-74 0 -96 -33q-1 -11 -1 -22
q0 -27 14 -79.5t14 -79.5q0 -15 -4 -30q-12 -45 -99 -45q-83 0 -116 61q-14 25 -40 138q-29 128 -29 237q0 132 42 200z" />
    <glyph glyph-name="G" unicode="G" horiz-adv-x="613" 
d="M490 634q0 -66 -86 -76q-58 -7 -86 -35t-41 -86q-6 -53 -6 -87q0 -48 11 -69q34 -65 76 -65q23 0 39 19t16 43q0 14 -6 26q-46 40 -46 80v5q18 30 32 34q3 1 51 1q41 -5 65 -33l42 -65q12 -38 12 -78q0 -92 -54 -161t-143 -87q-107 0 -182 49q-42 27 -99 93
q-35 68 -35 184q0 68 12 154q74 249 290 249q138 0 138 -95z" />
    <glyph glyph-name="H" unicode="H" horiz-adv-x="599" 
d="M72 687q27 32 91 32q73 0 86 -75q5 -30 5 -75q0 -36 -3 -81q7 -33 47 -33q43 0 56 36q2 92 2 98q3 57 14 96q10 35 77 35q57 0 76 -29q26 -98 26 -364q0 -139 -7 -274q-8 -22 -38 -35q-25 -10 -53 -10q-64 0 -78 42q-11 61 -16 178q-2 38 -45 38q-47 0 -47 -40v-37
q0 -87 -4 -106q-18 -77 -96 -77q-29 0 -57 10q-36 13 -39 37q-19 131 -19 333q0 220 22 301z" />
    <glyph glyph-name="I" unicode="I" horiz-adv-x="321" 
d="M70 685q18 33 88 33q76 0 97 -37q16 -29 16 -337q0 -272 -13 -314q-14 -33 -97 -33q-76 0 -89 30q-22 50 -22 356q0 275 20 302z" />
    <glyph glyph-name="J" unicode="J" horiz-adv-x="597" 
d="M289 629q-7 14 -7 27q0 33 41 52q32 14 70 14q99 0 115 -70q39 -92 39 -285q0 -199 -38 -271q-74 -94 -201 -94q-73 0 -136 31q-72 36 -98 97q-24 56 -24 90q0 31 18 59q18 38 70 38q76 0 86 -81q14 -25 45 -25q39 0 69 38q26 33 26 108q0 127 -75 272z" />
    <glyph glyph-name="K" unicode="K" horiz-adv-x="621" 
d="M65 696q5 34 82 34q97 0 101 -52q3 -17 3 -42v-26l-1 -28v2q0 -56 26 -70q4 -1 8 -1q30 0 51 44l43 96q30 54 71 54t79 -30.5t38 -70.5q0 -11 -4 -24q-17 -57 -73 -119q-51 -57 -107 -90q56 -27 112 -98q67 -86 77 -172v-8q0 -34 -34 -58q-33 -22 -75 -22q-39 0 -64 19
q-17 22 -37 73q-24 62 -34 77q-22 35 -51 35q-8 0 -17 -2q-23 -14 -23 -53q0 -37 23 -109q-12 -52 -89 -52q-43 0 -73 20q-33 23 -35 64q-12 276 -12 351q0 161 15 258z" />
    <glyph glyph-name="L" unicode="L" horiz-adv-x="631" 
d="M69 669q17 50 103 50q84 0 104 -44q8 -29 8 -72q0 -49 -17 -145t-17 -144q0 -22 5 -34q16 -69 119 -69q26 0 81 7q47 6 74 8h4q48 0 48 -85q0 -29 -9 -61q-11 -41 -31 -48q-80 -26 -183 -26q-182 0 -264 70q-44 49 -44 261q0 139 19 332z" />
    <glyph glyph-name="M" unicode="M" horiz-adv-x="631" 
d="M78 44q-28 69 -28 339q0 208 22 281q2 31 33 48q25 13 59 13q36 0 63 -16q32 -18 33 -52q18 -44 19 -45q14 -24 38 -26q27 2 41 29l18 47q1 27 33 43q26 13 56 13q78 0 91 -60q25 -115 25 -323q0 -190 -25 -282q-6 -23 -35 -37q-24 -11 -51 -11q-57 0 -81 42q-5 15 -5 44
q0 31 6.5 94t6.5 94q0 49 -17 51q-6 0 -13 -21q-8 -26 -15 -37q-13 -20 -38 -20q-27 0 -40.5 39t-20.5 39q-23 -6 -23 -61q0 -33 10 -99.5t10 -99.5q0 -16 -3 -23q-23 -41 -88 -41q-66 0 -81 38z" />
    <glyph glyph-name="N" unicode="N" horiz-adv-x="627" 
d="M164 726q72 0 105 -32q19 -19 39 -97q29 -117 36 -135q22 -62 51 -62h4q18 3 18 35q0 37 -19 109t-19 109q0 23 8 32q11 27 78 27q77 0 95 -32q17 -59 17 -289q0 -263 -17 -342q-8 -38 -72 -38q-35 0 -65 15q-35 17 -43 47l-63 130q-35 70 -64 72q-15 -2 -15 -24
q0 -27 19 -85.5t19 -86.5q0 -18 -8 -26q-17 -47 -96 -47q-32 0 -60 11q-37 13 -42 39q-20 256 -20 410q0 128 12 211q7 49 102 49z" />
    <glyph glyph-name="O" unicode="O" horiz-adv-x="605" 
d="M465 627q66 -83 90 -260v-27q0 -120 -16 -176q-21 -71 -89 -129q-93 -31 -163 -31q-75 0 -137 34q-55 62 -77.5 122.5t-22.5 144.5q0 45 6 102q30 130 52 184q43 105 111 135q165 0 246 -99zM233 338q0 -62 75 -62q49 0 67 35q14 26 14 80q0 37 -33 60q-29 20 -62 20h-9
q-18 -2 -36 -56q-15 -44 -16 -71v-6z" />
    <glyph glyph-name="P" unicode="P" horiz-adv-x="613" 
d="M273 728q111 0 195 -45q95 -32 95 -188v-10q-3 -195 -179 -195q-52 0 -118 18q-9 -4 -9 -18q0 -21 27.5 -94.5t27.5 -109.5q0 -41 -29 -56q-36 -23 -84 -23q-78 0 -111 40q-18 30 -29 165q-9 103 -9 175q0 177 28 239q45 102 195 102zM263 504q0 -21 19 -35
q16 -13 38 -16q6 -1 12 -1q50 0 60 61q0 39 -84 39q-45 0 -45 -48z" />
    <glyph glyph-name="Q" unicode="Q" horiz-adv-x="633" 
d="M217 713q39 14 77 14q83 0 169 -83q90 -87 90 -278q0 -87 -19 -154q21 -24 49 -105q0 -73 -70 -93q-50 2 -69 45q-37 -62 -165 -62q-136 0 -182.5 74.5t-46.5 186.5q0 52 6 104q35 306 161 351zM249 447q0 -48 2 -53q5 -14 35 -14h13q21 0 60 -8q5 0 6 11l3 46v10
q0 38 -21 50q-14 8 -47 8t-39 -5q-12 -9 -12 -45zM263 192q0 -3 -1.5 -9.5t-1.5 -9.5q0 -9 28 -9q25 0 28 1q9 3 9 21v21q-4 8 -31 8t-31 -5v-18z" />
    <glyph glyph-name="R" unicode="R" horiz-adv-x="621" 
d="M74 623q11 48 73 77q55 26 131 26q111 0 193 -52q91 -58 96 -159q1 -17 4 -52v-3q0 -11 -6 -34l-4 -16q-10 -40 -42 -62q-11 -7 -42 -18q-19 -7 -19 -22q0 -5 1 -12q8 -20 40 -59q36 -43 46 -63q24 -46 25 -106v-2q0 -32 -34 -50q-27 -14 -64 -14q-40 0 -65 15
q-20 15 -31 67q-13 63 -23 81q-20 38 -64 38h-6q-23 0 -23 -25q0 -19 10.5 -56.5t10.5 -56.5t-9 -30q-31 -39 -93 -39q-28 0 -56 9q-36 11 -46 30q-27 91 -27 299q0 185 24 289zM242 490q0 -26 14 -44.5t40 -18.5q72 0 72 57v6q-3 48 -70 48q-56 0 -56 -48z" />
    <glyph glyph-name="S" unicode="S" horiz-adv-x="628" 
d="M565 587q0 -31 -27.5 -62t-58.5 -31q-11 0 -21 6q-53 32 -93 32q-57 0 -57 -47v-6q3 -48 132 -87q75 -22 106.5 -65t31.5 -121q0 -136 -117 -189q-67 -22 -144 -22q-81 0 -148 23q-83 29 -119 86q0 58 6 84q16 67 66 67q20 0 71.5 -29.5t74.5 -29.5t42 19q2 8 2 14
q0 23 -27 35q-17 8 -68 17q-67 12 -106.5 62t-39.5 119q0 110 85 190q83 77 194 77q84 0 132 -32q30 -20 76 -83q7 -12 7 -27z" />
    <glyph glyph-name="T" unicode="T" horiz-adv-x="639" 
d="M83 712q83 15 230 15q135 0 241 -15q35 -16 35 -99q0 -75 -29 -90q-19 -24 -49 -24q-15 0 -44 9t-42 9q-15 0 -22 -11q-4 -6 -4 -27q0 -64 16.5 -192t16.5 -192q0 -54 -12 -63q-39 -30 -111 -30q-69 0 -87 39q-11 11 -11 59q0 63 19.5 188.5t19.5 188.5q0 20 -4 23
q-7 15 -25 15q-14 0 -46 -8.5t-49 -8.5q-24 0 -43 10q-33 17 -33 101q0 83 33 103z" />
    <glyph glyph-name="U" unicode="U" horiz-adv-x="635" 
d="M301 656q-6 -65 -17 -143q-13 -91 -13 -136q0 -92 54 -94h2q52 0 52 100q0 50 -13 139q-15 103 -17 131v6q0 33 31 51q28 16 67 16q43 0 76 -20q37 -22 46 -62q16 -74 16 -172q0 -103 -23 -227q-30 -167 -83 -198q-25 -46 -158 -46q-142 0 -161 49q-61 52 -89 183
q-21 96 -21 209q0 99 20 196q10 46 45 68t81 22q35 0 66 -13q40 -17 40 -48q0 -3 -1 -11z" />
    <glyph glyph-name="V" unicode="V" horiz-adv-x="640" 
d="M277 654q10 -143 15 -196q18 -158 42 -161h1q19 0 20 127q1 180 9 236q-1 4 -1 8q0 29 37 44q30 13 70 13q41 0 75 -13q45 -17 45 -49v-4q-15 -200 -41 -361q-38 -231 -85 -263q-42 -35 -120 -35q-85 0 -125 29q-61 45 -118 261q-51 196 -51 335v20q1 37 49 60
q39 18 81 18q92 0 97 -69z" />
    <glyph glyph-name="W" unicode="W" horiz-adv-x="640" 
d="M92 721q28 9 63 9q97 0 97 -45v-8q0 -23 -8 -70q-12 -68 -12 -91q0 -47 26 -54q7 0 20.5 39t40.5 39q25 0 38 -20q7 -11 15 -37q7 -21 13 -21q23 2 23 64q0 37 -5 83l-9 76v3q0 22 35 32q26 8 57 8q35 0 63 -9q41 -13 41 -41q0 -288 -69 -624q-16 -48 -75 -48
q-36 0 -60 19q-27 20 -27 54v2q-6 99 -37 105q-21 -4 -27 -34l-8 -71v-7q0 -33 -24 -51q-23 -18 -62 -18q-26 0 -49 10q-29 11 -35 33q-22 78 -46 327q-21 222 -21 306q0 27 42 40z" />
    <glyph glyph-name="X" unicode="X" horiz-adv-x="622" 
d="M58 625v2q0 39 37 70q36 29 77 29q30 0 56 -15q19 -14 50 -103q28 -80 46 -80q13 0 32 76q21 88 40 109q28 20 64 20q42 0 75 -25q31 -25 31 -65v-2q-1 -63 -31 -123q-16 -32 -58 -93q-33 -48 -36 -68q3 -24 58 -102q52 -74 63 -128q10 -20 10 -47q0 -38 -25 -58.5
t-64 -20.5q-22 0 -48 7h-3q-26 0 -43 45l-30 92q-18 51 -41 52q-19 0 -42 -52l-42 -95q-27 -50 -63 -50h-3q-48 0 -82 32q-36 33 -36 83q0 54 46 120l59 72q27 33 27 52v1q-2 22 -33 69q-50 75 -59 92q-31 58 -32 104z" />
    <glyph glyph-name="Y" unicode="Y" horiz-adv-x="604" 
d="M50 670q0 25 44 42q35 14 65 14q44 0 51 -26q13 -17 24 -59q13 -48 20 -62q15 -29 42 -29h2q60 3 82 147q7 28 64 28q36 0 69 -14q41 -18 41 -50q-16 -164 -33 -215q-33 -99 -122 -120q-5 -11 -5 -34q0 -34 9.5 -102t9.5 -102q0 -25 -3 -38q-10 -46 -103 -46
q-33 0 -70 10q-50 13 -52 36v12q0 35 8 104q11 89 11 116q0 29 -7 42q-93 34 -125 137q-22 70 -22 209z" />
    <glyph glyph-name="Z" unicode="Z" horiz-adv-x="634" 
d="M292 729q174 0 246 -51q39 -41 39 -132q0 -95 -22 -130q-17 -39 -133 -102q-106 -58 -106 -88v-1q4 -14 28 -14q27 0 79.5 13t79.5 13q19 0 29 -6q25 -10 40 -45q12 -30 12 -61q0 -72 -58 -93q-31 -19 -117 -29q-66 -8 -124 -8q-144 0 -191 37q-44 20 -44 131q0 50 12 77
q12 45 82 94l106 69q83 57 83 77q0 8 -6 14q-13 28 -52 28q-28 0 -83 -16.5t-81 -16.5q-22 0 -30 13q-31 16 -31 102q0 64 25 86q62 39 217 39z" />
    <glyph glyph-name="bracketleft" unicode="[" horiz-adv-x="548" 
d="M303 729h-13q-12 1 -19 1h-32q-93 0 -132 -56q-55 -79 -57 -308v-11q0 -133 23 -207q39 -120 147 -141q36 -7 168 -7q86 0 95 5q21 9 21 70q0 11 -2 76q-1 34 -39 34q-14 0 -41.5 -3.5t-41.5 -3.5q-109 0 -109 160q0 13 1 26q-1 17 -1 33q0 61 16 94q27 55 104 55h-1
l25 -1h22q60 0 60 50q-1 99 -7 113q-10 23 -64 23q-20 0 -61 -1t-62 -1z" />
    <glyph glyph-name="backslash" unicode="\" horiz-adv-x="547" 
d="M347 448q129 -233 157 -332q5 -17 5 -31q0 -38 -28.5 -60.5t-67.5 -22.5q-38 0 -70 21q-69 93 -177 298q-117 220 -143 320v6q0 36 34 60q33 23 74 23q38 0 56 -20q38 -42 160 -262z" />
    <glyph glyph-name="bracketright" unicode="]" horiz-adv-x="560" 
d="M237 729h13q12 1 19 1h32q93 0 132 -56q55 -79 57 -308v-11q0 -133 -23 -207q-39 -120 -147 -141q-36 -7 -168 -7q-86 0 -95 5q-21 9 -21 70q0 11 2 76q1 34 39 34q14 0 41.5 -3.5t41.5 -3.5q109 0 109 160q0 13 -1 26q1 17 1 33q0 61 -16 94q-27 55 -104 55h1l-25 -1
h-22q-60 0 -60 50q1 99 7 113q10 23 64 23q20 0 61 -1t62 -1z" />
    <glyph glyph-name="asciicircum" unicode="^" horiz-adv-x="573" 
d="M505 502q0 -29 -14.5 -50t-42.5 -21q-17 0 -33.5 7.5t-69.5 76.5q-49 64 -67 64q-23 0 -58 -56q-45 -72 -66 -91q-14 -9 -31 -9q-30 0 -47 24t-17 55q11 60 85 143q77 87 134 91q45 -2 118 -67q109 -98 109 -167z" />
    <glyph glyph-name="underscore" unicode="_" horiz-adv-x="591" 
d="M73 158q60 11 184 11q148 0 222 -11q40 -6 40 -65q0 -47 -31 -73q-97 -10 -253 -10q-109 0 -168 7q-28 14 -28 66q0 59 34 75z" />
    <glyph glyph-name="grave" unicode="`" horiz-adv-x="464" 
d="M183 707q19 19 48 19q59 0 118 -55q41 -47 41 -92q0 -32 -20.5 -52t-52.5 -20q-53 0 -100 46q-53 51 -53 106q0 29 19 48z" />
    <glyph glyph-name="a" unicode="a" horiz-adv-x="612" 
d="M92 602q61 60 203 60q141 0 198 -68q41 -24 58 -153q11 -81 11 -175q0 -156 -26 -215q-9 -48 -76 -48q-53 0 -60 31q-48 -21 -106 -21q-123 0 -194 64q-50 65 -50 151q0 72 43 112q58 54 133 54q47 0 132 -31q38 0 38 43q0 28 -18 52.5t-44 33.5q-33 11 -66 11
q-32 0 -76 -20t-57 -20q-20 0 -43 15q-25 35 -25 67q0 33 25 57zM210 210q0 -24 14 -33q8 -5 35 -8q8 -1 15 -1q20 0 36 6q28 10 28 37q0 44 -71 54q-5 1 -10 1q-19 0 -31 -13q-16 -16 -16 -43z" />
    <glyph glyph-name="b" unicode="b" horiz-adv-x="610" 
d="M169 729q80 0 90 -37q2 -5 2 -14q0 -34 -14.5 -102t-14.5 -103q0 -50 17 -76q5 -7 14 -7q6 0 48.5 17t71.5 17q53 0 111 -33q66 -59 66 -156t-63 -172q-23 -28 -87 -45q-59 -16 -126 -16q-59 0 -111 13q-74 18 -91 56q-32 71 -32 276q0 122 9 222t19 121q14 39 91 39z
M267 177q17 -11 34 -11q5 0 10 1q67 12 67 50q0 8 -3 20q-10 40 -52 40q-12 0 -38 -4q-40 -6 -40 -59q0 -23 22 -37z" />
    <glyph glyph-name="c" unicode="c" horiz-adv-x="624" 
d="M478 591q23 -25 23 -62q0 -32 -17 -49q-113 -36 -141 -50q-85 -44 -85 -112q0 -40 38 -92q43 -27 83 -27q44 0 96 32q18 8 36 8q30 0 48 -20q15 -18 15 -43v-8q-5 -58 -27 -85.5t-87 -54.5q-44 -18 -90 -18q-34 0 -98 15q-86 32 -95 37q-31 17 -66 57q-61 71 -61 194
q0 40 9 73q60 120 153 179q49 38 115 50q17 3 90 8q38 -7 61 -32z" />
    <glyph glyph-name="d" unicode="d" horiz-adv-x="610" 
d="M532 690q10 -21 19 -121t9 -222q0 -205 -32 -276q-17 -38 -91 -56q-52 -13 -111 -13q-67 0 -126 16q-64 17 -87 45q-63 75 -63 172t66 156q58 33 111 33q29 0 71.5 -17t48.5 -17q9 0 14 7q17 26 17 76q0 35 -14.5 103t-14.5 102q0 9 2 14q10 37 90 37q77 0 91 -39z
M365 214q0 53 -40 59q-26 4 -38 4q-42 0 -52 -40q-3 -12 -3 -20q0 -38 67 -50q5 -1 10 -1q17 0 34 11q22 14 22 37z" />
    <glyph glyph-name="e" unicode="e" horiz-adv-x="624" 
d="M377 626q168 0 168 -199q-23 -136 -141 -136q-21 0 -62.5 8.5t-60.5 8.5q-7 0 -10 -2q-17 -10 -17 -29q0 -17 12.5 -31.5t29.5 -19.5q78 -21 95 -21q43 0 84 26q18 8 36 8q30 0 48 -20q15 -18 15 -43v-8q-5 -58 -27 -85.5t-87 -54.5q-44 -18 -90 -18q-34 0 -98 15
q-86 32 -95 37q-31 17 -66 57q-61 71 -61 194q0 30 9 73q41 198 183 230q57 6 93 7q40 3 42 3zM299 439.5q16 -10.5 35 -10.5q18 0 34 10.5t16 28.5t-16 28.5t-34 10.5q-19 0 -35 -10.5t-16 -28.5t16 -28.5z" />
    <glyph glyph-name="f" unicode="f" horiz-adv-x="631" 
d="M87 510q8 3 19 3q13 0 43 -6.5t45 -6.5q22 0 40 10q8 5 8 24q0 8 -1 18q-7 50 -7 69v4q5 106 139 106q52 0 99 -21q24 -25 25 -27q9 -13 9 -28q0 -16 -11 -49q-30 -16 -49 -16q-5 0 -14.5 2t-14.5 2q-34 0 -34 -38q0 -26 15 -43q6 -11 33 -11q16 0 40 4q28 4 48 4
q29 0 40 -9q22 -13 22 -65q0 -23 -6 -49q-7 -36 -21 -42q-13 -6 -40 -6q-18 0 -44 3q-18 2 -31 2q-26 0 -31 -9q-9 -9 -9 -48q0 -37 7.5 -110.5t7.5 -110.5q0 -24 -3 -38q-13 -27 -86 -27q-89 0 -94 37q-8 25 -8 67q0 32 6.5 95.5t6.5 95.5q0 55 -38 55q-15 0 -43.5 -6
t-43.5 -6q-14 0 -24 5q-37 10 -37 84t37 82z" />
    <glyph glyph-name="g" unicode="g" horiz-adv-x="635" 
d="M70 5q-7 10 -20 60q5 26 28 46t50 20q16 0 33 -7q46 -35 99 -35q49 0 93 29q48 33 48 80q0 19 -11 34q-5 7 -15 7q-7 0 -55 -17.5t-80 -17.5q-55 0 -113 33q-66 59 -66 156q0 95 63 172q53 64 185 64q60 0 116 -15q69 -19 101 -54t47 -124q12 -66 12 -134
q0 -164 -61 -275q-74 -134 -219 -134q-62 0 -136 25q-77 53 -99 87zM364 461q-17 11 -34 11q-5 0 -10 -1q-67 -12 -67 -50q0 -8 3 -20q10 -40 52 -40q12 0 38 4q40 6 40 59q0 23 -22 37z" />
    <glyph glyph-name="h" unicode="h" horiz-adv-x="599" 
d="M60 685q7 44 75 44q21 0 52 -7q40 -9 40 -23q10 -12 10 -46t-10.5 -102.5t-10.5 -102.5q0 -47 17 -47q10 0 53.5 12.5t70.5 12.5q46 0 101 -13q91 -34 91 -230q0 -124 -21 -161q-10 -23 -67 -23q-51 0 -68.5 17t-17.5 66q0 16 2.5 48.5t2.5 48.5q0 74 -52 74
q-26 0 -68 -17q-21 -5 -21 -53q0 -18 3 -52.5t3 -52.5q0 -33 -8 -47q-7 -32 -79 -32q-76 0 -85 32q-23 310 -23 471q0 118 10 183z" />
    <glyph glyph-name="i" unicode="i" horiz-adv-x="333" 
d="M72 425q18 33 88 33q76 0 97 -37q16 -29 16 -199q0 -150 -13 -192q-14 -33 -97 -33q-76 0 -89 30q-22 50 -22 218q0 153 20 180zM50 623q7 107 124 107h4q46 -1 68 -20.5t33 -64.5q4 -16 4 -31q0 -53 -35.5 -83t-89.5 -30q-48 0 -79 37q-29 34 -29 77v8z" />
    <glyph glyph-name="j" unicode="j" horiz-adv-x="627" 
d="M378 388q0 31 33 50q27 16 60 16q69 0 81 -61q25 -128 25 -235q0 -141 -56 -203q-58 -65 -196 -65q-89 0 -158 40q-75 43 -106 122q-11 28 -11 55q0 52 54 73q28 8 44 8q26 0 54 -26q8 -7 41 -46q18 -21 55 -21q50 0 78 28q26 40 26 99q0 29 -12 84t-12 82zM301 623
q7 107 124 107h4q46 -1 68 -20.5t33 -64.5q4 -16 4 -32q0 -53 -35.5 -82.5t-89.5 -29.5q-48 0 -79 37q-29 34 -29 77v8z" />
    <glyph glyph-name="k" unicode="k" horiz-adv-x="621" 
d="M65 696q5 34 82 34q97 0 101 -52q3 -17 3 -51v-40q0 -8 -1 -24v-17q0 -98 26 -112q4 -1 8 -1q30 0 51 44l43 96q30 54 71 54t79 -30.5t38 -70.5q0 -11 -4 -24q-29 -98 -150 -169q66 -31 108.5 -93.5t50.5 -136.5v-8q0 -34 -34 -58q-33 -22 -75 -22q-39 0 -64 19
q-17 22 -37 73q-24 62 -34 77q-22 35 -51 35q-8 0 -17 -2q-23 -14 -23 -53q0 -37 23 -109q-12 -52 -89 -52q-43 0 -73 20q-33 23 -35 64q-12 276 -12 351q0 161 15 258z" />
    <glyph glyph-name="l" unicode="l" horiz-adv-x="451" 
d="M68 669q18 50 104 50q83 0 103 -44q9 -29 9 -72q0 -49 -17 -145t-17 -144q0 -22 4 -34q-1 -15 -1 -24q0 -65 77 -65h11q60 -2 60 -78q0 -60 -41 -81q-59 -30 -119 -30q-92 0 -148 74q-43 57 -43 264q0 138 18 329z" />
    <glyph glyph-name="m" unicode="m" horiz-adv-x="621" 
d="M549 27q-16 -29 -64 -29q-42 0 -50 32q-13 15 -13 92v71q0 66 -12 66h-1q-17 0 -17 -85v-15q1 -15 1 -23v-38q0 -57 -7 -74q-5 -13 -36 -20q-24 -6 -44 -6q-53 0 -63 29q-4 12 -4 42q0 17 1 51.5t1 51.5q0 80 -20 81q-16 0 -16 -106q0 -53 4 -120q-16 -28 -65 -28
q-19 0 -41 6q-30 8 -32 22q-21 142 -21 335q0 178 21 222q14 42 79 42q60 0 65 -30l9 -55v7q0 31 29 53t66 22q68 0 91 -71q15 69 73 69q46 0 70 -48q18 -74 18 -247q0 -224 -22 -299z" />
    <glyph glyph-name="n" unicode="n" horiz-adv-x="625" 
d="M256 40v-1q0 -38 -88 -38q-90 0 -96 36q-22 130 -22 313q0 186 23 234q14 43 71 43q25 0 45 -10q25 -12 27 -34q0 -13 2 -16q3 -6 15 -7h5q18 0 32 13q19 19 41 28q38 16 77 16q73 0 127 -48q52 -48 52 -118v-3q8 -70 8 -161q0 -179 -24 -260q-15 -28 -88 -28
q-66 0 -74 33q-9 10 -9 65q0 23 1.5 69.5t1.5 69.5q0 151 -44 151h-5l-52 -10q-25 -5 -30 -42q-2 -10 -2 -57q0 17 6 -238z" />
    <glyph glyph-name="o" unicode="o" horiz-adv-x="605" 
d="M456 548q74 -72 99 -233v-25q0 -103 -15 -149q-20 -60 -90 -111q-93 -27 -162 -27q-75 0 -138 29q-55 55 -77.5 105t-22.5 126q0 38 6 87q31 114 52 159q42 89 111 115q158 0 237 -76zM220 288q0 -55 75 -55q81 0 81 99q0 34 -37 54q-29 15 -60 15h-7q-18 -1 -36 -47
q-15 -38 -16 -62v-4z" />
    <glyph glyph-name="p" unicode="p" horiz-adv-x="610" 
d="M78 -72q-10 21 -19 123t-9 226q0 209 32 280q17 38 91 56q52 13 111 13q67 0 126 -16q64 -17 87 -45q63 -75 63 -172t-66 -156q-58 -33 -111 -33q-29 0 -71.5 17t-48.5 17q-9 0 -14 -7q-17 -26 -17 -77q0 -36 14.5 -107.5t14.5 -106.5q0 -9 -2 -14q-10 -37 -90 -37
q-77 0 -91 39zM245 414q0 -53 40 -59q26 -4 38 -4q42 0 52 40q3 12 3 20q0 38 -67 50q-5 1 -10 1q-17 0 -34 -11q-22 -14 -22 -37z" />
    <glyph glyph-name="q" unicode="q" horiz-adv-x="610" 
d="M441 -111q-80 0 -90 37q-2 5 -2 14q0 35 14.5 106.5t14.5 107.5q0 51 -17 77q-5 7 -14 7q-6 0 -48.5 -17t-71.5 -17q-53 0 -111 33q-66 59 -66 156t63 172q23 28 87 45q59 16 126 16q59 0 111 -13q74 -18 91 -56q32 -71 32 -280q0 -124 -9 -226t-19 -123q-14 -39 -91 -39
zM343 451q-17 11 -34 11q-5 0 -10 -1q-67 -12 -67 -50q0 -8 3 -20q10 -40 52 -40q12 0 38 4q40 6 40 59q0 23 -22 37z" />
    <glyph glyph-name="r" unicode="r" horiz-adv-x="628" 
d="M127 617q28 7 56 7q72 0 76 -34q7 -8 7 -21q0 -6 -1 -12l-6 -31q0 -10 15 -10q3 0 8 1q95 55 193 55q23 0 46 -3h4q26 0 41 -25q12 -21 12 -53q0 -24 -8 -45q-11 -27 -31 -29l-147 -31q-92 -21 -112 -53q-14 -14 -14 -50q0 -32 13 -97t13 -97q0 -31 -13 -42
q-20 -42 -91 -42q-74 0 -90 42q-24 14 -38 162q-10 103 -10 180q0 162 30 201q8 18 47 27z" />
    <glyph glyph-name="s" unicode="s" horiz-adv-x="628" 
d="M565 503q0 -28 -28.5 -53t-57.5 -25q-11 0 -21 5q-53 27 -93 27q-24 0 -40 -10q-17 -12 -17 -31v-4q3 -41 132 -73q71 -18 102 -50q36 -37 36 -106q0 -118 -117 -159q-62 -22 -151 -22q-75 0 -141 20q-82 26 -119 75q0 53 6 73q16 54 66 54q22 0 72 -25t74 -25
q23 0 42 16q2 7 2 12q0 31 -95 44q-66 9 -107 54q-39 42 -39 97q0 98 93 165q84 60 186 60q84 0 132 -27q30 -17 76 -70q7 -10 7 -22z" />
    <glyph glyph-name="t" unicode="t" horiz-adv-x="634" 
d="M87 426q8 -3 17 -3q12 0 36.5 6.5t36.5 6.5q19 0 37 -10q8 -4 8 -30q0 -37 -9.5 -111t-9.5 -111q0 -61 16 -91q42 -79 142 -79q81 0 155 40q68 37 68 99q0 61 -53 83q-13 3 -24 3q-22 0 -46.5 -16.5t-35.5 -16.5q-8 0 -19 4q-26 10 -26 106q0 97 18 117q6 11 33 11
q16 0 40 -4q28 -4 48 -4q29 0 40 9q22 13 22 65q0 23 -6 49q-7 36 -21 42q-12 6 -35 6q-19 0 -46 -4q-17 -2 -31 -2q-37 0 -37 19v-7q2 0 5 30q4 37 4 54v6q-1 21 -41 32q-27 7 -56 7q-83 0 -86 -34v-9q0 -27 9 -68q0 -8 -12 -26q-7 -6 -23 -6q-15 0 -43.5 4.5t-43.5 4.5
q-19 0 -31 -6q-37 -10 -37 -84t37 -82z" />
    <glyph glyph-name="u" unicode="u" horiz-adv-x="635" 
d="M301 563q-6 -55 -17 -123q-13 -78 -13 -117q0 -79 54 -81h2q52 0 52 86q0 43 -13 120q-15 90 -17 112v5q0 29 33 45q28 13 65 13q41 0 74 -16q39 -19 48 -54q16 -64 16 -148q0 -90 -23 -197q-31 -142 -83 -169q-25 -39 -158 -39q-141 0 -161 42q-60 43 -89 155
q-21 83 -21 182q0 86 20 169q9 39 46 59q33 18 80 18q34 0 64 -10q42 -15 42 -42q0 -3 -1 -10z" />
    <glyph glyph-name="v" unicode="v" horiz-adv-x="640" 
d="M277 561l20 -198q12 -107 37 -109h1q19 0 20 109q1 155 9 203q-1 4 -1 7q0 26 39 39q31 10 68 10q40 0 73 -10q47 -14 47 -44v-3q-15 -173 -41 -311q-20 -108 -29 -136q-20 -60 -57 -87q-43 -31 -126 -31q-81 0 -118 23q-62 38 -118 224q-51 169 -51 289v17q1 33 52 52
q38 15 78 15q36 0 62 -12q35 -15 35 -47z" />
    <glyph glyph-name="w" unicode="w" horiz-adv-x="640" 
d="M92 611q28 9 63 9q97 0 97 -45v-8q0 -23 -8 -70q-12 -68 -12 -91q0 -47 26 -54q7 0 20.5 39t40.5 39q25 0 38 -20q7 -11 15 -37q7 -21 13 -21q23 2 23 64q0 37 -5 83l-9 76v3q0 22 35 32q26 8 57 8q35 0 63 -9q41 -13 41 -41q0 -189 -69 -524q-17 -45 -77 -45
q-34 0 -60 20q-25 18 -25 50v2q-6 99 -37 105q-21 -4 -27 -34l-8 -71q1 -5 1 -10q0 -30 -28 -46q-25 -16 -64 -16q-68 0 -79 39q-24 88 -46 277q-21 182 -21 256q0 27 42 40z" />
    <glyph glyph-name="x" unicode="x" horiz-adv-x="621" 
d="M58 535v2q0 35 40 60q36 23 74 23q30 0 56 -13q19 -12 50 -86q29 -67 46 -67q13 0 32 64q21 73 40 91q28 17 64 17q39 0 70 -19q36 -21 36 -57v-2q-1 -51 -31 -105q-18 -32 -58 -84q-33 -43 -36 -59q3 -17 58.5 -86t62.5 -107q9 -20 9 -37q0 -35 -31 -53q-25 -15 -62 -15
q-20 0 -43 5q-29 1 -47 42l-27 68q-21 47 -43 48q-19 0 -42 -43l-42 -80q-27 -42 -63 -42h-4q-44 0 -78 24q-39 28 -39 73q0 40 35 86q12 16 65 70q32 33 32 48v1q-1 13 -62 99.5t-62 133.5z" />
    <glyph glyph-name="y" unicode="y" horiz-adv-x="628" 
d="M50 566q0 31 49 48q37 12 75 12q77 0 82 -37q8 -55 16 -97q11 -58 45 -65q36 0 48 61q5 33 17 99q10 35 88 35q39 0 69 -14q39 -17 39 -49v-3q-3 -56 -34 -134q-25 -63 -83 -176l-103 -197q-84 -152 -154 -152h-4q-65 3 -99 37q-22 22 -22 41q0 46 86 173q61 90 61 101
q0 4 -4 6q-90 33 -137 146q-35 84 -35 165z" />
    <glyph glyph-name="z" unicode="z" horiz-adv-x="634" 
d="M297 626q171 0 241 -42q39 -36 39 -114q0 -82 -22 -112q-17 -33 -133 -87q-106 -49 -106 -76v-1q4 -12 28 -12q27 0 79.5 11.5t79.5 11.5q19 0 29 -6q24 -9 39 -38q13 -25 13 -53q0 -62 -58 -80q-52 -28 -225 -28q-150 0 -207 28q-44 17 -44 113q0 43 12 66q12 39 82 81
l105 59q84 49 84 67q0 6 -6 11q-13 25 -52 25q-28 0 -82.5 -14.5t-81.5 -14.5q-22 0 -30 11q-31 14 -31 88q0 55 25 74q66 32 222 32z" />
    <glyph glyph-name="braceleft" unicode="{" horiz-adv-x="523" 
d="M329 733q53 0 90 -17q49 -24 49 -71q0 -17 -6 -35q-10 -30 -48 -30q-13 0 -39.5 5t-39.5 5q-28 0 -28 -26q0 -14 7 -37q-3 -42 -27 -70q-29 -25 -43 -38q-22 -21 -23 -52q0 -24 22 -43l43 -37q23 -27 24 -67q-21 -35 -21 -52q0 -19 27 -19q17 0 51.5 6t52.5 6
q46 0 56 -32q5 -16 5 -30q0 -51 -58 -76q-43 -19 -102 -19q-76 0 -139 27q-82 35 -82 100q0 44 40 96q1 4 1 8q0 29 -33 66q-37 42 -37 61q0 28 35 66t36 70q-32 49 -32 94q0 110 171 137q25 4 48 4z" />
    <glyph glyph-name="bar" unicode="|" horiz-adv-x="302" 
d="M28 715q3 21 90 21q83 0 95 -25q16 -33 16 -352q0 -290 -13 -329q-11 -33 -96 -33q-77 0 -90 30q-22 50 -22 372q0 289 20 316z" />
    <glyph glyph-name="braceright" unicode="}" horiz-adv-x="516" 
d="M243 729q171 -27 171 -137q0 -45 -32 -94q1 -32 36 -70t35 -66q0 -19 -37 -61q-33 -37 -33 -66q0 -4 1 -8q40 -52 40 -96q0 -65 -82 -100q-63 -27 -139 -27q-59 0 -102 19q-58 25 -58 76q0 14 5 30q10 32 56 32q18 0 52.5 -6t51.5 -6q27 0 27 19q0 17 -21 52q1 40 24 67
l43 37q22 19 22 43q-1 31 -23 52q-14 13 -43 38q-24 28 -27 70q7 23 7 37q0 26 -28 26q-13 0 -39.5 -5t-39.5 -5q-38 0 -48 30q-6 18 -6 35q0 47 49 71q37 17 90 17q23 0 48 -4z" />
    <glyph glyph-name="asciitilde" unicode="~" horiz-adv-x="590" 
d="M185 562q-16 -4 -33 -21l-18 -23q-30 -34 -64 -34q-26 0 -40.5 20t-14.5 47q0 57 58 124q17 20 50.5 37t58.5 17q61 0 87 -21q5 -4 29 -40q14 -21 46 -22q21 0 39 25q13 19 29 40q22 17 47 17q30 0 50 -22.5t20 -53.5t-20 -62q-32 -50 -61 -72q-43 -33 -106 -35h-8
q-40 0 -68 20q-7 5 -40 41q-17 18 -36 18h-5z" />
    <glyph glyph-name="nonbreakingspace" unicode="&#xa0;" 
 />
    <glyph glyph-name="exclamdown" unicode="&#xa1;" horiz-adv-x="281" 
d="M211 49q-22 -48 -96 -48q-33 0 -58 12q-33 15 -36 44q-6 11 -6 46q0 61 17 180q19 132 38.5 171.5t49.5 39.5q29 0 48.5 -44t36.5 -167q15 -109 15 -174q0 -48 -9 -60zM216 630q-6 -87 -102 -87h-2q-37 1 -55 17t-27 52q-3 13 -3 25q0 43 28.5 67t72.5 24q39 0 65 -29
q23 -27 23 -61v-8z" />
    <glyph glyph-name="cent" unicode="&#xa2;" horiz-adv-x="596" 
d="M149 85q0 13 7 61q2 17 6 37q2 7 8 7q8 0 8 -8v-2q-1 -11 -8 -63q-3 -23 -3 -44q0 -10 1 -19q9 -37 42 -37q39 0 71 38q8 10 18 34t16 33q3 4 8 4q8 0 8 -9q0 -2 -1 -5q-26 -41 -31 -84q1 -5 17 -6q25 -1 48 -1q64 0 113 8q31 5 48 25q14 24 14 40q0 8 -17 33
q-20 29 -26 58q-11 53 -21 69q-30 50 -66 50q-4 0 -8 -1q-7 -1 -13 -1q-20 0 -21 13q-6 92 -60 125q-4 3 -4 7q2 64 2 94v16q-2 70 -20 107q-10 21 -39 21q-43 0 -43 -47v-170q0 -9 -8 -9t-9 9q0 79 -7 157q-3 37 -19 50q-10 7 -30 7q-43 0 -55 -55q-5 -22 -6 -89
q-1 -101 -2 -103q-45 -71 -45 -116q0 -35 13 -61q19 -37 22 -50l1 -2q0 -4 -2 -11t-2 -11v-67q1 -40 7 -65l9 -18q8 -6 19 -6q21 0 39 19q15 16 21 38zM189 658q12 44 57 44q40 0 55 -31q21 -44 21 -167q0 -24 -1 -52q56 -38 63 -134q8 2 25 3q79 -10 101 -118q1 -3 16 -59
v1q6 -5 16 -16q15 -12 15 -34q0 -24 -18 -50v-1q-17 -25 -59 -32q-57 -9 -124 -9q-74 0 -74 25v4q-34 -32 -74 -32q-47 0 -56 47q-26 -37 -69 -37q-20 0 -27 14l-11 22l-1 1q-7 32 -7 137q0 4 1.5 10.5t1.5 10.5q-2 10 -22 49q-13 26 -13 65q0 49 46 124q0 40 1 119
q2 85 22.5 111t55.5 26q45 0 59 -41zM172 318q0 13 15 20h4q2 0 5 1h5q17 0 17 -18v-6q-3 -22 -25 -22q-21 0 -21 25zM201 322q-3 0 -6.5 -2t-3.5 -4t1 -4l2 -2q6 2 7 7v5zM337 335q8 0 8 -9q0 -8 -8 -8q-14 0 -22 -3q-3 -1 -6 -1q-6 0 -6 9q0 12 34 12zM164 284
q23 -17 41 -17q11 0 16 5l10 10l4 3q8 6 13 11q9 0 9 -8q0 -7 -16 -19q-11 -19 -35 -19t-52 20q-4 2 -4 6q0 9 9 9q3 0 5 -1zM56 321h32q9 0 9 -9q0 -8 -9 -8h-32q-8 0 -8 8q0 9 8 9zM63 296h29q8 0 8 -9q0 -8 -8 -8h-29q-8 0 -8 8q0 9 8 9zM315 314h18q9 0 9 -9t-9 -9h-18
q-8 0 -8 9t8 9zM319 292h21q9 0 9 -8q0 -9 -9 -9h-21q-9 0 -9 9q0 8 9 8zM67 267h28q9 0 9 -8q0 -9 -9 -9h-28q-9 0 -9 9q0 8 9 8zM255 365q0 7 -5 7t-5 -7q0 -6 5 -6t5 6zM272 365q0 -24 -22 -24t-22 24t22 24t22 -24zM151 364q0 7 -5 7q-4 0 -4 -7t4 -7q5 0 5 7zM168 364
q0 -24 -22 -24t-22 24t22 24t22 -24zM256 614v-140q0 -8 -8 -8q-9 0 -9 8v140q0 9 9 9q8 0 8 -9zM131 610v-139q0 -9 -9 -9q-8 0 -8 9v139q0 9 8 9q9 0 9 -9z" />
    <glyph glyph-name="sterling" unicode="&#xa3;" horiz-adv-x="722" 
d="M636 561q0 -35 -24 -58.5t-64 -23.5q-15 0 -33 10.5t-26 20.5q-13 21 -20 28q-15 11 -37 11q-73 0 -92 -153q15 1 44 7q23 3 44 3q44 0 66 -11q30 -17 30 -58q0 -40 -28 -56q-21 -11 -64 -11q-20 0 -43 6q-25 5 -50 6q-4 -20 -4 -39q0 -77 66 -89l153 -26q77 -12 77 -67
q0 -81 -185 -115q-42 -8 -110 -8q-71 0 -120 8q-66 9 -88 36q-16 21 -18 79q-1 20 -1 38q0 32 5 74q7 61 10 94h-7q-66 0 -66 71q0 67 84 67h5q19 151 78 241q72 109 198 109q100 0 160 -53.5t60 -140.5z" />
    <glyph glyph-name="currency" unicode="&#xa4;" 
 />
    <glyph glyph-name="yen" unicode="&#xa5;" horiz-adv-x="581" 
d="M190 284l1 15q-58 1 -127 5q-29 10 -29 59q0 55 57 69q12 3 98 7l-2 27q-84 40 -119 80q-42 49 -48 132v3q0 29 41 42q28 10 62 10h6q25 0 52 -69q48 -75 86 -75h1q48 1 103 77q4 5 23 43q13 26 23 26q36 -1 63 -14q34 -16 34 -48v-4q0 -63 -45.5 -120.5t-129.5 -80.5
l1 -29q70 -1 133 -9q41 -5 41 -57q0 -43 -32 -66q-30 -3 -133 -6l1 -18q45 0 123 -7q41 -8 41 -58q0 -42 -32 -65q-24 -2 -121 -6q2 -35 2 -64q0 -28 -3 -39q-9 -31 -35 -40q-12 -4 -47 -6h-14q-64 0 -75 33q-6 19 -6 46q0 43 2 71h-29q-43 0 -93 2q-29 9 -29 59q0 55 57 69
q12 3 98 6z" />
    <glyph glyph-name="brokenbar" unicode="&#xa6;" 
 />
    <glyph glyph-name="dieresis" unicode="&#xa8;" horiz-adv-x="560" 
d="M356 717q17 5 39 5q64 0 87 -62q5 -22 5 -40q0 -54 -43 -81q-23 -14 -50 -14q-43 0 -72 29.5t-29 72.5q0 71 63 90zM98 717q22 9 45 9q64 0 89 -63q8 -20 8 -42q0 -50 -46 -78q-24 -15 -50 -15q-43 0 -72 29.5t-29 72.5q0 65 55 87z" />
    <glyph glyph-name="copyright" unicode="&#xa9;" horiz-adv-x="608" 
d="M369 392q0 -18 -10 -27q-65 -21 -79 -28q-48 -24 -48 -63q0 -23 22 -51q24 -16 46 -16q25 0 54 18q10 5 20 5q36 0 36 -38v-2q-5 -35 -17.5 -50t-46.5 -28q-25 -10 -51 -10q-19 0 -55 8q-50 18 -53 21q-15 6 -37 32q-34 40 -34 108q0 23 5 41q34 67 86 100q27 21 64 28
q11 2 51 5q47 -9 47 -53zM546 272q0 -114 -79 -193.5t-193 -79.5t-193.5 79.5t-79.5 193.5t79.5 193.5t193.5 79.5t193 -79.5t79 -193.5zM498 272q0 94 -65 159.5t-159 65.5t-159.5 -65.5t-65.5 -159.5t65.5 -159.5t159.5 -65.5t159 65.5t65 159.5z" />
    <glyph glyph-name="guillemotleft" unicode="&#xab;" horiz-adv-x="588" 
d="M453 438q31 0 50.5 -17.5t19.5 -48.5q-5 -15 -68 -77q-59 -58 -59 -78q0 -22 45 -57q54 -42 72 -67q12 -16 12 -33q0 -26 -20 -44t-47 -18q-52 13 -126 89q-76 80 -77 130q0 43 61 118q48 59 92 93q21 10 45 10zM207 438q70 0 70 -67q-5 -14 -68 -76q-59 -58 -59 -78v-1
q0 -22 45 -57q58 -46 73 -66q11 -15 11 -34q0 -26 -20.5 -43.5t-46.5 -17.5q-53 12 -126 89q-76 79 -77 130v1q0 42 61 117q48 59 92 92q21 11 45 11z" />
    <glyph glyph-name="logicalnot" unicode="&#xac;" horiz-adv-x="554" 
d="M504 179q0 -81 -55 -81q-53 0 -53 78q0 15 5 22t5 43q0 41 -7 50q-95 8 -107 8q-40 0 -80.5 -5.5t-56.5 -5.5q-40 0 -58 9q-25 13 -25 47q0 53 77 53q17 0 59.5 -4t75.5 -4t75 4.5t60 4.5q19 0 33 -3q51 -1 51 -77q0 -15 -3.5 -25.5t-3.5 -42.5q0 -35 4 -44t4 -27z" />
    <glyph glyph-name="minus" unicode="&#xad;" horiz-adv-x="578" 
d="M63 428q60 11 184 11q148 0 222 -11q40 -6 40 -65q0 -47 -31 -73q-97 -10 -253 -10q-109 0 -168 7q-28 14 -28 66q0 59 34 75z" />
    <glyph glyph-name="minus" unicode="&#x2212;" horiz-adv-x="578" 
d="M63 428q60 11 184 11q148 0 222 -11q40 -6 40 -65q0 -47 -31 -73q-97 -10 -253 -10q-109 0 -168 7q-28 14 -28 66q0 59 34 75z" />
    <glyph glyph-name="registered" unicode="&#xae;" horiz-adv-x="608" 
d="M260 463q54 0 95 -25q47 -29 49 -80v-21q0 -18 -1 -24l-2 -8q-7 -28 -34 -37q-17 -5 -17 -17v-3q2 -2 32 -42q23 -31 24 -71v-1q0 -32 -49 -32q-20 0 -33 7q-9 7 -20 55q-9 38 -38 38h-3q-12 0 -12 -12q0 -10 5 -28.5t5 -28.5t-4 -15q-15 -19 -46 -19q-42 0 -51 19
q-14 45 -14 149q0 97 12.5 146.5t101.5 49.5zM242 345q0 -31 27 -31q36 0 36 28v3q-2 24 -35 24q-28 0 -28 -24zM546 272q0 -114 -79 -193.5t-193 -79.5t-193.5 79.5t-79.5 193.5t79.5 193.5t193.5 79.5t193 -79.5t79 -193.5zM498 272q0 94 -65 159.5t-159 65.5
t-159.5 -65.5t-65.5 -159.5t65.5 -159.5t159.5 -65.5t159 65.5t65 159.5z" />
    <glyph glyph-name="macron" unicode="&#xaf;" 
d="M93 863q52 8 160 8q129 0 194 -8q35 -4 35 -45q0 -33 -27 -51q-85 -7 -221 -7q-95 0 -147 5q-24 10 -24 46q0 41 30 52z" />
    <glyph glyph-name="macron" unicode="&#x2c9;" 
d="M93 863q52 8 160 8q129 0 194 -8q35 -4 35 -45q0 -33 -27 -51q-85 -7 -221 -7q-95 0 -147 5q-24 10 -24 46q0 41 30 52z" />
    <glyph glyph-name="degree" unicode="&#xb0;" horiz-adv-x="486" 
d="M401 608q0 -72 -51 -122.5t-123 -50.5t-123.5 50.5t-51.5 122.5q0 71 51.5 122t123.5 51t123 -51t51 -122zM302 608q0 31 -22 53t-53 22q-32 0 -54 -22t-22 -53t22 -53t54 -22q31 0 53 22t22 53z" />
    <glyph glyph-name="plusminus" unicode="&#xb1;" horiz-adv-x="565" 
d="M63 152q60 11 184 11q144 0 222 -11q39 -6 39 -73q0 -56 -30 -65q-97 -9 -253 -9q-109 0 -168 6q-27 22 -27 72q0 54 33 69zM478 406h-67q-45 0 -64 -8q-3 -6 -3 -16q0 -14 3.5 -41t3.5 -41q0 -85 -83 -85q-55 0 -64 38q-10 21 -10 53q0 11 1.5 34t1.5 34q0 15 -2 26
q-5 3 -15 3q-12 0 -37 -3.5t-37 -3.5q-31 0 -55 12q-30 23 -30 70q0 69 81 69q12 0 36 -2t36 -2q10 0 17 1v4q0 11 -4 38q-6 35 -6 63q0 26 5 46q8 38 79 38q72 0 83 -39q7 -16 7 -40q0 -22 -5 -52q-7 -44 -7 -46v-5q0 -6 1 -9q7 -6 21 -6q12 0 38.5 5.5t40.5 5.5
q71 0 71 -80q0 -58 -37 -61z" />
    <glyph glyph-name="twosuperior" unicode="&#xb2;" horiz-adv-x="375" 
d="M18 670q41 66 138 66q43 0 81 -17q45 -21 55 -57q7 -26 7 -47q0 -71 -81 -107q-29 -13 -30 -16q29 6 54 6q22 0 35 -6q25 -6 25 -43q0 -38 -20 -45q-8 -14 -142 -14q-108 0 -125 15q-11 22 -11 41q0 39 44 74q15 12 82 50q44 25 44 40q0 9 -12 25q-8 11 -40 11
q-20 0 -35 -22t-34 -23h-3q-45 0 -45 32q0 16 13 37z" />
    <glyph glyph-name="threesuperior" unicode="&#xb3;" horiz-adv-x="373" 
d="M260 411q-29 -27 -123 -27q-124 0 -124 51q0 23 14 40q8 10 26 10q14 0 41 -6.5t41 -6.5q30 0 30 32q0 24 -26 24q-10 0 -28.5 -3t-28.5 -3q-40 0 -44 38q5 40 54 40h15q10 -1 14 -1q36 0 36 27v3q-9 27 -36 27q-13 0 -41.5 -9t-41.5 -9q-6 0 -11 2q-17 13 -17 31
q0 61 135 61q89 0 113 -30q29 -30 29 -68q0 -43 -39 -63q52 -27 52 -76q0 -47 -40 -84z" />
    <glyph glyph-name="acute" unicode="&#xb4;" horiz-adv-x="437" 
d="M382 664q0 -52 -54 -105q-48 -47 -99 -47q-32 0 -52.5 20t-20.5 52q0 50 41 92q55 56 118 56q30 0 48.5 -19t18.5 -49z" />
    <glyph glyph-name="periodcentered" unicode="&#xb7;" horiz-adv-x="394" 
d="M161 391q23 9 49 9q69 0 109 -73q11 -20 11 -48q0 -59 -57 -95q-27 -17 -58 -17q-51 0 -85.5 35t-34.5 86q0 77 66 103z" />
    <glyph glyph-name="periodcentered" unicode="&#x2219;" horiz-adv-x="394" 
d="M161 391q23 9 49 9q69 0 109 -73q11 -20 11 -48q0 -59 -57 -95q-27 -17 -58 -17q-51 0 -85.5 35t-34.5 86q0 77 66 103z" />
    <glyph glyph-name="cedilla" unicode="&#xb8;" 
d="M167 -78q0 25 41 25q29 -36 65 -36q25 0 38 21q8 13 8 23q0 17 -28 34q-25 15 -29 19q-13 12 -13 30q0 11 4 24l3 6q8 20 29 20q17 0 25 -19l22 -22q8 -8 17 -12q26 -13 41 -40q13 -25 13 -56q0 -19 -5 -35q-6 -32 -45 -50q-32 -15 -68 -15q-41 0 -71 17q-32 19 -45 56
q-2 6 -2 10z" />
    <glyph glyph-name="onesuperior" unicode="&#xb9;" horiz-adv-x="308" 
d="M19 674q0 30 55 45q25 7 68 7q50 0 69 -19q22 -23 22 -122q0 -113 -15 -181q-6 -28 -72 -28q-61 0 -69 20q-2 13 -2 34q0 30 6 89t6 89q0 52 -23 52q-4 0 -12.5 -2t-12.5 -2q-20 0 -20 18z" />
    <glyph glyph-name="guillemotright" unicode="&#xbb;" horiz-adv-x="590" 
d="M285 217q0 -47 -66 -118q-57 -62 -110 -90q-21 -11 -27 -11q-27 0 -47 17.5t-20 44.5q0 31 64.5 84t64.5 73q0 18 -63.5 82.5t-63.5 72.5q0 30 19.5 48t50.5 18q27 0 45 -10q3 -2 29 -26q124 -116 124 -185zM531 217q0 -46 -67 -118q-58 -63 -109 -90q-21 -11 -27 -11
q-26 0 -46.5 17.5t-20.5 43.5q0 32 64.5 85.5t64.5 72.5t-63.5 82.5t-63.5 71.5q0 31 19.5 49t50.5 18q25 0 45 -11q6 -3 29 -25q124 -116 124 -185z" />
    <glyph glyph-name="onequarter" unicode="&#xbc;" horiz-adv-x="634" 
d="M12 690q0 27 55 45q32 7 68 7q51 0 69 -19q22 -23 22 -123q0 -114 -15 -181q-6 -27 -72 -27q-61 0 -69 20q-2 12 -2 33q0 30 6 89t6 89q0 53 -23 53q-4 0 -12.5 -2t-12.5 -2q-20 0 -20 18zM182 26q-18 -19 -44 -19q-32 0 -62.5 25.5t-30.5 56.5q0 10 4 19q43 96 153 298
q104 193 150 299q9 22 42 22q36 0 65.5 -24.5t29.5 -59.5q0 -8 -2 -17zM481 367q-7 1 -15 1q-74 0 -137 -75q-62 -74 -62 -144q0 -11 2 -19q31 -32 69 -32q11 0 31.5 5.5t29.5 5.5q10 0 10 -10q0 -6 -4.5 -19.5t-4.5 -21.5q0 -12 5 -22q7 -15 60 -15q32 0 45 11q5 11 5 28
l-6 43q9 7 28 7h3q2 -1 4 -1q17 0 22 4q14 10 14 37q0 49 -35 49q-4 0 -12.5 -1.5t-12.5 -1.5q-7 0 -8 5q5 46 5 78q0 88 -35 88h-1zM389 209q1 7 9 17.5t14 10.5q5 0 5 -21q0 -14 -9 -14q-19 0 -19 6v1z" />
    <glyph glyph-name="onehalf" unicode="&#xbd;" horiz-adv-x="645" 
d="M12 690q0 27 55 45q32 7 68 7q51 0 69 -19q22 -23 22 -123q0 -114 -15 -181q-6 -27 -72 -27q-61 0 -69 20q-2 12 -2 33q0 30 6 89t6 89q0 53 -23 53q-4 0 -12.5 -2t-12.5 -2q-20 0 -20 18zM311 292q41 66 137 66q44 0 81 -17q45 -20 55 -57q7 -26 7 -48q0 -71 -81 -106
q-29 -13 -30 -17q30 7 55 7q21 0 34 -6q26 -7 26 -43q0 -38 -21 -46q-7 -13 -142 -13q-108 0 -125 15q-11 21 -11 41q0 39 44 74q15 12 82 50q44 25 44 40q0 36 -51 36q-21 0 -36 -22t-34 -23h-5q-43 0 -43 32q0 15 14 37zM182 26q-18 -19 -44 -19q-32 0 -62.5 25.5
t-30.5 56.5q0 10 4 19q43 96 153 298q104 193 150 299q9 22 42 22q36 0 65.5 -24.5t29.5 -59.5q0 -8 -2 -17z" />
    <glyph glyph-name="threequarters" unicode="&#xbe;" horiz-adv-x="629" 
d="M182 26q-18 -19 -44 -19q-32 0 -62.5 25.5t-30.5 56.5q0 10 4 19q43 96 153 298q104 193 150 299q9 22 42 22q36 0 65.5 -24.5t29.5 -59.5q0 -8 -2 -17zM482 367q35 0 35 -88q0 -32 -5 -78q1 -5 8 -5q4 0 12.5 1.5t12.5 1.5q35 0 35 -49q0 -27 -14 -37q-5 -4 -22 -4
q-2 0 -4 1h-3q-19 0 -28 -7l6 -43q0 -17 -5 -28q-13 -11 -45 -11q-53 0 -60 15q-5 10 -5 22q0 8 4.5 21.5t4.5 19.5q0 10 -10 10q-9 0 -29.5 -5.5t-31.5 -5.5q-38 0 -69 32q-2 8 -2 19q0 70 62 144q63 75 137 75q8 0 15 -1h1zM389 208q0 -6 19 -6q9 0 9 14q0 21 -5 21
q-6 0 -14 -10.5t-9 -17.5v-1zM197 421q-29 -27 -123 -27q-124 0 -124 51q0 23 14 40q8 10 26 10q14 0 41 -6.5t41 -6.5q30 0 30 32q0 24 -26 24q-10 0 -29 -3t-29 -3q-39 0 -44 38q6 40 55 40h15q10 -1 14 -1q36 0 36 27v3q-9 27 -36 27q-13 0 -41.5 -9t-41.5 -9q-6 0 -11 2
q-17 13 -17 31q0 61 135 61q89 0 113 -30q29 -30 29 -68q0 -43 -39 -63q52 -27 52 -76q0 -47 -40 -84z" />
    <glyph glyph-name="questiondown" unicode="&#xbf;" horiz-adv-x="550" 
d="M508 152q-25 -73 -90 -111q-60 -35 -141 -35q-73 0 -137 30q-78 37 -89 100q-11 32 -11 70q0 62 27 112q29 55 82 80q18 9 33 24l44 45q17 37 51 37q41 0 58 -39q3 -8 6 -13q8 -25 8 -48q0 -35 -27 -59q-8 -8 -58 -38q-56 -34 -56 -69q0 -20 16 -45q27 -43 76 -43
q73 0 131 72q81 0 81 -50q0 -8 -4 -20zM377 635q-5 -86 -101 -86h-2q-67 1 -82 69q-3 13 -3 25q0 43 28.5 67t72.5 24q43 0 68 -34q19 -26 19 -59v-6z" />
    <glyph glyph-name="Agrave" unicode="&#xc0;" horiz-adv-x="628" 
d="M153 670q28 59 155 59q48 0 89 -13q55 -16 71 -49q35 -69 73 -287q37 -206 37 -301q0 -43 -9 -49q-7 -13 -41 -22q-28 -7 -48 -7q-48 0 -81 29q-31 50 -38 98q-4 35 -13 104q-7 29 -33 29q-11 0 -24 -7q-12 -7 -12 -17v-2q-3 -42 -11 -125q-6 -61 -29 -80
q-33 -28 -83 -28q-66 0 -96 39q-10 9 -10 68q0 114 28 279q33 193 75 282zM243 466q0 -24 18 -39.5t42 -15.5t42.5 15.5t18.5 39.5t-18.5 39.5t-42.5 15.5t-42 -15.5t-18 -39.5zM187.5 930q16.5 17 43.5 17q57 0 107 -50q36 -38 36 -83q0 -29 -18 -47t-47 -18q-46 0 -89 42
q-49 48 -49 95q0 27 16.5 44z" />
    <glyph glyph-name="Aacute" unicode="&#xc1;" horiz-adv-x="628" 
d="M153 670q28 59 155 59q48 0 89 -13q55 -16 71 -49q35 -69 73 -287q37 -206 37 -301q0 -43 -9 -49q-7 -13 -41 -22q-28 -7 -48 -7q-48 0 -81 29q-31 50 -38 98q-4 35 -13 104q-7 29 -33 29q-11 0 -24 -7q-12 -7 -12 -17v-2q-3 -42 -11 -125q-6 -61 -29 -80
q-33 -28 -83 -28q-66 0 -96 39q-10 9 -10 68q0 114 28 279q33 193 75 282zM243 466q0 -24 18 -39.5t42 -15.5t42.5 15.5t18.5 39.5t-18.5 39.5t-42.5 15.5t-42 -15.5t-18 -39.5zM434 886q0 -47 -48 -95q-43 -42 -89 -42q-29 0 -47.5 18t-18.5 47q0 45 37 83q49 50 106 50
q27 0 43.5 -17t16.5 -44z" />
    <glyph glyph-name="Acircumflex" unicode="&#xc2;" horiz-adv-x="628" 
d="M153 670q28 59 155 59q48 0 89 -13q55 -16 71 -49q35 -69 73 -287q37 -206 37 -301q0 -43 -9 -49q-7 -13 -41 -22q-28 -7 -48 -7q-48 0 -81 29q-31 50 -38 98q-4 35 -13 104q-7 29 -33 29q-11 0 -24 -7q-12 -7 -12 -17v-2q-3 -42 -11 -125q-6 -61 -29 -80
q-33 -28 -83 -28q-66 0 -96 39q-10 9 -10 68q0 114 28 279q33 193 75 282zM243 466q0 -24 18 -39.5t42 -15.5t42.5 15.5t18.5 39.5t-18.5 39.5t-42.5 15.5t-42 -15.5t-18 -39.5zM400 781q0 -12 -6 -21t-18 -9q-7 0 -13.5 3t-28.5 32q-20 26 -28 26q-9 0 -24 -23
q-18 -29 -27 -37q-6 -4 -13 -4q-12 0 -19 10t-7 23q5 24 35 58q32 36 55 38q19 -1 49 -28q45 -40 45 -68z" />
    <glyph glyph-name="Atilde" unicode="&#xc3;" horiz-adv-x="628" 
d="M153 670q28 59 155 59q48 0 89 -13q55 -16 71 -49q35 -69 73 -287q37 -206 37 -301q0 -43 -9 -49q-7 -13 -41 -22q-28 -7 -48 -7q-48 0 -81 29q-31 50 -38 98q-4 35 -13 104q-7 29 -33 29q-11 0 -24 -7q-12 -7 -12 -17v-2q-3 -42 -11 -125q-6 -61 -29 -80
q-33 -28 -83 -28q-66 0 -96 39q-10 9 -10 68q0 114 28 279q33 193 75 282zM243 466q0 -24 18 -39.5t42 -15.5t42.5 15.5t18.5 39.5t-18.5 39.5t-42.5 15.5t-42 -15.5t-18 -39.5zM271 781q-7 -2 -14 -9q-3 -4 -8 -10q-13 -15 -27 -15q-12 0 -18 8.5t-6 20.5q0 24 25 53
q7 8 21.5 15.5t24.5 7.5q27 0 38 -9q2 -2 12 -17q6 -9 20 -10q9 0 17 11q5 8 12 17q9 8 20 8q13 0 21.5 -10t8.5 -23t-9 -26q-13 -22 -26 -31q-18 -14 -45 -15h-4q-17 0 -29 8q-3 2 -17 18q-7 8 -15 8h-2z" />
    <glyph glyph-name="Adieresis" unicode="&#xc4;" horiz-adv-x="628" 
d="M153 670q28 59 155 59q48 0 89 -13q55 -16 71 -49q35 -69 73 -287q37 -206 37 -301q0 -43 -9 -49q-7 -13 -41 -22q-28 -7 -48 -7q-48 0 -81 29q-31 50 -38 98q-4 35 -13 104q-7 29 -33 29q-11 0 -24 -7q-12 -7 -12 -17v-2q-3 -42 -11 -125q-6 -61 -29 -80
q-33 -28 -83 -28q-66 0 -96 39q-10 9 -10 68q0 114 28 279q33 193 75 282zM243 466q0 -24 18 -39.5t42 -15.5t42.5 15.5t18.5 39.5t-18.5 39.5t-42.5 15.5t-42 -15.5t-18 -39.5zM157 785q-4 13 -4 26q0 35 35 51q12 6 24 6q28 0 46 -28q8 -13 8 -28q0 -25 -17 -42t-42 -17
q-37 0 -50 32zM357 785q-5 13 -5 26q0 35 36 51q11 6 23 6q29 0 46 -28q9 -13 9 -28q0 -25 -17.5 -42t-41.5 -17q-38 0 -50 32z" />
    <glyph glyph-name="Aring" unicode="&#xc5;" horiz-adv-x="628" 
d="M153 670q28 59 155 59q48 0 89 -13q55 -16 71 -49q35 -69 73 -287q37 -206 37 -301q0 -43 -9 -49q-7 -13 -41 -22q-28 -7 -48 -7q-48 0 -81 29q-31 50 -38 98q-4 35 -13 104q-7 29 -33 29q-11 0 -24 -7q-12 -7 -12 -17v-2q-3 -42 -11 -125q-6 -61 -29 -80
q-33 -28 -83 -28q-66 0 -96 39q-10 9 -10 68q0 114 28 279q33 193 75 282zM243 466q0 -24 18 -39.5t42 -15.5t42.5 15.5t18.5 39.5t-18.5 39.5t-42.5 15.5t-42 -15.5t-18 -39.5zM396 838q0 -36 -25.5 -61t-61.5 -25t-62 25t-26 61t26 61t62 25t61.5 -25t25.5 -61zM346 838
q0 15 -11 26t-26 11q-16 0 -27 -11t-11 -26q0 -16 11 -26.5t27 -10.5q15 0 26 10.5t11 26.5z" />
    <glyph glyph-name="AE" unicode="&#xc6;" horiz-adv-x="939" 
d="M243 466q0 -24 18 -39.5t42 -15.5t42.5 15.5t18.5 39.5t-18.5 39.5t-42.5 15.5t-42 -15.5t-18 -39.5zM452 688q48 35 168 35q109 0 195 -36q32 -41 32 -78q0 -30 -23 -48q-7 -5 -20 -5q-15 0 -50.5 6.5t-53.5 6.5q-38 0 -66 -17q-32 -20 -32 -56q0 -32 22 -44
q20 -15 91 -19q78 -5 94 -10q25 -16 25 -57q0 -31 -22 -44q-16 -3 -42 -3h-26l-29 1q-73 0 -94 -33q5 -113 212 -113h18q38 -11 38 -68q0 -56 -49 -79q-54 -25 -175 -25q-70 0 -121 11q-7 -3 -16 -5q-28 -7 -48 -7q-48 0 -81 29q-31 50 -38 98q-4 35 -13 104q-7 29 -33 29
q-11 0 -24 -7q-12 -7 -12 -17v-2q-3 -42 -11 -125q-6 -61 -29 -80q-33 -28 -83 -28q-66 0 -96 39q-10 9 -10 68q0 114 28 279q33 193 75 282q28 59 155 59q48 0 89 -13q36 -10 55 -28z" />
    <glyph glyph-name="Ccedilla" unicode="&#xc7;" horiz-adv-x="627" 
d="M420 729q-75 -5 -90 -8q-58 -11 -115 -52q-96 -68 -153 -188q-12 -35 -12 -96q0 -67 14 -139q18 -88 50 -127q36 -44 66 -61q7 -4 95 -38q64 -16 98 -16q45 0 90 19q66 28 87.5 57t26.5 90v6q0 26 -15 47q-18 22 -48 22q-18 0 -36 -9q-52 -33 -96 -33q-40 0 -83 28
q-38 53 -38 129q0 81 31 127q21 31 97 52q62 17 78 26q37 22 37 66q0 38 -23 64.5t-61 33.5zM215 -88q13 -37 45 -56q30 -17 71 -17q36 0 68 15q39 18 45 50q5 16 5 35q0 31 -13 56q-15 27 -41 40q-9 4 -17 12l-22 22q-8 19 -25 19q-21 0 -29 -20l-3 -6q-4 -13 -4 -24
q0 -18 13 -30q4 -4 29 -19q28 -17 28 -34q0 -10 -8 -23q-13 -21 -38 -21q-36 0 -65 36q-41 0 -41 -25q0 -4 2 -10z" />
    <glyph glyph-name="Egrave" unicode="&#xc8;" horiz-adv-x="608" 
d="M102 670q39 53 187 53q109 0 195 -36q32 -41 32 -78q0 -30 -23 -48q-7 -5 -20 -5q-15 0 -50.5 6.5t-53.5 6.5q-38 0 -66 -17q-32 -20 -32 -56q0 -32 22 -44q20 -15 91 -19q78 -5 94 -10q25 -16 25 -57q0 -31 -22 -44q-16 -3 -42 -3h-26l-29 1h2q-75 0 -96 -33
q5 -113 212 -113h18q38 -11 38 -68q0 -56 -49 -79q-54 -25 -175 -25q-197 0 -246 88q-38 68 -38 277q0 232 52 303zM196.5 930q16.5 17 43.5 17q57 0 107 -50q36 -38 36 -83q0 -29 -18 -47t-47 -18q-46 0 -89 42q-49 48 -49 95q0 27 16.5 44z" />
    <glyph glyph-name="Eacute" unicode="&#xc9;" horiz-adv-x="608" 
d="M102 670q39 53 187 53q109 0 195 -36q32 -41 32 -78q0 -30 -23 -48q-7 -5 -20 -5q-15 0 -50.5 6.5t-53.5 6.5q-38 0 -66 -17q-32 -20 -32 -56q0 -32 22 -44q20 -15 91 -19q78 -5 94 -10q25 -16 25 -57q0 -31 -22 -44q-16 -3 -42 -3h-26l-29 1h2q-75 0 -96 -33
q5 -113 212 -113h18q38 -11 38 -68q0 -56 -49 -79q-54 -25 -175 -25q-197 0 -246 88q-38 68 -38 277q0 232 52 303zM383 886q0 -47 -48 -95q-43 -42 -89 -42q-29 0 -47.5 18t-18.5 47q0 45 37 83q49 50 106 50q27 0 43.5 -17t16.5 -44z" />
    <glyph glyph-name="Ecircumflex" unicode="&#xca;" horiz-adv-x="608" 
d="M102 670q39 53 187 53q109 0 195 -36q32 -41 32 -78q0 -30 -23 -48q-7 -5 -20 -5q-15 0 -50.5 6.5t-53.5 6.5q-38 0 -66 -17q-32 -20 -32 -56q0 -32 22 -44q20 -15 91 -19q78 -5 94 -10q25 -16 25 -57q0 -31 -22 -44q-16 -3 -42 -3h-26l-29 1h2q-75 0 -96 -33
q5 -113 212 -113h18q38 -11 38 -68q0 -56 -49 -79q-54 -25 -175 -25q-197 0 -246 88q-38 68 -38 277q0 232 52 303zM344 849q-30 27 -49 28q-23 -2 -55 -38q-30 -34 -35 -58q0 -13 7 -23t19 -10q7 0 13 4q9 8 27 37q15 23 24 23q8 0 28 -26q22 -29 28.5 -32t13.5 -3
q12 0 18 9t6 21q0 28 -45 68z" />
    <glyph glyph-name="Edieresis" unicode="&#xcb;" horiz-adv-x="608" 
d="M102 670q39 53 187 53q109 0 195 -36q32 -41 32 -78q0 -30 -23 -48q-7 -5 -20 -5q-15 0 -50.5 6.5t-53.5 6.5q-38 0 -66 -17q-32 -20 -32 -56q0 -32 22 -44q20 -15 91 -19q78 -5 94 -10q25 -16 25 -57q0 -31 -22 -44q-16 -3 -42 -3h-26l-29 1h2q-75 0 -96 -33
q5 -113 212 -113h18q38 -11 38 -68q0 -56 -49 -79q-54 -25 -175 -25q-197 0 -246 88q-38 68 -38 277q0 232 52 303zM146 785q-4 13 -4 26q0 35 35 51q12 6 24 6q28 0 46 -28q8 -13 8 -28q0 -25 -17 -42t-42 -17q-37 0 -50 32zM346 785q-5 13 -5 26q0 35 36 51q11 6 23 6
q29 0 46 -28q9 -13 9 -28q0 -25 -17.5 -42t-41.5 -17q-38 0 -50 32z" />
    <glyph glyph-name="Igrave" unicode="&#xcc;" horiz-adv-x="330" 
d="M79 685q18 33 88 33q76 0 97 -37q16 -29 16 -337q0 -272 -13 -314q-14 -33 -97 -33q-76 0 -89 30q-22 50 -22 356q0 275 20 302zM66.5 930q16.5 17 43.5 17q57 0 107 -50q36 -38 36 -83q0 -29 -18 -47t-47 -18q-46 0 -89 42q-49 48 -49 95q0 27 16.5 44z" />
    <glyph glyph-name="Iacute" unicode="&#xcd;" horiz-adv-x="325" 
d="M70 685q18 33 88 33q76 0 97 -37q16 -29 16 -337q0 -272 -13 -314q-14 -33 -97 -33q-76 0 -89 30q-22 50 -22 356q0 275 20 302zM275 886q0 -47 -49 -95q-43 -42 -89 -42q-29 0 -47.5 18t-18.5 47q0 45 37 83q50 50 106 50q27 0 44 -17t17 -44z" />
    <glyph glyph-name="Icircumflex" unicode="&#xce;" horiz-adv-x="321" 
d="M70 685q18 33 88 33q76 0 97 -37q16 -29 16 -337q0 -272 -13 -314q-14 -33 -97 -33q-76 0 -89 30q-22 50 -22 356q0 275 20 302zM250 781q0 -12 -6 -21t-18 -9q-7 0 -13.5 3t-28.5 32q-20 26 -28 26q-9 0 -24 -23q-18 -29 -27 -37q-6 -4 -13 -4q-12 0 -19 10t-7 23
q5 24 35 58q32 36 55 38q19 -1 49 -28q45 -40 45 -68z" />
    <glyph glyph-name="Idieresis" unicode="&#xcf;" horiz-adv-x="413" 
d="M118 685q18 33 88 33q76 0 97 -37q16 -29 16 -337q0 -272 -13 -314q-14 -33 -97 -33q-76 0 -89 30q-22 50 -22 356q0 275 20 302zM55 785q-5 13 -5 26q0 35 36 51q12 6 23 6q29 0 46 -28q9 -13 9 -28q0 -25 -17 -42t-42 -17q-38 0 -50 32zM254 785q-5 13 -5 26
q0 35 36 51q12 6 24 6q28 0 46 -28q8 -13 8 -28q0 -25 -17 -42t-42 -17q-37 0 -50 32z" />
    <glyph glyph-name="Eth" unicode="&#xd0;" horiz-adv-x="595" 
d="M30 461q0 -363 36 -414q46 -47 161 -47q64 0 125 17q77 22 107 62q73 97 73 243q0 109 -38 216q-34 96 -70 122q-88 63 -216 63q-48 0 -94 -12q-63 -16 -73.5 -47.5t-10.5 -202.5zM224 360q0 12 -2 36t-2 36q0 31 28 31q95 0 95 -100q0 -36 -15 -60q-18 -28 -52 -28
q-36 0 -46 26q-6 15 -6 59zM-198 353q0 -52 28 -66q59 -7 168 -7q156 0 253 10q31 26 31 73q0 59 -40 65q-74 11 -222 11q-124 0 -184 -11q-34 -16 -34 -75z" />
    <glyph glyph-name="Ntilde" unicode="&#xd1;" horiz-adv-x="627" 
d="M164 726q72 0 105 -32q19 -19 39 -97q29 -117 36 -135q22 -62 51 -62h4q18 3 18 35q0 37 -19 109t-19 109q0 23 8 32q11 27 78 27q77 0 95 -32q17 -59 17 -289q0 -263 -17 -342q-8 -38 -72 -38q-35 0 -65 15q-35 17 -43 47l-63 130q-35 70 -64 72q-15 -2 -15 -24
q0 -27 19 -85.5t19 -86.5q0 -18 -8 -26q-17 -47 -96 -47q-32 0 -60 11q-37 13 -42 39q-20 256 -20 410q0 128 12 211q7 49 102 49zM274 781q-7 -2 -14 -9q-3 -4 -8 -10q-13 -15 -27 -15q-12 0 -18 8.5t-6 20.5q0 24 25 53q7 8 21.5 15.5t24.5 7.5q27 0 38 -9q2 -2 12 -17
q6 -9 20 -10q9 0 17 11q5 8 12 17q9 8 20 8q13 0 21.5 -10t8.5 -23t-9 -26q-13 -22 -26 -31q-18 -14 -45 -15h-4q-17 0 -29 8q-3 2 -17 18q-7 8 -15 8h-2z" />
    <glyph glyph-name="Ograve" unicode="&#xd2;" horiz-adv-x="605" 
d="M465 627q66 -83 90 -260v-27q0 -120 -16 -176q-21 -71 -89 -129q-93 -31 -163 -31q-75 0 -137 34q-55 62 -77.5 122.5t-22.5 144.5q0 45 6 102q30 130 52 184q43 105 111 135q165 0 246 -99zM233 338q0 -62 75 -62q49 0 67 35q14 26 14 80q0 37 -33 60q-29 20 -62 20h-9
q-18 -2 -36 -56q-15 -44 -16 -71v-6zM197.5 930q16.5 17 43.5 17q57 0 107 -50q36 -38 36 -83q0 -29 -18 -47t-47 -18q-46 0 -89 42q-49 48 -49 95q0 27 16.5 44z" />
    <glyph glyph-name="Oacute" unicode="&#xd3;" horiz-adv-x="605" 
d="M465 627q66 -83 90 -260v-27q0 -120 -16 -176q-21 -71 -89 -129q-93 -31 -163 -31q-75 0 -137 34q-55 62 -77.5 122.5t-22.5 144.5q0 45 6 102q30 130 52 184q43 105 111 135q165 0 246 -99zM233 338q0 -62 75 -62q49 0 67 35q14 26 14 80q0 37 -33 60q-29 20 -62 20h-9
q-18 -2 -36 -56q-15 -44 -16 -71v-6zM384 886q0 -47 -48 -95q-43 -42 -89 -42q-29 0 -47.5 18t-18.5 47q0 45 37 83q49 50 106 50q27 0 43.5 -17t16.5 -44z" />
    <glyph glyph-name="Ocircumflex" unicode="&#xd4;" horiz-adv-x="605" 
d="M465 627q66 -83 90 -260v-27q0 -120 -16 -176q-21 -71 -89 -129q-93 -31 -163 -31q-75 0 -137 34q-55 62 -77.5 122.5t-22.5 144.5q0 45 6 102q30 130 52 184q43 105 111 135q165 0 246 -99zM233 338q0 -62 75 -62q49 0 67 35q14 26 14 80q0 37 -33 60q-29 20 -62 20h-9
q-18 -2 -36 -56q-15 -44 -16 -71v-6zM390 781q0 -12 -6 -21t-18 -9q-7 0 -13.5 3t-28.5 32q-20 26 -28 26q-9 0 -24 -23q-18 -29 -27 -37q-6 -4 -13 -4q-12 0 -19 10t-7 23q5 24 35 58q32 36 55 38q19 -1 49 -28q45 -40 45 -68z" />
    <glyph glyph-name="Otilde" unicode="&#xd5;" horiz-adv-x="605" 
d="M465 627q66 -83 90 -260v-27q0 -120 -16 -176q-21 -71 -89 -129q-93 -31 -163 -31q-75 0 -137 34q-55 62 -77.5 122.5t-22.5 144.5q0 45 6 102q30 130 52 184q43 105 111 135q165 0 246 -99zM233 338q0 -62 75 -62q49 0 67 35q14 26 14 80q0 37 -33 60q-29 20 -62 20h-9
q-18 -2 -36 -56q-15 -44 -16 -71v-6zM261 781q-7 -2 -14 -9q-3 -4 -8 -10q-13 -15 -27 -15q-12 0 -18 8.5t-6 20.5q0 24 25 53q7 8 21.5 15.5t24.5 7.5q27 0 38 -9q2 -2 12 -17q6 -9 20 -10q9 0 17 11q5 8 12 17q9 8 20 8q13 0 21.5 -10t8.5 -23t-9 -26q-13 -22 -26 -31
q-18 -14 -45 -15h-4q-17 0 -29 8q-3 2 -17 18q-7 8 -15 8h-2z" />
    <glyph glyph-name="Odieresis" unicode="&#xd6;" horiz-adv-x="605" 
d="M465 627q66 -83 90 -260v-27q0 -120 -16 -176q-21 -71 -89 -129q-93 -31 -163 -31q-75 0 -137 34q-55 62 -77.5 122.5t-22.5 144.5q0 45 6 102q30 130 52 184q43 105 111 135q165 0 246 -99zM233 338q0 -62 75 -62q49 0 67 35q14 26 14 80q0 37 -33 60q-29 20 -62 20h-9
q-18 -2 -36 -56q-15 -44 -16 -71v-6zM147 785q-4 13 -4 26q0 35 35 51q12 6 24 6q28 0 46 -28q8 -13 8 -28q0 -25 -17 -42t-42 -17q-37 0 -50 32zM347 785q-5 13 -5 26q0 35 36 51q11 6 23 6q29 0 46 -28q9 -13 9 -28q0 -25 -17.5 -42t-41.5 -17q-38 0 -50 32z" />
    <glyph glyph-name="Oslash" unicode="&#xd8;" horiz-adv-x="605" 
d="M233 338q0 -62 75 -62q49 0 67 35q14 26 14 80q0 37 -33 60q-29 20 -62 20h-9q-18 -2 -36 -56q-15 -44 -16 -71v-6zM75 154q-1 4 -2 7q-23 60 -23 144q0 45 6 102q30 130 52 184q43 105 111 135q87 0 151 -27l9 11q18 20 56 20q42 0 74 -23q34 -24 34 -60v-6
q-10 -38 -33 -93q30 -73 45 -181v-27q0 -120 -16 -176q-21 -71 -89 -129q-93 -31 -163 -31q-42 0 -79 10q-26 -12 -55 -12q-39 0 -66 22q-30 23 -30 61q0 14 5 31t13 38z" />
    <glyph glyph-name="Ugrave" unicode="&#xd9;" horiz-adv-x="635" 
d="M301 656q-6 -65 -17 -143q-13 -91 -13 -136q0 -92 54 -94h2q52 0 52 100q0 50 -13 139q-15 103 -17 131v6q0 33 31 51q28 16 67 16q43 0 76 -20q37 -22 46 -62q16 -74 16 -172q0 -103 -23 -227q-30 -167 -83 -198q-25 -46 -158 -46q-142 0 -161 49q-61 52 -89 183
q-21 96 -21 209q0 99 20 196q10 46 45 68t81 22q35 0 66 -13q40 -17 40 -48q0 -3 -1 -11zM215.5 930q16.5 17 43.5 17q57 0 107 -50q36 -38 36 -83q0 -29 -18 -47t-47 -18q-46 0 -89 42q-49 48 -49 95q0 27 16.5 44z" />
    <glyph glyph-name="Uacute" unicode="&#xda;" horiz-adv-x="635" 
d="M301 656q-6 -65 -17 -143q-13 -91 -13 -136q0 -92 54 -94h2q52 0 52 100q0 50 -13 139q-15 103 -17 131v6q0 33 31 51q28 16 67 16q43 0 76 -20q37 -22 46 -62q16 -74 16 -172q0 -103 -23 -227q-30 -167 -83 -198q-25 -46 -158 -46q-142 0 -161 49q-61 52 -89 183
q-21 96 -21 209q0 99 20 196q10 46 45 68t81 22q35 0 66 -13q40 -17 40 -48q0 -3 -1 -11zM402 886q0 -47 -48 -95q-43 -42 -89 -42q-29 0 -47.5 18t-18.5 47q0 45 37 83q49 50 106 50q27 0 43.5 -17t16.5 -44z" />
    <glyph glyph-name="Ucircumflex" unicode="&#xdb;" horiz-adv-x="635" 
d="M301 656q-6 -65 -17 -143q-13 -91 -13 -136q0 -92 54 -94h2q52 0 52 100q0 50 -13 139q-15 103 -17 131v6q0 33 31 51q28 16 67 16q43 0 76 -20q37 -22 46 -62q16 -74 16 -172q0 -103 -23 -227q-30 -167 -83 -198q-25 -46 -158 -46q-142 0 -161 49q-61 52 -89 183
q-21 96 -21 209q0 99 20 196q10 46 45 68t81 22q35 0 66 -13q40 -17 40 -48q0 -3 -1 -11zM408 781q0 -12 -6 -21t-18 -9q-7 0 -13.5 3t-28.5 32q-20 26 -28 26q-9 0 -24 -23q-18 -29 -27 -37q-6 -4 -13 -4q-12 0 -19 10t-7 23q5 24 35 58q32 36 55 38q19 -1 49 -28
q45 -40 45 -68z" />
    <glyph glyph-name="Udieresis" unicode="&#xdc;" horiz-adv-x="635" 
d="M301 656q-6 -65 -17 -143q-13 -91 -13 -136q0 -92 54 -94h2q52 0 52 100q0 50 -13 139q-15 103 -17 131v6q0 33 31 51q28 16 67 16q43 0 76 -20q37 -22 46 -62q16 -74 16 -172q0 -103 -23 -227q-30 -167 -83 -198q-25 -46 -158 -46q-142 0 -161 49q-61 52 -89 183
q-21 96 -21 209q0 99 20 196q10 46 45 68t81 22q35 0 66 -13q40 -17 40 -48q0 -3 -1 -11zM165 785q-4 13 -4 26q0 35 35 51q12 6 24 6q28 0 46 -28q8 -13 8 -28q0 -25 -17 -42t-42 -17q-37 0 -50 32zM365 785q-5 13 -5 26q0 35 36 51q11 6 23 6q29 0 46 -28q9 -13 9 -28
q0 -25 -17.5 -42t-41.5 -17q-38 0 -50 32z" />
    <glyph glyph-name="Yacute" unicode="&#xdd;" horiz-adv-x="604" 
d="M50 670q0 25 44 42q35 14 65 14q44 0 51 -26q13 -17 24 -59q13 -48 20 -62q15 -29 42 -29h2q60 3 82 147q7 28 64 28q36 0 69 -14q41 -18 41 -50q-16 -164 -33 -215q-33 -99 -122 -120q-5 -11 -5 -34q0 -34 9.5 -102t9.5 -102q0 -25 -3 -38q-10 -46 -103 -46
q-33 0 -70 10q-50 13 -52 36v12q0 35 8 104q11 89 11 116q0 29 -7 42q-93 34 -125 137q-22 70 -22 209zM381 886q0 -47 -48 -95q-43 -42 -89 -42q-29 0 -47.5 18t-18.5 47q0 45 37 83q49 50 106 50q27 0 43.5 -17t16.5 -44z" />
    <glyph glyph-name="germandbls" unicode="&#xdf;" horiz-adv-x="621" 
d="M92 14q-39 50 -41 146q-1 20 -1 44q0 84 7 204q1 200 57 262t159 69h25q85 0 140 -39q63 -46 64 -156v-2q0 -108 -59 -164q120 -61 127 -142q1 -13 1 -25q0 -65 -30 -116q-35 -60 -95 -83q-29 -11 -57 -11q-32 0 -65 14q-56 25 -56 78v9q4 46 47 46q13 0 29 -3
q14 -4 27 -4q46 0 59 52q3 12 3 22q0 48 -61 68q-74 23 -76 76q-1 4 -1 7q0 49 33 92q33 45 33 83v3q-1 39 -38 50q-13 4 -25 4q-20 0 -35 -13q-23 -20 -24 -99t-5.5 -249.5t-33.5 -212.5q-16 -24 -48 -24q-25 0 -60 14z" />
    <glyph glyph-name="agrave" unicode="&#xe0;" horiz-adv-x="612" 
d="M92 602q61 60 203 60q141 0 198 -68q41 -24 58 -153q11 -81 11 -175q0 -156 -26 -215q-9 -48 -76 -48q-53 0 -60 31q-48 -21 -106 -21q-123 0 -194 64q-50 65 -50 151q0 72 43 112q58 54 133 54q47 0 132 -31q38 0 38 43q0 28 -18 52.5t-44 33.5q-33 11 -66 11
q-32 0 -76 -20t-57 -20q-20 0 -43 15q-25 35 -25 67q0 33 25 57zM210 210q0 -24 14 -33q8 -5 35 -8q8 -1 15 -1q20 0 36 6q28 10 28 37q0 44 -71 54q-5 1 -10 1q-19 0 -31 -13q-16 -16 -16 -43zM204.5 870q16.5 17 43.5 17q57 0 107 -50q36 -38 36 -83q0 -29 -18 -47
t-47 -18q-46 0 -89 42q-49 48 -49 95q0 27 16.5 44z" />
    <glyph glyph-name="aacute" unicode="&#xe1;" horiz-adv-x="612" 
d="M92 602q61 60 203 60q141 0 198 -68q41 -24 58 -153q11 -81 11 -175q0 -156 -26 -215q-9 -48 -76 -48q-53 0 -60 31q-48 -21 -106 -21q-123 0 -194 64q-50 65 -50 151q0 72 43 112q58 54 133 54q47 0 132 -31q38 0 38 43q0 28 -18 52.5t-44 33.5q-33 11 -66 11
q-32 0 -76 -20t-57 -20q-20 0 -43 15q-25 35 -25 67q0 33 25 57zM210 210q0 -24 14 -33q8 -5 35 -8q8 -1 15 -1q20 0 36 6q28 10 28 37q0 44 -71 54q-5 1 -10 1q-19 0 -31 -13q-16 -16 -16 -43zM431 826q0 -47 -48 -95q-43 -42 -89 -42q-29 0 -47.5 18t-18.5 47q0 45 37 83
q49 50 106 50q27 0 43.5 -17t16.5 -44z" />
    <glyph glyph-name="acircumflex" unicode="&#xe2;" horiz-adv-x="612" 
d="M92 602q61 60 203 60q141 0 198 -68q41 -24 58 -153q11 -81 11 -175q0 -156 -26 -215q-9 -48 -76 -48q-53 0 -60 31q-48 -21 -106 -21q-123 0 -194 64q-50 65 -50 151q0 72 43 112q58 54 133 54q47 0 132 -31q38 0 38 43q0 28 -18 52.5t-44 33.5q-33 11 -66 11
q-32 0 -76 -20t-57 -20q-20 0 -43 15q-25 35 -25 67q0 33 25 57zM210 210q0 -24 14 -33q8 -5 35 -8q8 -1 15 -1q20 0 36 6q28 10 28 37q0 44 -71 54q-5 1 -10 1q-19 0 -31 -13q-16 -16 -16 -43zM397 751q0 -12 -6 -21t-18 -9q-7 0 -13.5 3t-28.5 32q-20 26 -28 26
q-9 0 -24 -23q-18 -29 -27 -37q-6 -4 -13 -4q-12 0 -19 10t-7 23q5 24 35 58q32 36 55 38q19 -1 49 -28q45 -40 45 -68z" />
    <glyph glyph-name="atilde" unicode="&#xe3;" horiz-adv-x="612" 
d="M92 602q61 60 203 60q141 0 198 -68q41 -24 58 -153q11 -81 11 -175q0 -156 -26 -215q-9 -48 -76 -48q-53 0 -60 31q-48 -21 -106 -21q-123 0 -194 64q-50 65 -50 151q0 72 43 112q58 54 133 54q47 0 132 -31q38 0 38 43q0 28 -18 52.5t-44 33.5q-33 11 -66 11
q-32 0 -76 -20t-57 -20q-20 0 -43 15q-25 35 -25 67q0 33 25 57zM210 210q0 -24 14 -33q8 -5 35 -8q8 -1 15 -1q20 0 36 6q28 10 28 37q0 44 -71 54q-5 1 -10 1q-19 0 -31 -13q-16 -16 -16 -43zM268 721q-7 -2 -14 -9q-3 -4 -8 -10q-13 -15 -27 -15q-12 0 -18 8.5t-6 20.5
q0 24 25 53q7 8 21.5 15.5t24.5 7.5q27 0 38 -9q2 -2 12 -17q6 -9 20 -10q9 0 17 11q5 8 12 17q9 8 20 8q13 0 21.5 -10t8.5 -23t-9 -26q-13 -22 -26 -31q-18 -14 -45 -15h-4q-17 0 -29 8q-3 2 -17 18q-7 8 -15 8h-2z" />
    <glyph glyph-name="adieresis" unicode="&#xe4;" horiz-adv-x="612" 
d="M92 602q61 60 203 60q141 0 198 -68q41 -24 58 -153q11 -81 11 -175q0 -156 -26 -215q-9 -48 -76 -48q-53 0 -60 31q-48 -21 -106 -21q-123 0 -194 64q-50 65 -50 151q0 72 43 112q58 54 133 54q47 0 132 -31q38 0 38 43q0 28 -18 52.5t-44 33.5q-33 11 -66 11
q-32 0 -76 -20t-57 -20q-20 0 -43 15q-25 35 -25 67q0 33 25 57zM210 210q0 -24 14 -33q8 -5 35 -8q8 -1 15 -1q20 0 36 6q28 10 28 37q0 44 -71 54q-5 1 -10 1q-19 0 -31 -13q-16 -16 -16 -43zM154 725q-4 13 -4 26q0 35 35 51q12 6 24 6q28 0 46 -28q8 -13 8 -28
q0 -25 -17 -42t-42 -17q-37 0 -50 32zM354 725q-5 13 -5 26q0 35 36 51q11 6 23 6q29 0 46 -28q9 -13 9 -28q0 -25 -17.5 -42t-41.5 -17q-38 0 -50 32z" />
    <glyph glyph-name="aring" unicode="&#xe5;" horiz-adv-x="612" 
d="M92 602q61 60 203 60q141 0 198 -68q41 -24 58 -153q11 -81 11 -175q0 -156 -26 -215q-9 -48 -76 -48q-53 0 -60 31q-48 -21 -106 -21q-123 0 -194 64q-50 65 -50 151q0 72 43 112q58 54 133 54q47 0 132 -31q38 0 38 43q0 28 -18 52.5t-44 33.5q-33 11 -66 11
q-32 0 -76 -20t-57 -20q-20 0 -43 15q-25 35 -25 67q0 33 25 57zM210 210q0 -24 14 -33q8 -5 35 -8q8 -1 15 -1q20 0 36 6q28 10 28 37q0 44 -71 54q-5 1 -10 1q-19 0 -31 -13q-16 -16 -16 -43zM393 778q0 -36 -25.5 -61t-61.5 -25t-62 25t-26 61t26 61t62 25t61.5 -25
t25.5 -61zM343 778q0 15 -11 26t-26 11q-16 0 -27 -11t-11 -26q0 -16 11 -26.5t27 -10.5q15 0 26 10.5t11 26.5z" />
    <glyph glyph-name="ae" unicode="&#xe6;" horiz-adv-x="1000" 
d="M210 210q0 -24 14 -33q8 -5 35 -8q8 -1 15 -1q20 0 36 6q28 10 28 37q0 44 -71 54q-5 1 -10 1q-19 0 -31 -13q-16 -16 -16 -43zM675 439.5q16 -10.5 35 -10.5q18 0 34 10.5t16 28.5t-16 28.5t-34 10.5q-19 0 -35 -10.5t-16 -28.5t16 -28.5zM542 68q-3 -9 -6 -17
q-9 -48 -76 -48q-53 0 -60 31q-48 -21 -106 -21q-123 0 -194 64q-50 65 -50 151q0 72 43 112q58 54 133 54q47 0 132 -31q38 0 38 43q0 28 -18 52.5t-44 33.5q-33 11 -66 11q-32 0 -76 -20t-57 -20q-20 0 -43 15q-25 35 -25 67q0 33 25 57q61 60 203 60q141 0 198 -68
q15 -9 27 -31q40 40 98 53q57 6 93 7q40 3 42 3q168 0 168 -199q-23 -136 -141 -136q-21 0 -62.5 8.5t-60.5 8.5q-7 0 -10 -2q-17 -10 -17 -29q0 -17 12.5 -31.5t29.5 -19.5q78 -21 95 -21q43 0 84 26q18 8 36 8q30 0 48 -20q15 -18 15 -43v-8q-5 -58 -27 -85.5t-87 -54.5
q-44 -18 -90 -18q-34 0 -98 15q-86 32 -95 37q-5 3 -11 6z" />
    <glyph glyph-name="ccedilla" unicode="&#xe7;" horiz-adv-x="624" 
d="M417 623q-73 -5 -90 -8q-66 -12 -115 -50q-93 -59 -153 -179q-9 -33 -9 -73q0 -123 61 -194q35 -40 66 -57q9 -5 95 -37q64 -15 98 -15q46 0 90 18q65 27 87 54.5t27 85.5v8q0 25 -15 43q-18 20 -48 20q-18 0 -36 -8q-52 -32 -96 -32q-40 0 -83 27q-38 52 -38 92
q0 68 85 112q28 14 141 50q17 17 17 49q0 37 -23 62t-61 32zM212 -88q13 -37 45 -56q30 -17 71 -17q36 0 68 15q39 18 45 50q5 16 5 35q0 31 -13 56q-15 27 -41 40q-9 4 -17 12l-22 22q-8 19 -25 19q-21 0 -29 -20l-3 -6q-4 -13 -4 -24q0 -18 13 -30q4 -4 29 -19
q28 -17 28 -34q0 -10 -8 -23q-13 -21 -38 -21q-36 0 -65 36q-41 0 -41 -25q0 -4 2 -10z" />
    <glyph glyph-name="egrave" unicode="&#xe8;" horiz-adv-x="624" 
d="M377 626q168 0 168 -199q-23 -136 -141 -136q-21 0 -62.5 8.5t-60.5 8.5q-7 0 -10 -2q-17 -10 -17 -29q0 -17 12.5 -31.5t29.5 -19.5q78 -21 95 -21q43 0 84 26q18 8 36 8q30 0 48 -20q15 -18 15 -43v-8q-5 -58 -27 -85.5t-87 -54.5q-44 -18 -90 -18q-34 0 -98 15
q-86 32 -95 37q-31 17 -66 57q-61 71 -61 194q0 30 9 73q41 198 183 230q57 6 93 7q40 3 42 3zM299 439.5q16 -10.5 35 -10.5q18 0 34 10.5t16 28.5t-16 28.5t-34 10.5q-19 0 -35 -10.5t-16 -28.5t16 -28.5zM208.5 870q16.5 17 43.5 17q57 0 107 -50q36 -38 36 -83
q0 -29 -18 -47t-47 -18q-46 0 -89 42q-49 48 -49 95q0 27 16.5 44z" />
    <glyph glyph-name="eacute" unicode="&#xe9;" horiz-adv-x="624" 
d="M377 626q168 0 168 -199q-23 -136 -141 -136q-21 0 -62.5 8.5t-60.5 8.5q-7 0 -10 -2q-17 -10 -17 -29q0 -17 12.5 -31.5t29.5 -19.5q78 -21 95 -21q43 0 84 26q18 8 36 8q30 0 48 -20q15 -18 15 -43v-8q-5 -58 -27 -85.5t-87 -54.5q-44 -18 -90 -18q-34 0 -98 15
q-86 32 -95 37q-31 17 -66 57q-61 71 -61 194q0 30 9 73q41 198 183 230q57 6 93 7q40 3 42 3zM299 439.5q16 -10.5 35 -10.5q18 0 34 10.5t16 28.5t-16 28.5t-34 10.5q-19 0 -35 -10.5t-16 -28.5t16 -28.5zM435 826q0 -47 -48 -95q-43 -42 -89 -42q-29 0 -47.5 18t-18.5 47
q0 45 37 83q49 50 106 50q27 0 43.5 -17t16.5 -44z" />
    <glyph glyph-name="ecircumflex" unicode="&#xea;" horiz-adv-x="624" 
d="M377 626q168 0 168 -199q-23 -136 -141 -136q-21 0 -62.5 8.5t-60.5 8.5q-7 0 -10 -2q-17 -10 -17 -29q0 -17 12.5 -31.5t29.5 -19.5q78 -21 95 -21q43 0 84 26q18 8 36 8q30 0 48 -20q15 -18 15 -43v-8q-5 -58 -27 -85.5t-87 -54.5q-44 -18 -90 -18q-34 0 -98 15
q-86 32 -95 37q-31 17 -66 57q-61 71 -61 194q0 30 9 73q41 198 183 230q57 6 93 7q40 3 42 3zM299 439.5q16 -10.5 35 -10.5q18 0 34 10.5t16 28.5t-16 28.5t-34 10.5q-19 0 -35 -10.5t-16 -28.5t16 -28.5zM401 721q0 -12 -6 -21t-18 -9q-7 0 -13.5 3t-28.5 32
q-20 26 -28 26q-9 0 -24 -23q-18 -29 -27 -37q-6 -4 -13 -4q-12 0 -19 10t-7 23q5 24 35 58q32 36 55 38q19 -1 49 -28q45 -40 45 -68z" />
    <glyph glyph-name="edieresis" unicode="&#xeb;" horiz-adv-x="624" 
d="M377 626q168 0 168 -199q-23 -136 -141 -136q-21 0 -62.5 8.5t-60.5 8.5q-7 0 -10 -2q-17 -10 -17 -29q0 -17 12.5 -31.5t29.5 -19.5q78 -21 95 -21q43 0 84 26q18 8 36 8q30 0 48 -20q15 -18 15 -43v-8q-5 -58 -27 -85.5t-87 -54.5q-44 -18 -90 -18q-34 0 -98 15
q-86 32 -95 37q-31 17 -66 57q-61 71 -61 194q0 30 9 73q41 198 183 230q57 6 93 7q40 3 42 3zM299 439.5q16 -10.5 35 -10.5q18 0 34 10.5t16 28.5t-16 28.5t-34 10.5q-19 0 -35 -10.5t-16 -28.5t16 -28.5zM158 725q-4 13 -4 26q0 35 35 51q12 6 24 6q28 0 46 -28
q8 -13 8 -28q0 -25 -17 -42t-42 -17q-37 0 -50 32zM358 725q-5 13 -5 26q0 35 36 51q11 6 23 6q29 0 46 -28q9 -13 9 -28q0 -25 -17.5 -42t-41.5 -17q-38 0 -50 32z" />
    <glyph glyph-name="igrave" unicode="&#xec;" horiz-adv-x="330" 
d="M79 425q18 33 88 33q76 0 97 -37q16 -29 16 -199q0 -150 -13 -192q-14 -33 -97 -33q-76 0 -89 30q-22 50 -22 218q0 153 20 180zM66.5 680q16.5 17 43.5 17q57 0 107 -50q36 -38 36 -83q0 -29 -18 -47t-47 -18q-46 0 -89 42q-49 48 -49 95q0 27 16.5 44z" />
    <glyph glyph-name="iacute" unicode="&#xed;" horiz-adv-x="325" 
d="M70 425q18 33 88 33q76 0 97 -37q16 -29 16 -199q0 -150 -13 -192q-14 -33 -97 -33q-76 0 -89 30q-22 50 -22 218q0 153 20 180zM275 636q0 -47 -49 -95q-43 -42 -89 -42q-29 0 -47.5 18t-18.5 47q0 45 37 83q50 50 106 50q27 0 44 -17t17 -44z" />
    <glyph glyph-name="icircumflex" unicode="&#xee;" horiz-adv-x="321" 
d="M70 425q18 33 88 33q76 0 97 -37q16 -29 16 -199q0 -150 -13 -192q-14 -33 -97 -33q-76 0 -89 30q-22 50 -22 218q0 153 20 180zM250 531q0 -12 -6 -21t-18 -9q-7 0 -13.5 3t-28.5 32q-20 26 -28 26q-9 0 -24 -23q-18 -29 -27 -37q-6 -4 -13 -4q-12 0 -19 10t-7 23
q5 24 35 58q32 36 55 38q19 -1 49 -28q45 -40 45 -68z" />
    <glyph glyph-name="idieresis" unicode="&#xef;" horiz-adv-x="413" 
d="M117 425q18 33 88 33q76 0 97 -37q16 -29 16 -199q0 -150 -13 -192q-14 -33 -97 -33q-76 0 -89 30q-22 50 -22 218q0 153 20 180zM55 535q-5 13 -5 26q0 35 36 51q12 6 23 6q29 0 46 -28q9 -13 9 -28q0 -25 -17 -42t-42 -17q-38 0 -50 32zM254 535q-5 13 -5 26
q0 35 36 51q12 6 24 6q28 0 46 -28q8 -13 8 -28q0 -25 -17 -42t-42 -17q-37 0 -50 32z" />
    <glyph glyph-name="ntilde" unicode="&#xf1;" horiz-adv-x="625" 
d="M256 40v-1q0 -38 -88 -38q-90 0 -96 36q-22 130 -22 313q0 186 23 234q14 43 71 43q25 0 45 -10q25 -12 27 -34q0 -13 2 -16q3 -6 15 -7h5q18 0 32 13q19 19 41 28q38 16 77 16q73 0 127 -48q52 -48 52 -118v-3q8 -70 8 -161q0 -179 -24 -260q-15 -28 -88 -28
q-66 0 -74 33q-9 10 -9 65q0 23 1.5 69.5t1.5 69.5q0 151 -44 151h-5l-52 -10q-25 -5 -30 -42q-2 -10 -2 -57q0 17 6 -238zM271 721q-7 -2 -14 -9q-3 -4 -8 -10q-13 -15 -27 -15q-12 0 -18 8.5t-6 20.5q0 24 25 53q7 8 21.5 15.5t24.5 7.5q27 0 38 -9q2 -2 12 -17
q6 -9 20 -10q9 0 17 11q5 8 12 17q9 8 20 8q13 0 21.5 -10t8.5 -23t-9 -26q-13 -22 -26 -31q-18 -14 -45 -15h-4q-17 0 -29 8q-3 2 -17 18q-7 8 -15 8h-2z" />
    <glyph glyph-name="ograve" unicode="&#xf2;" horiz-adv-x="605" 
d="M456 548q74 -72 99 -233v-25q0 -103 -15 -149q-20 -60 -90 -111q-93 -27 -162 -27q-75 0 -138 29q-55 55 -77.5 105t-22.5 126q0 38 6 87q31 114 52 159q42 89 111 115q158 0 237 -76zM220 288q0 -55 75 -55q81 0 81 99q0 34 -37 54q-29 15 -60 15h-7q-18 -1 -36 -47
q-15 -38 -16 -62v-4zM200.5 870q16.5 17 43.5 17q57 0 107 -50q36 -38 36 -83q0 -29 -18 -47t-47 -18q-46 0 -89 42q-49 48 -49 95q0 27 16.5 44z" />
    <glyph glyph-name="oacute" unicode="&#xf3;" horiz-adv-x="605" 
d="M456 548q74 -72 99 -233v-25q0 -103 -15 -149q-20 -60 -90 -111q-93 -27 -162 -27q-75 0 -138 29q-55 55 -77.5 105t-22.5 126q0 38 6 87q31 114 52 159q42 89 111 115q158 0 237 -76zM220 288q0 -55 75 -55q81 0 81 99q0 34 -37 54q-29 15 -60 15h-7q-18 -1 -36 -47
q-15 -38 -16 -62v-4zM427 826q0 -47 -48 -95q-43 -42 -89 -42q-29 0 -47.5 18t-18.5 47q0 45 37 83q49 50 106 50q27 0 43.5 -17t16.5 -44z" />
    <glyph glyph-name="ocircumflex" unicode="&#xf4;" horiz-adv-x="605" 
d="M456 548q74 -72 99 -233v-25q0 -103 -15 -149q-20 -60 -90 -111q-93 -27 -162 -27q-75 0 -138 29q-55 55 -77.5 105t-22.5 126q0 38 6 87q31 114 52 159q42 89 111 115q158 0 237 -76zM220 288q0 -55 75 -55q81 0 81 99q0 34 -37 54q-29 15 -60 15h-7q-18 -1 -36 -47
q-15 -38 -16 -62v-4zM393 751q0 -12 -6 -21t-18 -9q-7 0 -13.5 3t-28.5 32q-20 26 -28 26q-9 0 -24 -23q-18 -29 -27 -37q-6 -4 -13 -4q-12 0 -19 10t-7 23q5 24 35 58q32 36 55 38q19 -1 49 -28q45 -40 45 -68z" />
    <glyph glyph-name="otilde" unicode="&#xf5;" horiz-adv-x="605" 
d="M456 548q74 -72 99 -233v-25q0 -103 -15 -149q-20 -60 -90 -111q-93 -27 -162 -27q-75 0 -138 29q-55 55 -77.5 105t-22.5 126q0 38 6 87q31 114 52 159q42 89 111 115q158 0 237 -76zM220 288q0 -55 75 -55q81 0 81 99q0 34 -37 54q-29 15 -60 15h-7q-18 -1 -36 -47
q-15 -38 -16 -62v-4zM264 721q-7 -2 -14 -9q-3 -4 -8 -10q-13 -15 -27 -15q-12 0 -18 8.5t-6 20.5q0 24 25 53q7 8 21.5 15.5t24.5 7.5q27 0 38 -9q2 -2 12 -17q6 -9 20 -10q9 0 17 11q5 8 12 17q9 8 20 8q13 0 21.5 -10t8.5 -23t-9 -26q-13 -22 -26 -31q-18 -14 -45 -15h-4
q-17 0 -29 8q-3 2 -17 18q-7 8 -15 8h-2z" />
    <glyph glyph-name="odieresis" unicode="&#xf6;" horiz-adv-x="605" 
d="M456 548q74 -72 99 -233v-25q0 -103 -15 -149q-20 -60 -90 -111q-93 -27 -162 -27q-75 0 -138 29q-55 55 -77.5 105t-22.5 126q0 38 6 87q31 114 52 159q42 89 111 115q158 0 237 -76zM220 288q0 -55 75 -55q81 0 81 99q0 34 -37 54q-29 15 -60 15h-7q-18 -1 -36 -47
q-15 -38 -16 -62v-4zM150 725q-4 13 -4 26q0 35 35 51q12 6 24 6q28 0 46 -28q8 -13 8 -28q0 -25 -17 -42t-42 -17q-37 0 -50 32zM350 725q-5 13 -5 26q0 35 36 51q11 6 23 6q29 0 46 -28q9 -13 9 -28q0 -25 -17.5 -42t-41.5 -17q-38 0 -50 32z" />
    <glyph glyph-name="divide" unicode="&#xf7;" horiz-adv-x="629" 
d="M88 475q66 13 202 13q161 0 244 -13q45 -7 45 -75q0 -55 -35 -84q-107 -12 -278 -12q-120 0 -185 8q-31 16 -31 76q0 68 38 87zM254 292q23 9 48 9q65 0 104 -71q11 -20 11 -46q0 -58 -54 -91q-26 -16 -57 -16q-48 0 -81.5 34t-33.5 82q0 74 63 99zM260 701q23 9 48 9
q65 0 104 -71q11 -20 11 -46q0 -58 -54 -91q-26 -16 -57 -16q-48 0 -81.5 34t-33.5 82q0 74 63 99z" />
    <glyph glyph-name="oslash" unicode="&#xf8;" horiz-adv-x="605" 
d="M220 288q0 -55 75 -55q81 0 81 99q0 34 -37 54q-29 15 -60 15h-7q-18 -1 -36 -47q-15 -38 -16 -62v-4zM343 609q24 38 38 53q18 20 57 20q42 0 74 -23q34 -24 34 -60v-6q-12 -44 -41 -112q34 -66 50 -166v-25q0 -103 -15 -149q-20 -60 -90 -111q-93 -27 -162 -27
q-21 0 -41 2q-11 -17 -22 -31q-32 -21 -70 -21q-39 0 -66 22q-30 23 -30 61q0 14 5 31q6 22 18 52q-5 9 -9 18q-23 50 -23 126q0 38 6 87q31 114 52 159q42 89 111 115q70 0 124 -15z" />
    <glyph glyph-name="ugrave" unicode="&#xf9;" horiz-adv-x="635" 
d="M301 563q-6 -55 -17 -123q-13 -78 -13 -117q0 -79 54 -81h2q52 0 52 86q0 43 -13 120q-15 90 -17 112v5q0 29 33 45q28 13 65 13q41 0 74 -16q39 -19 48 -54q16 -64 16 -148q0 -90 -23 -197q-31 -142 -83 -169q-25 -39 -158 -39q-141 0 -161 42q-60 43 -89 155
q-21 83 -21 182q0 86 20 169q9 39 46 59q33 18 80 18q34 0 64 -10q42 -15 42 -42q0 -3 -1 -10zM215.5 870q16.5 17 43.5 17q57 0 107 -50q36 -38 36 -83q0 -29 -18 -47t-47 -18q-46 0 -89 42q-49 48 -49 95q0 27 16.5 44z" />
    <glyph glyph-name="uacute" unicode="&#xfa;" horiz-adv-x="635" 
d="M301 563q-6 -55 -17 -123q-13 -78 -13 -117q0 -79 54 -81h2q52 0 52 86q0 43 -13 120q-15 90 -17 112v5q0 29 33 45q28 13 65 13q41 0 74 -16q39 -19 48 -54q16 -64 16 -148q0 -90 -23 -197q-31 -142 -83 -169q-25 -39 -158 -39q-141 0 -161 42q-60 43 -89 155
q-21 83 -21 182q0 86 20 169q9 39 46 59q33 18 80 18q34 0 64 -10q42 -15 42 -42q0 -3 -1 -10zM442 826q0 -47 -48 -95q-43 -42 -89 -42q-29 0 -47.5 18t-18.5 47q0 45 37 83q49 50 106 50q27 0 43.5 -17t16.5 -44z" />
    <glyph glyph-name="ucircumflex" unicode="&#xfb;" horiz-adv-x="635" 
d="M301 563q-6 -55 -17 -123q-13 -78 -13 -117q0 -79 54 -81h2q52 0 52 86q0 43 -13 120q-15 90 -17 112v5q0 29 33 45q28 13 65 13q41 0 74 -16q39 -19 48 -54q16 -64 16 -148q0 -90 -23 -197q-31 -142 -83 -169q-25 -39 -158 -39q-141 0 -161 42q-60 43 -89 155
q-21 83 -21 182q0 86 20 169q9 39 46 59q33 18 80 18q34 0 64 -10q42 -15 42 -42q0 -3 -1 -10zM408 751q0 -12 -6 -21t-18 -9q-7 0 -13.5 3t-28.5 32q-20 26 -28 26q-9 0 -24 -23q-18 -29 -27 -37q-6 -4 -13 -4q-12 0 -19 10t-7 23q5 24 35 58q32 36 55 38q19 -1 49 -28
q45 -40 45 -68z" />
    <glyph glyph-name="udieresis" unicode="&#xfc;" horiz-adv-x="635" 
d="M301 563q-6 -55 -17 -123q-13 -78 -13 -117q0 -79 54 -81h2q52 0 52 86q0 43 -13 120q-15 90 -17 112v5q0 29 33 45q28 13 65 13q41 0 74 -16q39 -19 48 -54q16 -64 16 -148q0 -90 -23 -197q-31 -142 -83 -169q-25 -39 -158 -39q-141 0 -161 42q-60 43 -89 155
q-21 83 -21 182q0 86 20 169q9 39 46 59q33 18 80 18q34 0 64 -10q42 -15 42 -42q0 -3 -1 -10zM165 725q-4 13 -4 26q0 35 35 51q12 6 24 6q28 0 46 -28q8 -13 8 -28q0 -25 -17 -42t-42 -17q-37 0 -50 32zM365 725q-5 13 -5 26q0 35 36 51q11 6 23 6q29 0 46 -28
q9 -13 9 -28q0 -25 -17.5 -42t-41.5 -17q-38 0 -50 32z" />
    <glyph glyph-name="yacute" unicode="&#xfd;" horiz-adv-x="628" 
d="M50 566q0 31 49 48q37 12 75 12q77 0 82 -37q8 -55 16 -97q11 -58 45 -65q36 0 48 61q5 33 17 99q10 35 88 35q39 0 69 -14q39 -17 39 -49v-3q-3 -56 -34 -134q-25 -63 -83 -176l-103 -197q-84 -152 -154 -152h-4q-65 3 -99 37q-22 22 -22 41q0 46 86 173q61 90 61 101
q0 4 -4 6q-90 33 -137 146q-35 84 -35 165zM440 826q0 -47 -48 -95q-43 -42 -89 -42q-29 0 -47.5 18t-18.5 47q0 45 37 83q49 50 106 50q27 0 43.5 -17t16.5 -44z" />
    <glyph glyph-name="ydieresis" unicode="&#xff;" horiz-adv-x="628" 
d="M50 566q0 31 49 48q37 12 75 12q77 0 82 -37q8 -55 16 -97q11 -58 45 -65q36 0 48 61q5 33 17 99q10 35 88 35q39 0 69 -14q39 -17 39 -49v-3q-3 -56 -34 -134q-25 -63 -83 -176l-103 -197q-84 -152 -154 -152h-4q-65 3 -99 37q-22 22 -22 41q0 46 86 173q61 90 61 101
q0 4 -4 6q-90 33 -137 146q-35 84 -35 165zM163 725q-4 13 -4 26q0 35 35 51q12 6 24 6q28 0 46 -28q8 -13 8 -28q0 -25 -17 -42t-42 -17q-37 0 -50 32zM363 725q-5 13 -5 26q0 35 36 51q11 6 23 6q29 0 46 -28q9 -13 9 -28q0 -25 -17.5 -42t-41.5 -17q-38 0 -50 32z" />
    <glyph glyph-name="Amacron" unicode="&#x100;" horiz-adv-x="628" 
d="M153 670q28 59 155 59q48 0 89 -13q55 -16 71 -49q35 -69 73 -287q37 -206 37 -301q0 -43 -9 -49q-7 -13 -41 -22q-28 -7 -48 -7q-48 0 -81 29q-31 50 -38 98q-4 35 -13 104q-7 29 -33 29q-11 0 -24 -7q-12 -7 -12 -17v-2q-3 -42 -11 -125q-6 -61 -29 -80
q-33 -28 -83 -28q-66 0 -96 39q-10 9 -10 68q0 114 28 279q33 193 75 282zM243 466q0 -24 18 -39.5t42 -15.5t42.5 15.5t18.5 39.5t-18.5 39.5t-42.5 15.5t-42 -15.5t-18 -39.5zM135 863q52 8 160 8q129 0 194 -8q35 -4 35 -45q0 -33 -27 -51q-85 -7 -221 -7q-95 0 -147 5
q-24 10 -24 46q0 41 30 52z" />
    <glyph glyph-name="amacron" unicode="&#x101;" horiz-adv-x="612" 
d="M92 602q61 60 203 60q141 0 198 -68q41 -24 58 -153q11 -81 11 -175q0 -156 -26 -215q-9 -48 -76 -48q-53 0 -60 31q-48 -21 -106 -21q-123 0 -194 64q-50 65 -50 151q0 72 43 112q58 54 133 54q47 0 132 -31q38 0 38 43q0 28 -18 52.5t-44 33.5q-33 11 -66 11
q-32 0 -76 -20t-57 -20q-20 0 -43 15q-25 35 -25 67q0 33 25 57zM210 210q0 -24 14 -33q8 -5 35 -8q8 -1 15 -1q20 0 36 6q28 10 28 37q0 44 -71 54q-5 1 -10 1q-19 0 -31 -13q-16 -16 -16 -43zM132 813q52 8 160 8q129 0 194 -8q35 -4 35 -45q0 -33 -27 -51q-85 -7 -221 -7
q-95 0 -147 5q-24 10 -24 46q0 41 30 52z" />
    <glyph glyph-name="Abreve" unicode="&#x102;" horiz-adv-x="628" 
d="M355 776q-30 -27 -49 -28q-23 2 -55 38q-30 34 -35 58q0 13 7 23t19 10q7 0 13 -4q9 -8 27 -37q15 -23 24 -23q8 0 28 26q22 29 28.5 32t13.5 3q12 0 18 -9t6 -21q0 -28 -45 -68zM153 670q28 59 155 59q48 0 89 -13q55 -16 71 -49q35 -69 73 -287q37 -206 37 -301
q0 -43 -9 -49q-7 -13 -41 -22q-28 -7 -48 -7q-48 0 -81 29q-31 50 -38 98q-4 35 -13 104q-7 29 -33 29q-11 0 -24 -7q-12 -7 -12 -17v-2q-3 -42 -11 -125q-6 -61 -29 -80q-33 -28 -83 -28q-66 0 -96 39q-10 9 -10 68q0 114 28 279q33 193 75 282zM243 466q0 -24 18 -39.5
t42 -15.5t42.5 15.5t18.5 39.5t-18.5 39.5t-42.5 15.5t-42 -15.5t-18 -39.5z" />
    <glyph glyph-name="abreve" unicode="&#x103;" horiz-adv-x="612" 
d="M92 602q61 60 203 60q141 0 198 -68q41 -24 58 -153q11 -81 11 -175q0 -156 -26 -215q-9 -48 -76 -48q-53 0 -60 31q-48 -21 -106 -21q-123 0 -194 64q-50 65 -50 151q0 72 43 112q58 54 133 54q47 0 132 -31q38 0 38 43q0 28 -18 52.5t-44 33.5q-33 11 -66 11
q-32 0 -76 -20t-57 -20q-20 0 -43 15q-25 35 -25 67q0 33 25 57zM210 210q0 -24 14 -33q8 -5 35 -8q8 -1 15 -1q20 0 36 6q28 10 28 37q0 44 -71 54q-5 1 -10 1q-19 0 -31 -13q-16 -16 -16 -43zM352 716q-30 -27 -49 -28q-23 2 -55 38q-30 34 -35 58q0 13 7 23t19 10
q7 0 13 -4q9 -8 27 -37q15 -23 24 -23q8 0 28 26q22 29 28.5 32t13.5 3q12 0 18 -9t6 -21q0 -28 -45 -68z" />
    <glyph glyph-name="Aogonek" unicode="&#x104;" horiz-adv-x="671" 
d="M243 466q0 -24 18 -39.5t42 -15.5t42.5 15.5t18.5 39.5t-18.5 39.5t-42.5 15.5t-42 -15.5t-18 -39.5zM415 18q-8 5 -16 12q-31 50 -38 98q-4 35 -13 104q-7 29 -33 29q-11 0 -24 -7q-12 -7 -12 -17v-2q-3 -42 -11 -125q-6 -61 -29 -80q-33 -28 -83 -28q-66 0 -96 39
q-10 9 -10 68q0 114 28 279q33 193 75 282q28 59 155 59q48 0 89 -13q55 -16 71 -49q35 -69 73 -287q37 -206 37 -301q0 -43 -9 -49q-7 -13 -41 -22q-1 0 -3 -1q-5 -4 -28 -18q-28 -17 -28 -34q0 -10 8 -23q13 -21 38 -21q36 0 65 36q41 0 41 -25q0 -4 -2 -10
q-13 -37 -45 -56q-30 -17 -71 -17q-36 0 -68 15q-39 18 -45 50q-5 16 -5 35q0 31 13 56q7 13 17 23z" />
    <glyph glyph-name="aogonek" unicode="&#x105;" horiz-adv-x="658" 
d="M210 210q0 -24 14 -33q8 -5 35 -8q8 -1 15 -1q20 0 36 6q28 10 28 37q0 44 -71 54q-5 1 -10 1q-19 0 -31 -13q-16 -16 -16 -43zM524 25q-3 -10 -11 -17q-4 -4 -29 -19q-28 -17 -28 -34q0 -10 8 -23q13 -21 38 -21q36 0 65 36q41 0 41 -25q0 -4 -2 -10q-13 -37 -45 -56
q-30 -17 -71 -17q-36 0 -68 15q-39 18 -45 50q-5 16 -5 35q0 31 13 56q9 15 21 26q-4 6 -6 13q-48 -21 -106 -21q-123 0 -194 64q-50 65 -50 151q0 72 43 112q58 54 133 54q47 0 132 -31q38 0 38 43q0 28 -18 52.5t-44 33.5q-33 11 -66 11q-32 0 -76 -20t-57 -20
q-20 0 -43 15q-25 35 -25 67q0 33 25 57q61 60 203 60q141 0 198 -68q41 -24 58 -153q11 -81 11 -175q0 -156 -26 -215q-3 -16 -12 -26z" />
    <glyph glyph-name="Cacute" unicode="&#x106;" horiz-adv-x="627" 
d="M481 695.5q23 -26.5 23 -64.5q0 -44 -37 -66q-16 -9 -78 -26q-76 -21 -97 -52q-31 -46 -31 -127q0 -76 38 -129q43 -28 83 -28q44 0 96 33q18 9 36 9q30 0 48 -22q15 -21 15 -47v-6q-5 -61 -26.5 -90t-87.5 -57q-45 -19 -90 -19q-34 0 -98 16q-88 34 -95 38
q-30 17 -66 61q-32 39 -50 127q-14 72 -14 139q0 61 12 96q57 120 153 188q57 41 115 52q15 3 90 8q38 -7 61 -33.5zM398 886q0 -47 -48 -95q-43 -42 -89 -42q-29 0 -47.5 18t-18.5 47q0 45 37 83q49 50 106 50q27 0 43.5 -17t16.5 -44z" />
    <glyph glyph-name="cacute" unicode="&#x107;" horiz-adv-x="624" 
d="M478 591q23 -25 23 -62q0 -32 -17 -49q-113 -36 -141 -50q-85 -44 -85 -112q0 -40 38 -92q43 -27 83 -27q44 0 96 32q18 8 36 8q30 0 48 -20q15 -18 15 -43v-8q-5 -58 -27 -85.5t-87 -54.5q-44 -18 -90 -18q-34 0 -98 15q-86 32 -95 37q-31 17 -66 57q-61 71 -61 194
q0 40 9 73q60 120 153 179q49 38 115 50q17 3 90 8q38 -7 61 -32zM395 826q0 -47 -48 -95q-43 -42 -89 -42q-29 0 -47.5 18t-18.5 47q0 45 37 83q49 50 106 50q27 0 43.5 -17t16.5 -44z" />
    <glyph glyph-name="Ccircumflex" unicode="&#x108;" horiz-adv-x="627" 
d="M481 695.5q23 -26.5 23 -64.5q0 -44 -37 -66q-16 -9 -78 -26q-76 -21 -97 -52q-31 -46 -31 -127q0 -76 38 -129q43 -28 83 -28q44 0 96 33q18 9 36 9q30 0 48 -22q15 -21 15 -47v-6q-5 -61 -26.5 -90t-87.5 -57q-45 -19 -90 -19q-34 0 -98 16q-88 34 -95 38
q-30 17 -66 61q-32 39 -50 127q-14 72 -14 139q0 61 12 96q57 120 153 188q57 41 115 52q15 3 90 8q38 -7 61 -33.5zM404 781q0 -12 -6 -21t-18 -9q-7 0 -13.5 3t-28.5 32q-20 26 -28 26q-9 0 -24 -23q-18 -29 -27 -37q-6 -4 -13 -4q-12 0 -19 10t-7 23q5 24 35 58
q32 36 55 38q19 -1 49 -28q45 -40 45 -68z" />
    <glyph glyph-name="ccircumflex" unicode="&#x109;" horiz-adv-x="624" 
d="M478 591q23 -25 23 -62q0 -32 -17 -49q-113 -36 -141 -50q-85 -44 -85 -112q0 -40 38 -92q43 -27 83 -27q44 0 96 32q18 8 36 8q30 0 48 -20q15 -18 15 -43v-8q-5 -58 -27 -85.5t-87 -54.5q-44 -18 -90 -18q-34 0 -98 15q-86 32 -95 37q-31 17 -66 57q-61 71 -61 194
q0 40 9 73q60 120 153 179q49 38 115 50q17 3 90 8q38 -7 61 -32zM401 721q0 -12 -6 -21t-18 -9q-7 0 -13.5 3t-28.5 32q-20 26 -28 26q-9 0 -24 -23q-18 -29 -27 -37q-6 -4 -13 -4q-12 0 -19 10t-7 23q5 24 35 58q32 36 55 38q19 -1 49 -28q45 -40 45 -68z" />
    <glyph glyph-name="Cdotaccent" unicode="&#x10a;" horiz-adv-x="627" 
d="M272 937q17 5 39 5q64 0 87 -62q5 -22 5 -40q0 -54 -43 -81q-23 -14 -50 -14q-43 0 -72 29.5t-29 72.5q0 71 63 90zM481 695.5q23 -26.5 23 -64.5q0 -44 -37 -66q-16 -9 -78 -26q-76 -21 -97 -52q-31 -46 -31 -127q0 -76 38 -129q43 -28 83 -28q44 0 96 33q18 9 36 9
q30 0 48 -22q15 -21 15 -47v-6q-5 -61 -26.5 -90t-87.5 -57q-45 -19 -90 -19q-34 0 -98 16q-88 34 -95 38q-30 17 -66 61q-32 39 -50 127q-14 72 -14 139q0 61 12 96q57 120 153 188q57 41 115 52q15 3 90 8q38 -7 61 -33.5z" />
    <glyph glyph-name="cdotaccent" unicode="&#x10b;" horiz-adv-x="624" 
d="M478 591q23 -25 23 -62q0 -32 -17 -49q-113 -36 -141 -50q-85 -44 -85 -112q0 -40 38 -92q43 -27 83 -27q44 0 96 32q18 8 36 8q30 0 48 -20q15 -18 15 -43v-8q-5 -58 -27 -85.5t-87 -54.5q-44 -18 -90 -18q-34 0 -98 15q-86 32 -95 37q-31 17 -66 57q-61 71 -61 194
q0 40 9 73q60 120 153 179q49 38 115 50q17 3 90 8q38 -7 61 -32zM269 847q17 5 39 5q64 0 87 -62q5 -22 5 -40q0 -54 -43 -81q-23 -14 -50 -14q-43 0 -72 29.5t-29 72.5q0 71 63 90z" />
    <glyph glyph-name="Ccaron" unicode="&#x10c;" horiz-adv-x="627" 
d="M481 695.5q23 -26.5 23 -64.5q0 -44 -37 -66q-16 -9 -78 -26q-76 -21 -97 -52q-31 -46 -31 -127q0 -76 38 -129q43 -28 83 -28q44 0 96 33q18 9 36 9q30 0 48 -22q15 -21 15 -47v-6q-5 -61 -26.5 -90t-87.5 -57q-45 -19 -90 -19q-34 0 -98 16q-88 34 -95 38
q-30 17 -66 61q-32 39 -50 127q-14 72 -14 139q0 61 12 96q57 120 153 188q57 41 115 52q15 3 90 8q38 -7 61 -33.5zM359 776q-30 -27 -49 -28q-23 2 -55 38q-30 34 -35 58q0 13 7 23t19 10q7 0 13 -4q9 -8 27 -37q15 -23 24 -23q8 0 28 26q22 29 28.5 32t13.5 3q12 0 18 -9
t6 -21q0 -28 -45 -68z" />
    <glyph glyph-name="ccaron" unicode="&#x10d;" horiz-adv-x="624" 
d="M478 591q23 -25 23 -62q0 -32 -17 -49q-113 -36 -141 -50q-85 -44 -85 -112q0 -40 38 -92q43 -27 83 -27q44 0 96 32q18 8 36 8q30 0 48 -20q15 -18 15 -43v-8q-5 -58 -27 -85.5t-87 -54.5q-44 -18 -90 -18q-34 0 -98 15q-86 32 -95 37q-31 17 -66 57q-61 71 -61 194
q0 40 9 73q60 120 153 179q49 38 115 50q17 3 90 8q38 -7 61 -32zM356 716q-30 -27 -49 -28q-23 2 -55 38q-30 34 -35 58q0 13 7 23t19 10q7 0 13 -4q9 -8 27 -37q15 -23 24 -23q8 0 28 26q22 29 28.5 32t13.5 3q12 0 18 -9t6 -21q0 -28 -45 -68z" />
    <glyph glyph-name="Dcaron" unicode="&#x10e;" horiz-adv-x="602" 
d="M134 711q46 12 94 12q128 0 216 -63q36 -26 70 -122q38 -107 38 -216q0 -146 -73 -243q-30 -40 -107 -62q-61 -17 -125 -17q-115 0 -161 47q-36 51 -36 414q0 171 10.5 202.5t73.5 47.5zM250 301q10 -26 46 -26q34 0 52 28q15 24 15 60q0 100 -95 100q-28 0 -28 -31
q0 -12 2 -36t2 -36q0 -44 6 -59zM333 776q-30 -27 -49 -28q-23 2 -55 38q-30 34 -35 58q0 13 7 23t19 10q7 0 13 -4q9 -8 27 -37q15 -23 24 -23q8 0 28 26q22 29 28.5 32t13.5 3q12 0 18 -9t6 -21q0 -28 -45 -68z" />
    <glyph glyph-name="dcaron" unicode="&#x10f;" horiz-adv-x="788" 
d="M532 690q10 -21 19 -121t9 -222q0 -205 -32 -276q-17 -38 -91 -56q-52 -13 -111 -13q-67 0 -126 16q-64 17 -87 45q-63 75 -63 172t66 156q58 33 111 33q29 0 71.5 -17t48.5 -17q9 0 14 7q17 26 17 76q0 35 -14.5 103t-14.5 102q0 9 2 14q10 37 90 37q77 0 91 -39z
M365 214q0 53 -40 59q-26 4 -38 4q-42 0 -52 -40q-3 -12 -3 -20q0 -38 67 -50q5 -1 10 -1q17 0 34 11q22 14 22 37zM725 692q13 -23 13 -54q0 -24 -8 -53q-16 -58 -56 -81q-17 -10 -34 -10q-8 0 -16 3q-25 6 -39 31q-15 25 -15 55q0 17 5 35q18 68 67 96q16 10 31 10
q8 0 15 -2q23 -7 37 -30z" />
    <glyph glyph-name="Emacron" unicode="&#x112;" horiz-adv-x="608" 
d="M102 670q39 53 187 53q109 0 195 -36q32 -41 32 -78q0 -30 -23 -48q-7 -5 -20 -5q-15 0 -50.5 6.5t-53.5 6.5q-38 0 -66 -17q-32 -20 -32 -56q0 -32 22 -44q20 -15 91 -19q78 -5 94 -10q25 -16 25 -57q0 -31 -22 -44q-16 -3 -42 -3h-26l-29 1h2q-75 0 -96 -33
q5 -113 212 -113h18q38 -11 38 -68q0 -56 -49 -79q-54 -25 -175 -25q-197 0 -246 88q-38 68 -38 277q0 232 52 303zM124 863q52 8 160 8q129 0 194 -8q35 -4 35 -45q0 -33 -27 -51q-85 -7 -221 -7q-95 0 -147 5q-24 10 -24 46q0 41 30 52z" />
    <glyph glyph-name="emacron" unicode="&#x113;" horiz-adv-x="624" 
d="M136 813q52 8 160 8q129 0 194 -8q35 -4 35 -45q0 -33 -27 -51q-85 -7 -221 -7q-95 0 -147 5q-24 10 -24 46q0 41 30 52zM377 626q168 0 168 -199q-23 -136 -141 -136q-21 0 -62.5 8.5t-60.5 8.5q-7 0 -10 -2q-17 -10 -17 -29q0 -17 12.5 -31.5t29.5 -19.5q78 -21 95 -21
q43 0 84 26q18 8 36 8q30 0 48 -20q15 -18 15 -43v-8q-5 -58 -27 -85.5t-87 -54.5q-44 -18 -90 -18q-34 0 -98 15q-86 32 -95 37q-31 17 -66 57q-61 71 -61 194q0 30 9 73q41 198 183 230q57 6 93 7q40 3 42 3zM299 439.5q16 -10.5 35 -10.5q18 0 34 10.5t16 28.5t-16 28.5
t-34 10.5q-19 0 -35 -10.5t-16 -28.5t16 -28.5z" />
    <glyph glyph-name="Ebreve" unicode="&#x114;" horiz-adv-x="608" 
d="M102 670q39 53 187 53q109 0 195 -36q32 -41 32 -78q0 -30 -23 -48q-7 -5 -20 -5q-15 0 -50.5 6.5t-53.5 6.5q-38 0 -66 -17q-32 -20 -32 -56q0 -32 22 -44q20 -15 91 -19q78 -5 94 -10q25 -16 25 -57q0 -31 -22 -44q-16 -3 -42 -3h-26l-29 1h2q-75 0 -96 -33
q5 -113 212 -113h18q38 -11 38 -68q0 -56 -49 -79q-54 -25 -175 -25q-197 0 -246 88q-38 68 -38 277q0 232 52 303zM389 844q0 12 -6 21t-18 9q-7 0 -13.5 -3t-28.5 -32q-20 -26 -28 -26q-9 0 -24 23q-18 29 -27 37q-6 4 -13 4q-12 0 -19 -10t-7 -23q5 -24 35 -58
q32 -36 55 -38q19 1 49 28q45 40 45 68z" />
    <glyph glyph-name="ebreve" unicode="&#x115;" horiz-adv-x="624" 
d="M377 626q168 0 168 -199q-23 -136 -141 -136q-21 0 -62.5 8.5t-60.5 8.5q-7 0 -10 -2q-17 -10 -17 -29q0 -17 12.5 -31.5t29.5 -19.5q78 -21 95 -21q43 0 84 26q18 8 36 8q30 0 48 -20q15 -18 15 -43v-8q-5 -58 -27 -85.5t-87 -54.5q-44 -18 -90 -18q-34 0 -98 15
q-86 32 -95 37q-31 17 -66 57q-61 71 -61 194q0 30 9 73q41 198 183 230q57 6 93 7q40 3 42 3zM299 439.5q16 -10.5 35 -10.5q18 0 34 10.5t16 28.5t-16 28.5t-34 10.5q-19 0 -35 -10.5t-16 -28.5t16 -28.5zM356 716q-30 -27 -49 -28q-23 2 -55 38q-30 34 -35 58q0 13 7 23
t19 10q7 0 13 -4q9 -8 27 -37q15 -23 24 -23q8 0 28 26q22 29 28.5 32t13.5 3q12 0 18 -9t6 -21q0 -28 -45 -68z" />
    <glyph glyph-name="Edotaccent" unicode="&#x116;" horiz-adv-x="608" 
d="M102 670q39 53 187 53q109 0 195 -36q32 -41 32 -78q0 -30 -23 -48q-7 -5 -20 -5q-15 0 -50.5 6.5t-53.5 6.5q-38 0 -66 -17q-32 -20 -32 -56q0 -32 22 -44q20 -15 91 -19q78 -5 94 -10q25 -16 25 -57q0 -31 -22 -44q-16 -3 -42 -3h-26l-29 1h2q-75 0 -96 -33
q5 -113 212 -113h18q38 -11 38 -68q0 -56 -49 -79q-54 -25 -175 -25q-197 0 -246 88q-38 68 -38 277q0 232 52 303zM257 937q17 5 39 5q64 0 87 -62q5 -22 5 -40q0 -54 -43 -81q-23 -14 -50 -14q-43 0 -72 29.5t-29 72.5q0 71 63 90z" />
    <glyph glyph-name="edotaccent" unicode="&#x117;" horiz-adv-x="624" 
d="M377 626q168 0 168 -199q-23 -136 -141 -136q-21 0 -62.5 8.5t-60.5 8.5q-7 0 -10 -2q-17 -10 -17 -29q0 -17 12.5 -31.5t29.5 -19.5q78 -21 95 -21q43 0 84 26q18 8 36 8q30 0 48 -20q15 -18 15 -43v-8q-5 -58 -27 -85.5t-87 -54.5q-44 -18 -90 -18q-34 0 -98 15
q-86 32 -95 37q-31 17 -66 57q-61 71 -61 194q0 30 9 73q41 198 183 230q57 6 93 7q40 3 42 3zM299 439.5q16 -10.5 35 -10.5q18 0 34 10.5t16 28.5t-16 28.5t-34 10.5q-19 0 -35 -10.5t-16 -28.5t16 -28.5zM269 847q17 5 39 5q64 0 87 -62q5 -22 5 -40q0 -54 -43 -81
q-23 -14 -50 -14q-43 0 -72 29.5t-29 72.5q0 71 63 90z" />
    <glyph glyph-name="Eogonek" unicode="&#x118;" horiz-adv-x="608" 
d="M222 11q-101 19 -134 79q-38 68 -38 277q0 232 52 303q39 53 187 53q109 0 195 -36q32 -41 32 -78q0 -30 -23 -48q-7 -5 -20 -5q-15 0 -50.5 6.5t-53.5 6.5q-38 0 -66 -17q-32 -20 -32 -56q0 -32 22 -44q20 -15 91 -19q78 -5 94 -10q25 -16 25 -57q0 -31 -22 -44
q-16 -3 -42 -3h-26l-29 1q-73 0 -94 -33q5 -113 212 -113h18q38 -11 38 -68q0 -56 -49 -79q-54 -25 -175 -25h-3q-7 -5 -21 -13q-28 -17 -28 -34q0 -10 8 -23q13 -21 38 -21q36 0 65 36q41 0 41 -25q0 -4 -2 -10q-13 -37 -45 -56q-30 -17 -71 -17q-36 0 -68 15
q-39 18 -45 50q-5 16 -5 35q0 31 13 56q5 9 11 16z" />
    <glyph glyph-name="eogonek" unicode="&#x119;" horiz-adv-x="624" 
d="M299 439.5q16 -10.5 35 -10.5q18 0 34 10.5t16 28.5t-16 28.5t-34 10.5q-19 0 -35 -10.5t-16 -28.5t16 -28.5zM354 11l-3 -3q-4 -4 -29 -19q-28 -17 -28 -34q0 -10 8 -23q13 -21 38 -21q36 0 65 36q41 0 41 -25q0 -4 -2 -10q-13 -37 -45 -56q-30 -17 -71 -17
q-36 0 -68 15q-39 18 -45 50q-5 16 -5 35q0 31 13 56q13 23 33 36q-71 26 -79 31q-31 17 -66 57q-61 71 -61 194q0 30 9 73q41 198 183 230q57 6 93 7q40 3 42 3q168 0 168 -199q-23 -136 -141 -136q-21 0 -62.5 8.5t-60.5 8.5q-7 0 -10 -2q-17 -10 -17 -29
q0 -17 12.5 -31.5t29.5 -19.5q78 -21 95 -21q43 0 84 26q18 8 36 8q30 0 48 -20q15 -18 15 -43v-8q-5 -58 -27 -85.5t-87 -54.5q-44 -18 -90 -18q-7 0 -16 1z" />
    <glyph glyph-name="Ecaron" unicode="&#x11a;" horiz-adv-x="608" 
d="M102 670q39 53 187 53q109 0 195 -36q32 -41 32 -78q0 -30 -23 -48q-7 -5 -20 -5q-15 0 -50.5 6.5t-53.5 6.5q-38 0 -66 -17q-32 -20 -32 -56q0 -32 22 -44q20 -15 91 -19q78 -5 94 -10q25 -16 25 -57q0 -31 -22 -44q-16 -3 -42 -3h-26l-29 1h2q-75 0 -96 -33
q5 -113 212 -113h18q38 -11 38 -68q0 -56 -49 -79q-54 -25 -175 -25q-197 0 -246 88q-38 68 -38 277q0 232 52 303zM389 844q0 12 -6 21t-18 9q-7 0 -13.5 -3t-28.5 -32q-20 -26 -28 -26q-9 0 -24 23q-18 29 -27 37q-6 4 -13 4q-12 0 -19 -10t-7 -23q5 -24 35 -58
q32 -36 55 -38q19 1 49 28q45 40 45 68z" />
    <glyph glyph-name="ecaron" unicode="&#x11b;" horiz-adv-x="624" 
d="M377 626q168 0 168 -199q-23 -136 -141 -136q-21 0 -62.5 8.5t-60.5 8.5q-7 0 -10 -2q-17 -10 -17 -29q0 -17 12.5 -31.5t29.5 -19.5q78 -21 95 -21q43 0 84 26q18 8 36 8q30 0 48 -20q15 -18 15 -43v-8q-5 -58 -27 -85.5t-87 -54.5q-44 -18 -90 -18q-34 0 -98 15
q-86 32 -95 37q-31 17 -66 57q-61 71 -61 194q0 30 9 73q41 198 183 230q57 6 93 7q40 3 42 3zM299 439.5q16 -10.5 35 -10.5q18 0 34 10.5t16 28.5t-16 28.5t-34 10.5q-19 0 -35 -10.5t-16 -28.5t16 -28.5zM356 716q-30 -27 -49 -28q-23 2 -55 38q-30 34 -35 58q0 13 7 23
t19 10q7 0 13 -4q9 -8 27 -37q15 -23 24 -23q8 0 28 26q22 29 28.5 32t13.5 3q12 0 18 -9t6 -21q0 -28 -45 -68z" />
    <glyph glyph-name="Gcircumflex" unicode="&#x11c;" horiz-adv-x="613" 
d="M490 634q0 -66 -86 -76q-58 -7 -86 -35t-41 -86q-6 -53 -6 -87q0 -48 11 -69q34 -65 76 -65q23 0 39 19t16 43q0 14 -6 26q-46 40 -46 80v5q18 30 32 34q3 1 51 1q41 -5 65 -33l42 -65q12 -38 12 -78q0 -92 -54 -161t-143 -87q-107 0 -182 49q-42 27 -99 93
q-35 68 -35 184q0 68 12 154q74 249 290 249q138 0 138 -95zM390 821q0 -12 -6 -21t-18 -9q-7 0 -13.5 3t-28.5 32q-20 26 -28 26q-9 0 -24 -23q-18 -29 -27 -37q-6 -4 -13 -4q-12 0 -19 10t-7 23q5 24 35 58q32 36 55 38q19 -1 49 -28q45 -40 45 -68z" />
    <glyph glyph-name="gcircumflex" unicode="&#x11d;" horiz-adv-x="635" 
d="M70 5q-7 10 -20 60q5 26 28 46t50 20q16 0 33 -7q46 -35 99 -35q49 0 93 29q48 33 48 80q0 19 -11 34q-5 7 -15 7q-7 0 -55 -17.5t-80 -17.5q-55 0 -113 33q-66 59 -66 156q0 95 63 172q53 64 185 64q60 0 116 -15q69 -19 101 -54t47 -124q12 -66 12 -134
q0 -164 -61 -275q-74 -134 -219 -134q-62 0 -136 25q-77 53 -99 87zM364 461q-17 11 -34 11q-5 0 -10 -1q-67 -12 -67 -50q0 -8 3 -20q10 -40 52 -40q12 0 38 4q40 6 40 59q0 23 -22 37zM408 751q0 -12 -6 -21t-18 -9q-7 0 -13.5 3t-28.5 32q-20 26 -28 26q-9 0 -24 -23
q-18 -29 -27 -37q-6 -4 -13 -4q-12 0 -19 10t-7 23q5 24 35 58q32 36 55 38q19 -1 49 -28q45 -40 45 -68z" />
    <glyph glyph-name="Gbreve" unicode="&#x11e;" horiz-adv-x="613" 
d="M490 634q0 -66 -86 -76q-58 -7 -86 -35t-41 -86q-6 -53 -6 -87q0 -48 11 -69q34 -65 76 -65q23 0 39 19t16 43q0 14 -6 26q-46 40 -46 80v5q18 30 32 34q3 1 51 1q41 -5 65 -33l42 -65q12 -38 12 -78q0 -92 -54 -161t-143 -87q-107 0 -182 49q-42 27 -99 93
q-35 68 -35 184q0 68 12 154q74 249 290 249q138 0 138 -95zM345 776q-30 -27 -49 -28q-23 2 -55 38q-30 34 -35 58q0 13 7 23t19 10q7 0 13 -4q9 -8 27 -37q15 -23 24 -23q8 0 28 26q22 29 28.5 32t13.5 3q12 0 18 -9t6 -21q0 -28 -45 -68z" />
    <glyph glyph-name="gbreve" unicode="&#x11f;" horiz-adv-x="635" 
d="M70 5q-7 10 -20 60q5 26 28 46t50 20q16 0 33 -7q46 -35 99 -35q49 0 93 29q48 33 48 80q0 19 -11 34q-5 7 -15 7q-7 0 -55 -17.5t-80 -17.5q-55 0 -113 33q-66 59 -66 156q0 95 63 172q53 64 185 64q60 0 116 -15q69 -19 101 -54t47 -124q12 -66 12 -134
q0 -164 -61 -275q-74 -134 -219 -134q-62 0 -136 25q-77 53 -99 87zM364 461q-17 11 -34 11q-5 0 -10 -1q-67 -12 -67 -50q0 -8 3 -20q10 -40 52 -40q12 0 38 4q40 6 40 59q0 23 -22 37zM363 716q-30 -27 -49 -28q-23 2 -55 38q-30 34 -35 58q0 13 7 23t19 10q7 0 13 -4
q9 -8 27 -37q15 -23 24 -23q8 0 28 26q22 29 28.5 32t13.5 3q12 0 18 -9t6 -21q0 -28 -45 -68z" />
    <glyph glyph-name="Itilde" unicode="&#x128;" horiz-adv-x="321" 
d="M70 685q18 33 88 33q76 0 97 -37q16 -29 16 -337q0 -272 -13 -314q-14 -33 -97 -33q-76 0 -89 30q-22 50 -22 356q0 275 20 302z" />
    <glyph glyph-name="itilde" unicode="&#x129;" horiz-adv-x="323" 
d="M72 425q18 33 88 33q76 0 97 -37q16 -29 16 -199q0 -150 -13 -192q-14 -33 -97 -33q-76 0 -89 30q-22 50 -22 218q0 153 20 180zM123 531q-7 -2 -14 -9q-3 -4 -8 -10q-13 -15 -27 -15q-12 0 -18 8.5t-6 20.5q0 24 25 53q7 8 21.5 15.5t24.5 7.5q27 0 38 -9q2 -2 12 -17
q6 -9 20 -10q9 0 17 11q5 8 12 17q9 8 20 8q13 0 21.5 -10t8.5 -23t-9 -26q-13 -22 -26 -31q-18 -14 -45 -15h-4q-17 0 -29 8q-3 2 -17 18q-7 8 -15 8h-2z" />
    <glyph glyph-name="Imacron" unicode="&#x12a;" horiz-adv-x="519" 
d="M175 685q18 33 88 33q76 0 97 -37q16 -29 16 -337q0 -272 -13 -314q-14 -33 -97 -33q-76 0 -89 30q-22 50 -22 356q0 275 20 302zM80 863q52 8 160 8q129 0 194 -8q35 -4 35 -45q0 -33 -27 -51q-85 -7 -221 -7q-95 0 -147 5q-24 10 -24 46q0 41 30 52z" />
    <glyph glyph-name="imacron" unicode="&#x12b;" horiz-adv-x="519" 
d="M172 425q18 33 88 33q76 0 97 -37q16 -29 16 -199q0 -150 -13 -192q-14 -33 -97 -33q-76 0 -89 30q-22 50 -22 218q0 153 20 180zM80 601q52 8 160 8q129 0 194 -8q35 -4 35 -45q0 -33 -27 -51q-85 -7 -221 -7q-95 0 -147 5q-24 10 -24 46q0 41 30 52z" />
    <glyph glyph-name="Ibreve" unicode="&#x12c;" horiz-adv-x="321" 
d="M70 685q18 33 88 33q76 0 97 -37q16 -29 16 -337q0 -272 -13 -314q-14 -33 -97 -33q-76 0 -89 30q-22 50 -22 356q0 275 20 302zM205 776q-30 -27 -49 -28q-23 2 -55 38q-30 34 -35 58q0 13 7 23t19 10q7 0 13 -4q9 -8 27 -37q15 -23 24 -23q8 0 28 26q22 29 28.5 32
t13.5 3q12 0 18 -9t6 -21q0 -28 -45 -68z" />
    <glyph glyph-name="ibreve" unicode="&#x12d;" horiz-adv-x="321" 
d="M70 425q18 33 88 33q76 0 97 -37q16 -29 16 -199q0 -150 -13 -192q-14 -33 -97 -33q-76 0 -89 30q-22 50 -22 218q0 153 20 180zM205 526q-30 -27 -49 -28q-23 2 -55 38q-30 34 -35 58q0 13 7 23t19 10q7 0 13 -4q9 -8 27 -37q15 -23 24 -23q8 0 28 26q22 29 28.5 32
t13.5 3q12 0 18 -9t6 -21q0 -28 -45 -68z" />
    <glyph glyph-name="Idotaccent" unicode="&#x130;" horiz-adv-x="321" 
d="M70 685q18 33 88 33q76 0 97 -37q16 -29 16 -337q0 -272 -13 -314q-14 -33 -97 -33q-76 0 -89 30q-22 50 -22 356q0 275 20 302zM108 775q-5 13 -5 26q0 35 36 51q12 6 23 6q29 0 46 -28q9 -13 9 -28q0 -25 -17 -42t-42 -17q-38 0 -50 32z" />
    <glyph glyph-name="dotlessi" unicode="&#x131;" horiz-adv-x="321" 
d="M70 425q18 33 88 33q76 0 97 -37q16 -29 16 -199q0 -150 -13 -192q-14 -33 -97 -33q-76 0 -89 30q-22 50 -22 218q0 153 20 180z" />
    <glyph glyph-name="Lacute" unicode="&#x139;" horiz-adv-x="631" 
d="M69 669q17 50 103 50q84 0 104 -44q8 -29 8 -72q0 -49 -17 -145t-17 -144q0 -22 5 -34q16 -69 119 -69q26 0 81 7q47 6 74 8h4q48 0 48 -85q0 -29 -9 -61q-11 -41 -31 -48q-80 -26 -183 -26q-182 0 -264 70q-44 49 -44 261q0 139 19 332zM309 896q0 -47 -48 -95
q-43 -42 -89 -42q-29 0 -47.5 18t-18.5 47q0 45 37 83q49 50 106 50q27 0 43.5 -17t16.5 -44z" />
    <glyph glyph-name="lacute" unicode="&#x13a;" horiz-adv-x="334" 
d="M70 685q18 33 88 33q76 0 97 -37q16 -29 16 -337q0 -272 -13 -314q-14 -33 -97 -33q-76 0 -89 30q-22 50 -22 356q0 275 20 302zM284 896q0 -47 -48 -95q-43 -42 -89 -42q-29 0 -47.5 18t-18.5 47q0 45 37 83q49 50 106 50q27 0 43.5 -17t16.5 -44z" />
    <glyph glyph-name="lcaron" unicode="&#x13e;" horiz-adv-x="533" 
d="M68 669q18 50 104 50q83 0 103 -44q9 -29 9 -72q0 -49 -17 -145t-17 -144q0 -22 4 -34q-1 -15 -1 -24q0 -65 77 -65h11q60 -2 60 -78q0 -60 -41 -81q-59 -30 -119 -30q-92 0 -148 74q-43 57 -43 264q0 138 18 329zM470 692q13 -23 13 -54q0 -24 -8 -53q-16 -58 -56 -81
q-17 -10 -34 -10q-8 0 -16 3q-25 6 -39 31q-15 25 -15 55q0 17 5 35q18 68 67 96q16 10 31 10q8 0 15 -2q23 -7 37 -30z" />
    <glyph glyph-name="Lslash" unicode="&#x141;" horiz-adv-x="743" 
d="M181 669q17 50 103 50q84 0 104 -44q8 -29 8 -72q0 -49 -17 -145t-17 -144q0 -22 5 -34q16 -69 119 -69q26 0 81 7q47 6 74 8h4q48 0 48 -85q0 -29 -9 -61q-11 -41 -31 -48q-80 -26 -183 -26q-182 0 -264 70q-44 49 -44 261q0 139 19 332zM354 539q17 10 53 10
q40 0 70 -11q32 -11 32 -28v-3q-24 -48 -135 -153q-102 -98 -167 -142q-30 -10 -66 -10q-37 0 -63 10q-28 11 -28 30q0 6 5 14q26 48 148 159q115 104 151 124z" />
    <glyph glyph-name="lslash" unicode="&#x142;" horiz-adv-x="573" 
d="M190 669q18 50 104 50q83 0 103 -44q9 -29 9 -72q0 -49 -17 -145t-17 -144q0 -22 4 -34q-1 -15 -1 -24q0 -65 77 -65h11q60 -2 60 -78q0 -60 -41 -81q-59 -30 -119 -30q-92 0 -148 74q-43 57 -43 264q0 138 18 329zM354 539q17 10 53 10q40 0 70 -11q32 -11 32 -28v-3
q-24 -48 -135 -153q-102 -98 -167 -142q-30 -10 -66 -10q-37 0 -63 10q-28 11 -28 30q0 6 5 14q26 48 148 159q115 104 151 124z" />
    <glyph glyph-name="Nacute" unicode="&#x143;" horiz-adv-x="627" 
d="M164 726q72 0 105 -32q19 -19 39 -97q29 -117 36 -135q22 -62 51 -62h4q18 3 18 35q0 37 -19 109t-19 109q0 23 8 32q11 27 78 27q77 0 95 -32q17 -59 17 -289q0 -263 -17 -342q-8 -38 -72 -38q-35 0 -65 15q-35 17 -43 47l-63 130q-35 70 -64 72q-15 -2 -15 -24
q0 -27 19 -85.5t19 -86.5q0 -18 -8 -26q-17 -47 -96 -47q-32 0 -60 11q-37 13 -42 39q-20 256 -20 410q0 128 12 211q7 49 102 49zM437 896q0 -47 -48 -95q-43 -42 -89 -42q-29 0 -47.5 18t-18.5 47q0 45 37 83q49 50 106 50q27 0 43.5 -17t16.5 -44z" />
    <glyph glyph-name="nacute" unicode="&#x144;" horiz-adv-x="625" 
d="M256 40v-1q0 -38 -88 -38q-90 0 -96 36q-22 130 -22 313q0 186 23 234q14 43 71 43q25 0 45 -10q25 -12 27 -34q0 -13 2 -16q3 -6 15 -7h5q18 0 32 13q19 19 41 28q38 16 77 16q73 0 127 -48q52 -48 52 -118v-3q8 -70 8 -161q0 -179 -24 -260q-15 -28 -88 -28
q-66 0 -74 33q-9 10 -9 65q0 23 1.5 69.5t1.5 69.5q0 151 -44 151h-5l-52 -10q-25 -5 -30 -42q-2 -10 -2 -57q0 17 6 -238zM434 826q0 -47 -48 -95q-43 -42 -89 -42q-29 0 -47.5 18t-18.5 47q0 45 37 83q49 50 106 50q27 0 43.5 -17t16.5 -44z" />
    <glyph glyph-name="Ncommaaccent" unicode="&#x145;" horiz-adv-x="627" 
d="M164 726q72 0 105 -32q19 -19 39 -97q29 -117 36 -135q22 -62 51 -62h4q18 3 18 35q0 37 -19 109t-19 109q0 23 8 32q11 27 78 27q77 0 95 -32q17 -59 17 -289q0 -263 -17 -342q-8 -38 -72 -38q-35 0 -65 15q-35 17 -43 47l-63 130q-35 70 -64 72q-15 -2 -15 -24
q0 -27 19 -85.5t19 -86.5q0 -18 -8 -26q-17 -47 -96 -47q-32 0 -60 11q-37 13 -42 39q-20 256 -20 410q0 128 12 211q7 49 102 49zM212 -78q0 25 41 25q29 -36 65 -36q25 0 38 21q8 13 8 23q0 17 -28 34q-25 15 -29 19q-13 12 -13 30q0 11 4 24l3 6q8 20 29 20q17 0 25 -19
l22 -22q8 -8 17 -12q26 -13 41 -40q13 -25 13 -56q0 -19 -5 -35q-6 -32 -45 -50q-32 -15 -68 -15q-41 0 -71 17q-32 19 -45 56q-2 6 -2 10z" />
    <glyph glyph-name="ncommaaccent" unicode="&#x146;" horiz-adv-x="625" 
d="M256 40v-1q0 -38 -88 -38q-90 0 -96 36q-22 130 -22 313q0 186 23 234q14 43 71 43q25 0 45 -10q25 -12 27 -34q0 -13 2 -16q3 -6 15 -7h5q18 0 32 13q19 19 41 28q38 16 77 16q73 0 127 -48q52 -48 52 -118v-3q8 -70 8 -161q0 -179 -24 -260q-15 -28 -88 -28
q-66 0 -74 33q-9 10 -9 65q0 23 1.5 69.5t1.5 69.5q0 151 -44 151h-5l-52 -10q-25 -5 -30 -42q-2 -10 -2 -57q0 17 6 -238zM211 -88q13 -37 45 -56q30 -17 71 -17q36 0 68 15q39 18 45 50q5 16 5 35q0 31 -13 56q-15 27 -41 40q-9 4 -17 12l-22 22q-8 19 -25 19
q-21 0 -29 -20l-3 -6q-4 -13 -4 -24q0 -18 13 -30q4 -4 29 -19q28 -17 28 -34q0 -10 -8 -23q-13 -21 -38 -21q-36 0 -65 36q-41 0 -41 -25q0 -4 2 -10z" />
    <glyph glyph-name="Ncaron" unicode="&#x147;" horiz-adv-x="627" 
d="M164 726q72 0 105 -32q19 -19 39 -97q29 -117 36 -135q22 -62 51 -62h4q18 3 18 35q0 37 -19 109t-19 109q0 23 8 32q11 27 78 27q77 0 95 -32q17 -59 17 -289q0 -263 -17 -342q-8 -38 -72 -38q-35 0 -65 15q-35 17 -43 47l-63 130q-35 70 -64 72q-15 -2 -15 -24
q0 -27 19 -85.5t19 -86.5q0 -18 -8 -26q-17 -47 -96 -47q-32 0 -60 11q-37 13 -42 39q-20 256 -20 410q0 128 12 211q7 49 102 49zM358 776q-30 -27 -49 -28q-23 2 -55 38q-30 34 -35 58q0 13 7 23t19 10q7 0 13 -4q9 -8 27 -37q15 -23 24 -23q8 0 28 26q22 29 28.5 32
t13.5 3q12 0 18 -9t6 -21q0 -28 -45 -68z" />
    <glyph glyph-name="ncaron" unicode="&#x148;" horiz-adv-x="625" 
d="M256 40v-1q0 -38 -88 -38q-90 0 -96 36q-22 130 -22 313q0 186 23 234q14 43 71 43q25 0 45 -10q25 -12 27 -34q0 -13 2 -16q3 -6 15 -7h5q18 0 32 13q19 19 41 28q38 16 77 16q73 0 127 -48q52 -48 52 -118v-3q8 -70 8 -161q0 -179 -24 -260q-15 -28 -88 -28
q-66 0 -74 33q-9 10 -9 65q0 23 1.5 69.5t1.5 69.5q0 151 -44 151h-5l-52 -10q-25 -5 -30 -42q-2 -10 -2 -57q0 17 6 -238zM355 716q-30 -27 -49 -28q-23 2 -55 38q-30 34 -35 58q0 13 7 23t19 10q7 0 13 -4q9 -8 27 -37q15 -23 24 -23q8 0 28 26q22 29 28.5 32t13.5 3
q12 0 18 -9t6 -21q0 -28 -45 -68z" />
    <glyph glyph-name="Obreve" unicode="&#x14e;" horiz-adv-x="605" 
d="M465 627q66 -83 90 -260v-27q0 -120 -16 -176q-21 -71 -89 -129q-93 -31 -163 -31q-75 0 -137 34q-55 62 -77.5 122.5t-22.5 144.5q0 45 6 102q30 130 52 184q43 105 111 135q165 0 246 -99zM233 338q0 -62 75 -62q49 0 67 35q14 26 14 80q0 37 -33 60q-29 20 -62 20h-9
q-18 -2 -36 -56q-15 -44 -16 -71v-6zM345 776q-30 -27 -49 -28q-23 2 -55 38q-30 34 -35 58q0 13 7 23t19 10q7 0 13 -4q9 -8 27 -37q15 -23 24 -23q8 0 28 26q22 29 28.5 32t13.5 3q12 0 18 -9t6 -21q0 -28 -45 -68z" />
    <glyph glyph-name="obreve" unicode="&#x14f;" horiz-adv-x="605" 
d="M456 548q74 -72 99 -233v-25q0 -103 -15 -149q-20 -60 -90 -111q-93 -27 -162 -27q-75 0 -138 29q-55 55 -77.5 105t-22.5 126q0 38 6 87q31 114 52 159q42 89 111 115q158 0 237 -76zM220 288q0 -55 75 -55q81 0 81 99q0 34 -37 54q-29 15 -60 15h-7q-18 -1 -36 -47
q-15 -38 -16 -62v-4zM348 716q-30 -27 -49 -28q-23 2 -55 38q-30 34 -35 58q0 13 7 23t19 10q7 0 13 -4q9 -8 27 -37q15 -23 24 -23q8 0 28 26q22 29 28.5 32t13.5 3q12 0 18 -9t6 -21q0 -28 -45 -68z" />
    <glyph glyph-name="Ohungarumlaut" unicode="&#x150;" horiz-adv-x="605" 
d="M465 627q66 -83 90 -260v-27q0 -120 -16 -176q-21 -71 -89 -129q-93 -31 -163 -31q-75 0 -137 34q-55 62 -77.5 122.5t-22.5 144.5q0 45 6 102q30 130 52 184q43 105 111 135q165 0 246 -99zM233 338q0 -62 75 -62q49 0 67 35q14 26 14 80q0 37 -33 60q-29 20 -62 20h-9
q-18 -2 -36 -56q-15 -44 -16 -71v-6zM324 896q0 -47 -48 -95q-43 -42 -89 -42q-29 0 -47.5 18t-18.5 47q0 45 37 83q49 50 106 50q27 0 43.5 -17t16.5 -44zM544 896q0 -47 -48 -95q-43 -42 -89 -42q-29 0 -47.5 18t-18.5 47q0 45 37 83q49 50 106 50q27 0 43.5 -17t16.5 -44
z" />
    <glyph glyph-name="ohungarumlaut" unicode="&#x151;" horiz-adv-x="605" 
d="M456 548q74 -72 99 -233v-25q0 -103 -15 -149q-20 -60 -90 -111q-93 -27 -162 -27q-75 0 -138 29q-55 55 -77.5 105t-22.5 126q0 38 6 87q31 114 52 159q42 89 111 115q158 0 237 -76zM220 288q0 -55 75 -55q81 0 81 99q0 34 -37 54q-29 15 -60 15h-7q-18 -1 -36 -47
q-15 -38 -16 -62v-4zM327 816q0 -47 -48 -95q-43 -42 -89 -42q-29 0 -47.5 18t-18.5 47q0 45 37 83q49 50 106 50q27 0 43.5 -17t16.5 -44zM547 816q0 -47 -48 -95q-43 -42 -89 -42q-29 0 -47.5 18t-18.5 47q0 45 37 83q49 50 106 50q27 0 43.5 -17t16.5 -44z" />
    <glyph glyph-name="OE" unicode="&#x152;" horiz-adv-x="959" 
d="M233 338q0 -62 75 -62q49 0 67 35q14 26 14 80q0 37 -33 60q-29 20 -62 20h-9q-18 -2 -36 -56q-15 -44 -16 -71v-6zM442 652q5 10 11 18q39 53 187 53q109 0 195 -36q32 -41 32 -78q0 -30 -23 -48q-7 -5 -20 -5q-15 0 -50.5 6.5t-53.5 6.5q-38 0 -66 -17q-32 -20 -32 -56
q0 -32 22 -44q20 -15 91 -19q78 -5 94 -10q25 -16 25 -57q0 -31 -22 -44q-16 -3 -42 -3h-26l-29 1q-73 0 -94 -33q5 -113 212 -113h18q38 -11 38 -68q0 -56 -49 -79q-54 -25 -175 -25q-151 0 -215 52q-9 -10 -20 -19q-93 -31 -163 -31q-75 0 -137 34q-55 62 -77.5 122.5
t-22.5 144.5q0 45 6 102q30 130 52 184q43 105 111 135q143 0 223 -74z" />
    <glyph glyph-name="oe" unicode="&#x153;" horiz-adv-x="996" 
d="M220 288q0 -55 75 -55q81 0 81 99q0 34 -37 54q-29 15 -60 15h-7q-18 -1 -36 -47q-15 -38 -16 -62v-4zM671 439.5q16 -10.5 35 -10.5q18 0 34 10.5t16 28.5t-16 28.5t-34 10.5q-19 0 -35 -10.5t-16 -28.5t16 -28.5zM512 89q-23 -31 -62 -59q-93 -27 -162 -27
q-75 0 -138 29q-55 55 -77.5 105t-22.5 126q0 38 6 87q31 114 52 159q42 89 111 115q158 0 237 -76q13 -13 25 -29q49 78 133 97q57 6 93 7q40 3 42 3q168 0 168 -199q-23 -136 -141 -136q-21 0 -62.5 8.5t-60.5 8.5q-7 0 -10 -2q-17 -10 -17 -29q0 -17 12.5 -31.5
t29.5 -19.5q78 -21 95 -21q43 0 84 26q18 8 36 8q30 0 48 -20q15 -18 15 -43v-8q-5 -58 -27 -85.5t-87 -54.5q-44 -18 -90 -18q-34 0 -98 15q-86 32 -95 37q-18 10 -37 27z" />
    <glyph glyph-name="Racute" unicode="&#x154;" horiz-adv-x="621" 
d="M74 623q11 48 73 77q55 26 131 26q111 0 193 -52q91 -58 96 -159q1 -17 4 -52v-3q0 -11 -6 -34l-4 -16q-10 -40 -42 -62q-11 -7 -42 -18q-19 -7 -19 -22q0 -5 1 -12q8 -20 40 -59q36 -43 46 -63q24 -46 25 -106v-2q0 -32 -34 -50q-27 -14 -64 -14q-40 0 -65 15
q-20 15 -31 67q-13 63 -23 81q-20 38 -64 38h-6q-23 0 -23 -25q0 -19 10.5 -56.5t10.5 -56.5t-9 -30q-31 -39 -93 -39q-28 0 -56 9q-36 11 -46 30q-27 91 -27 299q0 185 24 289zM242 490q0 -26 14 -44.5t40 -18.5q72 0 72 57v6q-3 48 -70 48q-56 0 -56 -48zM443 896
q0 -47 -48 -95q-43 -42 -89 -42q-29 0 -47.5 18t-18.5 47q0 45 37 83q49 50 106 50q27 0 43.5 -17t16.5 -44z" />
    <glyph glyph-name="racute" unicode="&#x155;" horiz-adv-x="628" 
d="M127 617q28 7 56 7q72 0 76 -34q7 -8 7 -21q0 -6 -1 -12l-6 -31q0 -10 15 -10q3 0 8 1q95 55 193 55q23 0 46 -3h4q26 0 41 -25q12 -21 12 -53q0 -24 -8 -45q-11 -27 -31 -29l-147 -31q-92 -21 -112 -53q-14 -14 -14 -50q0 -32 13 -97t13 -97q0 -31 -13 -42
q-20 -42 -91 -42q-74 0 -90 42q-24 14 -38 162q-10 103 -10 180q0 162 30 201q8 18 47 27zM432 826q0 -47 -48 -95q-43 -42 -89 -42q-29 0 -47.5 18t-18.5 47q0 45 37 83q49 50 106 50q27 0 43.5 -17t16.5 -44z" />
    <glyph glyph-name="Rcommaaccent" unicode="&#x156;" horiz-adv-x="621" 
d="M74 623q11 48 73 77q55 26 131 26q111 0 193 -52q91 -58 96 -159q1 -17 4 -52v-3q0 -11 -6 -34l-4 -16q-10 -40 -42 -62q-11 -7 -42 -18q-19 -7 -19 -22q0 -5 1 -12q8 -20 40 -59q36 -43 46 -63q24 -46 25 -106v-2q0 -32 -34 -50q-27 -14 -64 -14q-40 0 -65 15
q-20 15 -31 67q-13 63 -23 81q-20 38 -64 38h-6q-23 0 -23 -25q0 -19 10.5 -56.5t10.5 -56.5t-9 -30q-31 -39 -93 -39q-28 0 -56 9q-36 11 -46 30q-27 91 -27 299q0 185 24 289zM242 490q0 -26 14 -44.5t40 -18.5q72 0 72 57v6q-3 48 -70 48q-56 0 -56 -48zM220 -88
q13 -37 45 -56q30 -17 71 -17q36 0 68 15q39 18 45 50q5 16 5 35q0 31 -13 56q-15 27 -41 40q-9 4 -17 12l-22 22q-8 19 -25 19q-21 0 -29 -20l-3 -6q-4 -13 -4 -24q0 -18 13 -30q4 -4 29 -19q28 -17 28 -34q0 -10 -8 -23q-13 -21 -38 -21q-36 0 -65 36q-41 0 -41 -25
q0 -4 2 -10z" />
    <glyph glyph-name="rcommaaccent" unicode="&#x157;" horiz-adv-x="628" 
d="M127 617q28 7 56 7q72 0 76 -34q7 -8 7 -21q0 -6 -1 -12l-6 -31q0 -10 15 -10q3 0 8 1q95 55 193 55q23 0 46 -3h4q26 0 41 -25q12 -21 12 -53q0 -24 -8 -45q-11 -27 -31 -29l-147 -31q-92 -21 -112 -53q-14 -14 -14 -50q0 -32 13 -97t13 -97q0 -31 -13 -42
q-20 -42 -91 -42q-74 0 -90 42q-24 14 -38 162q-10 103 -10 180q0 162 30 201q8 18 47 27zM207 -78q0 25 41 25q29 -36 65 -36q25 0 38 21q8 13 8 23q0 17 -28 34q-25 15 -29 19q-13 12 -13 30q0 11 4 24l3 6q8 20 29 20q17 0 25 -19l22 -22q8 -8 17 -12q26 -13 41 -40
q13 -25 13 -56q0 -19 -5 -35q-6 -32 -45 -50q-32 -15 -68 -15q-41 0 -71 17q-32 19 -45 56q-2 6 -2 10z" />
    <glyph glyph-name="Rcaron" unicode="&#x158;" horiz-adv-x="621" 
d="M74 623q11 48 73 77q55 26 131 26q111 0 193 -52q91 -58 96 -159q1 -17 4 -52v-3q0 -11 -6 -34l-4 -16q-10 -40 -42 -62q-11 -7 -42 -18q-19 -7 -19 -22q0 -5 1 -12q8 -20 40 -59q36 -43 46 -63q24 -46 25 -106v-2q0 -32 -34 -50q-27 -14 -64 -14q-40 0 -65 15
q-20 15 -31 67q-13 63 -23 81q-20 38 -64 38h-6q-23 0 -23 -25q0 -19 10.5 -56.5t10.5 -56.5t-9 -30q-31 -39 -93 -39q-28 0 -56 9q-36 11 -46 30q-27 91 -27 299q0 185 24 289zM242 490q0 -26 14 -44.5t40 -18.5q72 0 72 57v6q-3 48 -70 48q-56 0 -56 -48zM364 776
q-30 -27 -49 -28q-23 2 -55 38q-30 34 -35 58q0 13 7 23t19 10q7 0 13 -4q9 -8 27 -37q15 -23 24 -23q8 0 28 26q22 29 28.5 32t13.5 3q12 0 18 -9t6 -21q0 -28 -45 -68z" />
    <glyph glyph-name="rcaron" unicode="&#x159;" horiz-adv-x="628" 
d="M127 617q28 7 56 7q72 0 76 -34q7 -8 7 -21q0 -6 -1 -12l-6 -31q0 -10 15 -10q3 0 8 1q95 55 193 55q23 0 46 -3h4q26 0 41 -25q12 -21 12 -53q0 -24 -8 -45q-11 -27 -31 -29l-147 -31q-92 -21 -112 -53q-14 -14 -14 -50q0 -32 13 -97t13 -97q0 -31 -13 -42
q-20 -42 -91 -42q-74 0 -90 42q-24 14 -38 162q-10 103 -10 180q0 162 30 201q8 18 47 27zM353 716q-30 -27 -49 -28q-23 2 -55 38q-30 34 -35 58q0 13 7 23t19 10q7 0 13 -4q9 -8 27 -37q15 -23 24 -23q8 0 28 26q22 29 28.5 32t13.5 3q12 0 18 -9t6 -21q0 -28 -45 -68z
" />
    <glyph glyph-name="Sacute" unicode="&#x15a;" horiz-adv-x="628" 
d="M565 587q0 -31 -27.5 -62t-58.5 -31q-11 0 -21 6q-53 32 -93 32q-57 0 -57 -47v-6q3 -48 132 -87q75 -22 106.5 -65t31.5 -121q0 -136 -117 -189q-67 -22 -144 -22q-81 0 -148 23q-83 29 -119 86q0 58 6 84q16 67 66 67q20 0 71.5 -29.5t74.5 -29.5t42 19q2 8 2 14
q0 23 -27 35q-17 8 -68 17q-67 12 -106.5 62t-39.5 119q0 110 85 190q83 77 194 77q84 0 132 -32q30 -20 76 -83q7 -12 7 -27zM442 896q0 -47 -48 -95q-43 -42 -89 -42q-29 0 -47.5 18t-18.5 47q0 45 37 83q49 50 106 50q27 0 43.5 -17t16.5 -44z" />
    <glyph glyph-name="sacute" unicode="&#x15b;" horiz-adv-x="628" 
d="M565 503q0 -28 -28.5 -53t-57.5 -25q-11 0 -21 5q-53 27 -93 27q-24 0 -40 -10q-17 -12 -17 -31v-4q3 -41 132 -73q71 -18 102 -50q36 -37 36 -106q0 -118 -117 -159q-62 -22 -151 -22q-75 0 -141 20q-82 26 -119 75q0 53 6 73q16 54 66 54q22 0 72 -25t74 -25
q23 0 42 16q2 7 2 12q0 31 -95 44q-66 9 -107 54q-39 42 -39 97q0 98 93 165q84 60 186 60q84 0 132 -27q30 -17 76 -70q7 -10 7 -22zM442 796q0 -47 -48 -95q-43 -42 -89 -42q-29 0 -47.5 18t-18.5 47q0 45 37 83q49 50 106 50q27 0 43.5 -17t16.5 -44z" />
    <glyph glyph-name="Scircumflex" unicode="&#x15c;" horiz-adv-x="628" 
d="M565 587q0 -31 -27.5 -62t-58.5 -31q-11 0 -21 6q-53 32 -93 32q-57 0 -57 -47v-6q3 -48 132 -87q75 -22 106.5 -65t31.5 -121q0 -136 -117 -189q-67 -22 -144 -22q-81 0 -148 23q-83 29 -119 86q0 58 6 84q16 67 66 67q20 0 71.5 -29.5t74.5 -29.5t42 19q2 8 2 14
q0 23 -27 35q-17 8 -68 17q-67 12 -106.5 62t-39.5 119q0 110 85 190q83 77 194 77q84 0 132 -32q30 -20 76 -83q7 -12 7 -27zM408 791q0 -12 -6 -21t-18 -9q-7 0 -13.5 3t-28.5 32q-20 26 -28 26q-9 0 -24 -23q-18 -29 -27 -37q-6 -4 -13 -4q-12 0 -19 10t-7 23q5 24 35 58
q32 36 55 38q19 -1 49 -28q45 -40 45 -68z" />
    <glyph glyph-name="scircumflex" unicode="&#x15d;" horiz-adv-x="628" 
d="M565 503q0 -28 -28.5 -53t-57.5 -25q-11 0 -21 5q-53 27 -93 27q-24 0 -40 -10q-17 -12 -17 -31v-4q3 -41 132 -73q71 -18 102 -50q36 -37 36 -106q0 -118 -117 -159q-62 -22 -151 -22q-75 0 -141 20q-82 26 -119 75q0 53 6 73q16 54 66 54q22 0 72 -25t74 -25
q23 0 42 16q2 7 2 12q0 31 -95 44q-66 9 -107 54q-39 42 -39 97q0 98 93 165q84 60 186 60q84 0 132 -27q30 -17 76 -70q7 -10 7 -22zM408 731q0 -12 -6 -21t-18 -9q-7 0 -13.5 3t-28.5 32q-20 26 -28 26q-9 0 -24 -23q-18 -29 -27 -37q-6 -4 -13 -4q-12 0 -19 10t-7 23
q5 24 35 58q32 36 55 38q19 -1 49 -28q45 -40 45 -68z" />
    <glyph glyph-name="Scedilla" unicode="&#x15e;" horiz-adv-x="628" 
d="M558 614q-46 63 -76 83q-48 32 -132 32q-111 0 -194 -77q-85 -80 -85 -190q0 -69 39.5 -119t106.5 -62q51 -9 68 -17q27 -12 27 -35q0 -6 -2 -14q-19 -19 -42 -19t-74.5 29.5t-71.5 29.5q-50 0 -66 -67q-6 -26 -6 -84q36 -57 119 -86q67 -23 148 -23q77 0 144 22
q117 53 117 189q0 78 -31.5 121t-106.5 65q-129 39 -132 87v6q0 47 57 47q40 0 93 -32q10 -6 21 -6q31 0 58.5 31t27.5 62q0 15 -7 27zM219 -88q13 -37 45 -56q30 -17 71 -17q36 0 68 15q39 18 45 50q5 16 5 35q0 31 -13 56q-15 27 -41 40q-9 4 -17 12l-22 22q-8 19 -25 19
q-21 0 -29 -20l-3 -6q-4 -13 -4 -24q0 -18 13 -30q4 -4 29 -19q28 -17 28 -34q0 -10 -8 -23q-13 -21 -38 -21q-36 0 -65 36q-41 0 -41 -25q0 -4 2 -10z" />
    <glyph glyph-name="scedilla" unicode="&#x15f;" horiz-adv-x="628" 
d="M558 525q-46 53 -76 70q-48 27 -132 27q-102 0 -186 -60q-93 -67 -93 -165q0 -55 39 -97q41 -45 107 -54q95 -13 95 -44q0 -5 -2 -12q-19 -16 -42 -16q-24 0 -74 25t-72 25q-50 0 -66 -54q-6 -20 -6 -73q37 -49 119 -75q66 -20 141 -20q89 0 151 22q117 41 117 159
q0 69 -36 106q-31 32 -102 50q-129 32 -132 73v4q0 19 17 31q16 10 40 10q40 0 93 -27q10 -5 21 -5q29 0 57.5 25t28.5 53q0 12 -7 22zM219 -88q13 -37 45 -56q30 -17 71 -17q36 0 68 15q39 18 45 50q5 16 5 35q0 31 -13 56q-15 27 -41 40q-9 4 -17 12l-22 22q-8 19 -25 19
q-21 0 -29 -20l-3 -6q-4 -13 -4 -24q0 -18 13 -30q4 -4 29 -19q28 -17 28 -34q0 -10 -8 -23q-13 -21 -38 -21q-36 0 -65 36q-41 0 -41 -25q0 -4 2 -10z" />
    <glyph glyph-name="Scaron" unicode="&#x160;" horiz-adv-x="628" 
d="M565 587q0 -31 -27.5 -62t-58.5 -31q-11 0 -21 6q-53 32 -93 32q-57 0 -57 -47v-6q3 -48 132 -87q75 -22 106.5 -65t31.5 -121q0 -136 -117 -189q-67 -22 -144 -22q-81 0 -148 23q-83 29 -119 86q0 58 6 84q16 67 66 67q20 0 71.5 -29.5t74.5 -29.5t42 19q2 8 2 14
q0 23 -27 35q-17 8 -68 17q-67 12 -106.5 62t-39.5 119q0 110 85 190q83 77 194 77q84 0 132 -32q30 -20 76 -83q7 -12 7 -27zM363 776q-30 -27 -49 -28q-23 2 -55 38q-30 34 -35 58q0 13 7 23t19 10q7 0 13 -4q9 -8 27 -37q15 -23 24 -23q8 0 28 26q22 29 28.5 32t13.5 3
q12 0 18 -9t6 -21q0 -28 -45 -68z" />
    <glyph glyph-name="scaron" unicode="&#x161;" horiz-adv-x="628" 
d="M565 503q0 -28 -28.5 -53t-57.5 -25q-11 0 -21 5q-53 27 -93 27q-24 0 -40 -10q-17 -12 -17 -31v-4q3 -41 132 -73q71 -18 102 -50q36 -37 36 -106q0 -118 -117 -159q-62 -22 -151 -22q-75 0 -141 20q-82 26 -119 75q0 53 6 73q16 54 66 54q22 0 72 -25t74 -25
q23 0 42 16q2 7 2 12q0 31 -95 44q-66 9 -107 54q-39 42 -39 97q0 98 93 165q84 60 186 60q84 0 132 -27q30 -17 76 -70q7 -10 7 -22zM363 716q-30 -27 -49 -28q-23 2 -55 38q-30 34 -35 58q0 13 7 23t19 10q7 0 13 -4q9 -8 27 -37q15 -23 24 -23q8 0 28 26q22 29 28.5 32
t13.5 3q12 0 18 -9t6 -21q0 -28 -45 -68z" />
    <glyph glyph-name="Tcommaaccent" unicode="&#x162;" horiz-adv-x="639" 
d="M83 712q83 15 230 15q135 0 241 -15q35 -16 35 -99q0 -75 -29 -90q-19 -24 -49 -24q-15 0 -44 9t-42 9q-15 0 -22 -11q-4 -6 -4 -27q0 -64 16.5 -192t16.5 -192q0 -54 -12 -63q-39 -30 -111 -30q-69 0 -87 39q-11 11 -11 59q0 63 19.5 188.5t19.5 188.5q0 20 -4 23
q-7 15 -25 15q-14 0 -46 -8.5t-49 -8.5q-24 0 -43 10q-33 17 -33 101q0 83 33 103zM216 -78q0 25 41 25q29 -36 65 -36q25 0 38 21q8 13 8 23q0 17 -28 34q-25 15 -29 19q-13 12 -13 30q0 11 4 24l3 6q8 20 29 20q17 0 25 -19l22 -22q8 -8 17 -12q26 -13 41 -40
q13 -25 13 -56q0 -19 -5 -35q-6 -32 -45 -50q-32 -15 -68 -15q-41 0 -71 17q-32 19 -45 56q-2 6 -2 10z" />
    <glyph glyph-name="tcommaaccent" unicode="&#x163;" horiz-adv-x="634" 
d="M87 426q8 -3 17 -3q12 0 36.5 6.5t36.5 6.5q19 0 37 -10q8 -4 8 -30q0 -37 -9.5 -111t-9.5 -111q0 -61 16 -91q42 -79 142 -79q81 0 155 40q68 37 68 99q0 61 -53 83q-13 3 -24 3q-22 0 -46.5 -16.5t-35.5 -16.5q-8 0 -19 4q-26 10 -26 106q0 97 18 117q6 11 33 11
q16 0 40 -4q28 -4 48 -4q29 0 40 9q22 13 22 65q0 23 -6 49q-7 36 -21 42q-12 6 -35 6q-19 0 -46 -4q-17 -2 -31 -2q-37 0 -37 19v-7q2 0 5 30q4 37 4 54v6q-1 21 -41 32q-27 7 -56 7q-83 0 -86 -34v-9q0 -27 9 -68q0 -8 -12 -26q-7 -6 -23 -6q-15 0 -43.5 4.5t-43.5 4.5
q-19 0 -31 -6q-37 -10 -37 -84t37 -82zM216 -88q13 -37 45 -56q30 -17 71 -17q36 0 68 15q39 18 45 50q5 16 5 35q0 31 -13 56q-15 27 -41 40q-9 4 -17 12l-22 22q-8 19 -25 19q-21 0 -29 -20l-3 -6q-4 -13 -4 -24q0 -18 13 -30q4 -4 29 -19q28 -17 28 -34q0 -10 -8 -23
q-13 -21 -38 -21q-36 0 -65 36q-41 0 -41 -25q0 -4 2 -10z" />
    <glyph glyph-name="Tcaron" unicode="&#x164;" horiz-adv-x="639" 
d="M83 712q83 15 230 15q135 0 241 -15q35 -16 35 -99q0 -75 -29 -90q-19 -24 -49 -24q-15 0 -44 9t-42 9q-15 0 -22 -11q-4 -6 -4 -27q0 -64 16.5 -192t16.5 -192q0 -54 -12 -63q-39 -30 -111 -30q-69 0 -87 39q-11 11 -11 59q0 63 19.5 188.5t19.5 188.5q0 20 -4 23
q-7 15 -25 15q-14 0 -46 -8.5t-49 -8.5q-24 0 -43 10q-33 17 -33 101q0 83 33 103zM362 776q-30 -27 -49 -28q-23 2 -55 38q-30 34 -35 58q0 13 7 23t19 10q7 0 13 -4q9 -8 27 -37q15 -23 24 -23q8 0 28 26q22 29 28.5 32t13.5 3q12 0 18 -9t6 -21q0 -28 -45 -68z" />
    <glyph glyph-name="tcaron" unicode="&#x165;" horiz-adv-x="796" 
d="M87 426q8 -3 17 -3q12 0 36.5 6.5t36.5 6.5q19 0 37 -10q8 -4 8 -30q0 -37 -9.5 -111t-9.5 -111q0 -61 16 -91q42 -79 142 -79q81 0 155 40q68 37 68 99q0 61 -53 83q-13 3 -24 3q-22 0 -46.5 -16.5t-35.5 -16.5q-8 0 -19 4q-26 10 -26 106q0 97 18 117q6 11 33 11
q16 0 40 -4q28 -4 48 -4q29 0 40 9q22 13 22 65q0 23 -6 49q-7 36 -21 42q-12 6 -35 6q-19 0 -46 -4q-17 -2 -31 -2q-37 0 -37 19v-7q2 0 5 30q4 37 4 54v6q-1 21 -41 32q-27 7 -56 7q-83 0 -86 -34v-9q0 -27 9 -68q0 -8 -12 -26q-7 -6 -23 -6q-15 0 -43.5 4.5t-43.5 4.5
q-19 0 -31 -6q-37 -10 -37 -84t37 -82zM733 692q13 -23 13 -54q0 -24 -8 -53q-16 -58 -56 -81q-17 -10 -34 -10q-8 0 -16 3q-25 6 -39 31q-15 25 -15 55q0 17 5 35q18 68 67 96q16 10 31 10q8 0 15 -2q23 -7 37 -30z" />
    <glyph glyph-name="Utilde" unicode="&#x168;" horiz-adv-x="635" 
d="M301 656q-6 -65 -17 -143q-13 -91 -13 -136q0 -92 54 -94h2q52 0 52 100q0 50 -13 139q-15 103 -17 131v6q0 33 31 51q28 16 67 16q43 0 76 -20q37 -22 46 -62q16 -74 16 -172q0 -103 -23 -227q-30 -167 -83 -198q-25 -46 -158 -46q-142 0 -161 49q-61 52 -89 183
q-21 96 -21 209q0 99 20 196q10 46 45 68t81 22q35 0 66 -13q40 -17 40 -48q0 -3 -1 -11zM279 781q-7 -2 -14 -9q-3 -4 -8 -10q-13 -15 -27 -15q-12 0 -18 8.5t-6 20.5q0 24 25 53q7 8 21.5 15.5t24.5 7.5q27 0 38 -9q2 -2 12 -17q6 -9 20 -10q9 0 17 11q5 8 12 17q9 8 20 8
q13 0 21.5 -10t8.5 -23t-9 -26q-13 -22 -26 -31q-18 -14 -45 -15h-4q-17 0 -29 8q-3 2 -17 18q-7 8 -15 8h-2z" />
    <glyph glyph-name="utilde" unicode="&#x169;" horiz-adv-x="635" 
d="M301 563q-6 -55 -17 -123q-13 -78 -13 -117q0 -79 54 -81h2q52 0 52 86q0 43 -13 120q-15 90 -17 112v5q0 29 33 45q28 13 65 13q41 0 74 -16q39 -19 48 -54q16 -64 16 -148q0 -90 -23 -197q-31 -142 -83 -169q-25 -39 -158 -39q-141 0 -161 42q-60 43 -89 155
q-21 83 -21 182q0 86 20 169q9 39 46 59q33 18 80 18q34 0 64 -10q42 -15 42 -42q0 -3 -1 -10zM279 721q-7 -2 -14 -9q-3 -4 -8 -10q-13 -15 -27 -15q-12 0 -18 8.5t-6 20.5q0 24 25 53q7 8 21.5 15.5t24.5 7.5q27 0 38 -9q2 -2 12 -17q6 -9 20 -10q9 0 17 11q5 8 12 17
q9 8 20 8q13 0 21.5 -10t8.5 -23t-9 -26q-13 -22 -26 -31q-18 -14 -45 -15h-4q-17 0 -29 8q-3 2 -17 18q-7 8 -15 8h-2z" />
    <glyph glyph-name="Ubreve" unicode="&#x16c;" horiz-adv-x="635" 
d="M301 656q-6 -65 -17 -143q-13 -91 -13 -136q0 -92 54 -94h2q52 0 52 100q0 50 -13 139q-15 103 -17 131v6q0 33 31 51q28 16 67 16q43 0 76 -20q37 -22 46 -62q16 -74 16 -172q0 -103 -23 -227q-30 -167 -83 -198q-25 -46 -158 -46q-142 0 -161 49q-61 52 -89 183
q-21 96 -21 209q0 99 20 196q10 46 45 68t81 22q35 0 66 -13q40 -17 40 -48q0 -3 -1 -11zM363 776q-30 -27 -49 -28q-23 2 -55 38q-30 34 -35 58q0 13 7 23t19 10q7 0 13 -4q9 -8 27 -37q15 -23 24 -23q8 0 28 26q22 29 28.5 32t13.5 3q12 0 18 -9t6 -21q0 -28 -45 -68z" />
    <glyph glyph-name="ubreve" unicode="&#x16d;" horiz-adv-x="635" 
d="M301 563q-6 -55 -17 -123q-13 -78 -13 -117q0 -79 54 -81h2q52 0 52 86q0 43 -13 120q-15 90 -17 112v5q0 29 33 45q28 13 65 13q41 0 74 -16q39 -19 48 -54q16 -64 16 -148q0 -90 -23 -197q-31 -142 -83 -169q-25 -39 -158 -39q-141 0 -161 42q-60 43 -89 155
q-21 83 -21 182q0 86 20 169q9 39 46 59q33 18 80 18q34 0 64 -10q42 -15 42 -42q0 -3 -1 -10zM363 716q-30 -27 -49 -28q-23 2 -55 38q-30 34 -35 58q0 13 7 23t19 10q7 0 13 -4q9 -8 27 -37q15 -23 24 -23q8 0 28 26q22 29 28.5 32t13.5 3q12 0 18 -9t6 -21q0 -28 -45 -68
z" />
    <glyph glyph-name="Uring" unicode="&#x16e;" horiz-adv-x="635" 
d="M301 656q-6 -65 -17 -143q-13 -91 -13 -136q0 -92 54 -94h2q52 0 52 100q0 50 -13 139q-15 103 -17 131v6q0 33 31 51q28 16 67 16q43 0 76 -20q37 -22 46 -62q16 -74 16 -172q0 -103 -23 -227q-30 -167 -83 -198q-25 -46 -158 -46q-142 0 -161 49q-61 52 -89 183
q-21 96 -21 209q0 99 20 196q10 46 45 68t81 22q35 0 66 -13q40 -17 40 -48q0 -3 -1 -11zM404 808q0 -36 -26 -61t-62 -25t-61.5 25t-25.5 61t25.5 61t61.5 25t62 -25t26 -61zM354 808q0 15 -11 26t-27 11q-15 0 -26 -11t-11 -26q0 -16 11 -26.5t26 -10.5q16 0 27 10.5
t11 26.5z" />
    <glyph glyph-name="uring" unicode="&#x16f;" horiz-adv-x="635" 
d="M301 563q-6 -55 -17 -123q-13 -78 -13 -117q0 -79 54 -81h2q52 0 52 86q0 43 -13 120q-15 90 -17 112v5q0 29 33 45q28 13 65 13q41 0 74 -16q39 -19 48 -54q16 -64 16 -148q0 -90 -23 -197q-31 -142 -83 -169q-25 -39 -158 -39q-141 0 -161 42q-60 43 -89 155
q-21 83 -21 182q0 86 20 169q9 39 46 59q33 18 80 18q34 0 64 -10q42 -15 42 -42q0 -3 -1 -10zM404 748q0 -36 -26 -61t-62 -25t-61.5 25t-25.5 61t25.5 61t61.5 25t62 -25t26 -61zM354 748q0 15 -11 26t-27 11q-15 0 -26 -11t-11 -26q0 -16 11 -26.5t26 -10.5q16 0 27 10.5
t11 26.5z" />
    <glyph glyph-name="Uhungarumlaut" unicode="&#x170;" horiz-adv-x="635" 
d="M301 656q-6 -65 -17 -143q-13 -91 -13 -136q0 -92 54 -94h2q52 0 52 100q0 50 -13 139q-15 103 -17 131v6q0 33 31 51q28 16 67 16q43 0 76 -20q37 -22 46 -62q16 -74 16 -172q0 -103 -23 -227q-30 -167 -83 -198q-25 -46 -158 -46q-142 0 -161 49q-61 52 -89 183
q-21 96 -21 209q0 99 20 196q10 46 45 68t81 22q35 0 66 -13q40 -17 40 -48q0 -3 -1 -11zM342 896q0 -47 -48 -95q-43 -42 -89 -42q-29 0 -47.5 18t-18.5 47q0 45 37 83q49 50 106 50q27 0 43.5 -17t16.5 -44zM562 896q0 -47 -48 -95q-43 -42 -89 -42q-29 0 -47.5 18
t-18.5 47q0 45 37 83q49 50 106 50q27 0 43.5 -17t16.5 -44z" />
    <glyph glyph-name="uhungarumlaut" unicode="&#x171;" horiz-adv-x="635" 
d="M301 563q-6 -55 -17 -123q-13 -78 -13 -117q0 -79 54 -81h2q52 0 52 86q0 43 -13 120q-15 90 -17 112v5q0 29 33 45q28 13 65 13q41 0 74 -16q39 -19 48 -54q16 -64 16 -148q0 -90 -23 -197q-31 -142 -83 -169q-25 -39 -158 -39q-141 0 -161 42q-60 43 -89 155
q-21 83 -21 182q0 86 20 169q9 39 46 59q33 18 80 18q34 0 64 -10q42 -15 42 -42q0 -3 -1 -10zM342 816q0 -47 -48 -95q-43 -42 -89 -42q-29 0 -47.5 18t-18.5 47q0 45 37 83q49 50 106 50q27 0 43.5 -17t16.5 -44zM562 816q0 -47 -48 -95q-43 -42 -89 -42q-29 0 -47.5 18
t-18.5 47q0 45 37 83q49 50 106 50q27 0 43.5 -17t16.5 -44z" />
    <glyph glyph-name="Wcircumflex" unicode="&#x174;" horiz-adv-x="640" 
d="M92 721q28 9 63 9q97 0 97 -45v-8q0 -23 -8 -70q-12 -68 -12 -91q0 -47 26 -54q7 0 20.5 39t40.5 39q25 0 38 -20q7 -11 15 -37q7 -21 13 -21q23 2 23 64q0 37 -5 83l-9 76v3q0 22 35 32q26 8 57 8q35 0 63 -9q41 -13 41 -41q0 -288 -69 -624q-16 -48 -75 -48
q-36 0 -60 19q-27 20 -27 54v2q-6 99 -37 105q-21 -4 -27 -34l-8 -71v-7q0 -33 -24 -51q-23 -18 -62 -18q-26 0 -49 10q-29 11 -35 33q-22 78 -46 327q-21 222 -21 306q0 27 42 40zM408 791q0 -12 -6 -21t-18 -9q-7 0 -13.5 3t-28.5 32q-20 26 -28 26q-9 0 -24 -23
q-18 -29 -27 -37q-6 -4 -13 -4q-12 0 -19 10t-7 23q5 24 35 58q32 36 55 38q19 -1 49 -28q45 -40 45 -68z" />
    <glyph glyph-name="wcircumflex" unicode="&#x175;" horiz-adv-x="640" 
d="M92 611q28 9 63 9q97 0 97 -45v-8q0 -23 -8 -70q-12 -68 -12 -91q0 -47 26 -54q7 0 20.5 39t40.5 39q25 0 38 -20q7 -11 15 -37q7 -21 13 -21q23 2 23 64q0 37 -5 83l-9 76v3q0 22 35 32q26 8 57 8q35 0 63 -9q41 -13 41 -41q0 -189 -69 -524q-17 -45 -77 -45
q-34 0 -60 20q-25 18 -25 50v2q-6 99 -37 105q-21 -4 -27 -34l-8 -71q1 -5 1 -10q0 -30 -28 -46q-25 -16 -64 -16q-68 0 -79 39q-24 88 -46 277q-21 182 -21 256q0 27 42 40zM408 721q0 -12 -6 -21t-18 -9q-7 0 -13.5 3t-28.5 32q-20 26 -28 26q-9 0 -24 -23
q-18 -29 -27 -37q-6 -4 -13 -4q-12 0 -19 10t-7 23q5 24 35 58q32 36 55 38q19 -1 49 -28q45 -40 45 -68z" />
    <glyph glyph-name="Ycircumflex" unicode="&#x176;" horiz-adv-x="604" 
d="M50 670q0 25 44 42q35 14 65 14q44 0 51 -26q13 -17 24 -59q13 -48 20 -62q15 -29 42 -29h2q60 3 82 147q7 28 64 28q36 0 69 -14q41 -18 41 -50q-16 -164 -33 -215q-33 -99 -122 -120q-5 -11 -5 -34q0 -34 9.5 -102t9.5 -102q0 -25 -3 -38q-10 -46 -103 -46
q-33 0 -70 10q-50 13 -52 36v12q0 35 8 104q11 89 11 116q0 29 -7 42q-93 34 -125 137q-22 70 -22 209zM387 801q0 -12 -6 -21t-18 -9q-7 0 -13.5 3t-28.5 32q-20 26 -28 26q-9 0 -24 -23q-18 -29 -27 -37q-6 -4 -13 -4q-12 0 -19 10t-7 23q5 24 35 58q32 36 55 38
q19 -1 49 -28q45 -40 45 -68z" />
    <glyph glyph-name="ycircumflex" unicode="&#x177;" horiz-adv-x="628" 
d="M50 566q0 31 49 48q37 12 75 12q77 0 82 -37q8 -55 16 -97q11 -58 45 -65q36 0 48 61q5 33 17 99q10 35 88 35q39 0 69 -14q39 -17 39 -49v-3q-3 -56 -34 -134q-25 -63 -83 -176l-103 -197q-84 -152 -154 -152h-4q-65 3 -99 37q-22 22 -22 41q0 46 86 173q61 90 61 101
q0 4 -4 6q-90 33 -137 146q-35 84 -35 165zM406 721q0 -12 -6 -21t-18 -9q-7 0 -13.5 3t-28.5 32q-20 26 -28 26q-9 0 -24 -23q-18 -29 -27 -37q-6 -4 -13 -4q-12 0 -19 10t-7 23q5 24 35 58q32 36 55 38q19 -1 49 -28q45 -40 45 -68z" />
    <glyph glyph-name="Ydieresis" unicode="&#x178;" horiz-adv-x="604" 
d="M50 670q0 25 44 42q35 14 65 14q44 0 51 -26q13 -17 24 -59q13 -48 20 -62q15 -29 42 -29h2q60 3 82 147q7 28 64 28q36 0 69 -14q41 -18 41 -50q-16 -164 -33 -215q-33 -99 -122 -120q-5 -11 -5 -34q0 -34 9.5 -102t9.5 -102q0 -25 -3 -38q-10 -46 -103 -46
q-33 0 -70 10q-50 13 -52 36v12q0 35 8 104q11 89 11 116q0 29 -7 42q-93 34 -125 137q-22 70 -22 209zM144 785q-4 13 -4 26q0 35 35 51q12 6 24 6q28 0 46 -28q8 -13 8 -28q0 -25 -17 -42t-42 -17q-37 0 -50 32zM344 785q-5 13 -5 26q0 35 36 51q11 6 23 6q29 0 46 -28
q9 -13 9 -28q0 -25 -17.5 -42t-41.5 -17q-38 0 -50 32z" />
    <glyph glyph-name="Zacute" unicode="&#x179;" horiz-adv-x="634" 
d="M292 729q174 0 246 -51q39 -41 39 -132q0 -95 -22 -130q-17 -39 -133 -102q-106 -58 -106 -88v-1q4 -14 28 -14q27 0 79.5 13t79.5 13q19 0 29 -6q25 -10 40 -45q12 -30 12 -61q0 -72 -58 -93q-31 -19 -117 -29q-66 -8 -124 -8q-144 0 -191 37q-44 20 -44 131q0 50 12 77
q12 45 82 94l106 69q83 57 83 77q0 8 -6 14q-13 28 -52 28q-28 0 -83 -16.5t-81 -16.5q-22 0 -30 13q-31 16 -31 102q0 64 25 86q62 39 217 39zM439 896q0 -47 -48 -95q-43 -42 -89 -42q-29 0 -47.5 18t-18.5 47q0 45 37 83q49 50 106 50q27 0 43.5 -17t16.5 -44z" />
    <glyph glyph-name="zacute" unicode="&#x17a;" horiz-adv-x="634" 
d="M297 626q171 0 241 -42q39 -36 39 -114q0 -82 -22 -112q-17 -33 -133 -87q-106 -49 -106 -76v-1q4 -12 28 -12q27 0 79.5 11.5t79.5 11.5q19 0 29 -6q24 -9 39 -38q13 -25 13 -53q0 -62 -58 -80q-52 -28 -225 -28q-150 0 -207 28q-44 17 -44 113q0 43 12 66q12 39 82 81
l105 59q84 49 84 67q0 6 -6 11q-13 25 -52 25q-28 0 -82.5 -14.5t-81.5 -14.5q-22 0 -30 11q-31 14 -31 88q0 55 25 74q66 32 222 32zM439 826q0 -47 -48 -95q-43 -42 -89 -42q-29 0 -47.5 18t-18.5 47q0 45 37 83q49 50 106 50q27 0 43.5 -17t16.5 -44z" />
    <glyph glyph-name="Zdotaccent" unicode="&#x17b;" horiz-adv-x="634" 
d="M292 729q174 0 246 -51q39 -41 39 -132q0 -95 -22 -130q-17 -39 -133 -102q-106 -58 -106 -88v-1q4 -14 28 -14q27 0 79.5 13t79.5 13q19 0 29 -6q25 -10 40 -45q12 -30 12 -61q0 -72 -58 -93q-31 -19 -117 -29q-66 -8 -124 -8q-144 0 -191 37q-44 20 -44 131q0 50 12 77
q12 45 82 94l106 69q83 57 83 77q0 8 -6 14q-13 28 -52 28q-28 0 -83 -16.5t-81 -16.5q-22 0 -30 13q-31 16 -31 102q0 64 25 86q62 39 217 39zM273 937q17 5 39 5q64 0 87 -62q5 -22 5 -40q0 -54 -43 -81q-23 -14 -50 -14q-43 0 -72 29.5t-29 72.5q0 71 63 90z" />
    <glyph glyph-name="zdotaccent" unicode="&#x17c;" horiz-adv-x="634" 
d="M297 626q171 0 241 -42q39 -36 39 -114q0 -82 -22 -112q-17 -33 -133 -87q-106 -49 -106 -76v-1q4 -12 28 -12q27 0 79.5 11.5t79.5 11.5q19 0 29 -6q24 -9 39 -38q13 -25 13 -53q0 -62 -58 -80q-52 -28 -225 -28q-150 0 -207 28q-44 17 -44 113q0 43 12 66q12 39 82 81
l105 59q84 49 84 67q0 6 -6 11q-13 25 -52 25q-28 0 -82.5 -14.5t-81.5 -14.5q-22 0 -30 11q-31 14 -31 88q0 55 25 74q66 32 222 32zM273 847q17 5 39 5q64 0 87 -62q5 -22 5 -40q0 -54 -43 -81q-23 -14 -50 -14q-43 0 -72 29.5t-29 72.5q0 71 63 90z" />
    <glyph glyph-name="Zcaron" unicode="&#x17d;" horiz-adv-x="634" 
d="M292 729q174 0 246 -51q39 -41 39 -132q0 -95 -22 -130q-17 -39 -133 -102q-106 -58 -106 -88v-1q4 -14 28 -14q27 0 79.5 13t79.5 13q19 0 29 -6q25 -10 40 -45q12 -30 12 -61q0 -72 -58 -93q-31 -19 -117 -29q-66 -8 -124 -8q-144 0 -191 37q-44 20 -44 131q0 50 12 77
q12 45 82 94l106 69q83 57 83 77q0 8 -6 14q-13 28 -52 28q-28 0 -83 -16.5t-81 -16.5q-22 0 -30 13q-31 16 -31 102q0 64 25 86q62 39 217 39zM360 776q-30 -27 -49 -28q-23 2 -55 38q-30 34 -35 58q0 13 7 23t19 10q7 0 13 -4q9 -8 27 -37q15 -23 24 -23q8 0 28 26
q22 29 28.5 32t13.5 3q12 0 18 -9t6 -21q0 -28 -45 -68z" />
    <glyph glyph-name="zcaron" unicode="&#x17e;" horiz-adv-x="634" 
d="M297 626q171 0 241 -42q39 -36 39 -114q0 -82 -22 -112q-17 -33 -133 -87q-106 -49 -106 -76v-1q4 -12 28 -12q27 0 79.5 11.5t79.5 11.5q19 0 29 -6q24 -9 39 -38q13 -25 13 -53q0 -62 -58 -80q-52 -28 -225 -28q-150 0 -207 28q-44 17 -44 113q0 43 12 66q12 39 82 81
l105 59q84 49 84 67q0 6 -6 11q-13 25 -52 25q-28 0 -82.5 -14.5t-81.5 -14.5q-22 0 -30 11q-31 14 -31 88q0 55 25 74q66 32 222 32zM360 716q-30 -27 -49 -28q-23 2 -55 38q-30 34 -35 58q0 13 7 23t19 10q7 0 13 -4q9 -8 27 -37q15 -23 24 -23q8 0 28 26q22 29 28.5 32
t13.5 3q12 0 18 -9t6 -21q0 -28 -45 -68z" />
    <glyph glyph-name="Scommaaccent" unicode="&#x218;" horiz-adv-x="628" 
d="M565 587q0 -31 -27.5 -62t-58.5 -31q-11 0 -21 6q-53 32 -93 32q-57 0 -57 -47v-6q3 -48 132 -87q75 -22 106.5 -65t31.5 -121q0 -136 -117 -189q-67 -22 -144 -22q-81 0 -148 23q-83 29 -119 86q0 58 6 84q16 67 66 67q20 0 71.5 -29.5t74.5 -29.5t42 19q2 8 2 14
q0 23 -27 35q-17 8 -68 17q-67 12 -106.5 62t-39.5 119q0 110 85 190q83 77 194 77q84 0 132 -32q30 -20 76 -83q7 -12 7 -27zM412 -74q0 -47 -48 -95q-43 -42 -89 -42q-29 0 -47.5 18t-18.5 47q0 45 37 83q49 50 106 50q27 0 43.5 -17t16.5 -44z" />
    <glyph glyph-name="scommaaccent" unicode="&#x219;" horiz-adv-x="628" 
d="M565 503q0 -28 -28.5 -53t-57.5 -25q-11 0 -21 5q-53 27 -93 27q-24 0 -40 -10q-17 -12 -17 -31v-4q3 -41 132 -73q71 -18 102 -50q36 -37 36 -106q0 -118 -117 -159q-62 -22 -151 -22q-75 0 -141 20q-82 26 -119 75q0 53 6 73q16 54 66 54q22 0 72 -25t74 -25
q23 0 42 16q2 7 2 12q0 31 -95 44q-66 9 -107 54q-39 42 -39 97q0 98 93 165q84 60 186 60q84 0 132 -27q30 -17 76 -70q7 -10 7 -22zM412 -64q0 -47 -48 -95q-43 -42 -89 -42q-29 0 -47.5 18t-18.5 47q0 45 37 83q49 50 106 50q27 0 43.5 -17t16.5 -44z" />
    <glyph glyph-name="uni021A" unicode="&#x21a;" horiz-adv-x="639" 
d="M83 712q83 15 230 15q135 0 241 -15q35 -16 35 -99q0 -75 -29 -90q-19 -24 -49 -24q-15 0 -44 9t-42 9q-15 0 -22 -11q-4 -6 -4 -27q0 -64 16.5 -192t16.5 -192q0 -54 -12 -63q-39 -30 -111 -30q-69 0 -87 39q-11 11 -11 59q0 63 19.5 188.5t19.5 188.5q0 20 -4 23
q-7 15 -25 15q-14 0 -46 -8.5t-49 -8.5q-24 0 -43 10q-33 17 -33 101q0 83 33 103zM411 -64q0 -47 -48 -95q-43 -42 -89 -42q-29 0 -47.5 18t-18.5 47q0 45 37 83q49 50 106 50q27 0 43.5 -17t16.5 -44z" />
    <glyph glyph-name="uni021B" unicode="&#x21b;" horiz-adv-x="634" 
d="M87 426q8 -3 17 -3q12 0 36.5 6.5t36.5 6.5q19 0 37 -10q8 -4 8 -30q0 -37 -9.5 -111t-9.5 -111q0 -61 16 -91q42 -79 142 -79q81 0 155 40q68 37 68 99q0 61 -53 83q-13 3 -24 3q-22 0 -46.5 -16.5t-35.5 -16.5q-8 0 -19 4q-26 10 -26 106q0 97 18 117q6 11 33 11
q16 0 40 -4q28 -4 48 -4q29 0 40 9q22 13 22 65q0 23 -6 49q-7 36 -21 42q-12 6 -35 6q-19 0 -46 -4q-17 -2 -31 -2q-37 0 -37 19v-7q2 0 5 30q4 37 4 54v6q-1 21 -41 32q-27 7 -56 7q-83 0 -86 -34v-9q0 -27 9 -68q0 -8 -12 -26q-7 -6 -23 -6q-15 0 -43.5 4.5t-43.5 4.5
q-19 0 -31 -6q-37 -10 -37 -84t37 -82zM409 -64q0 -47 -48 -95q-43 -42 -89 -42q-29 0 -47.5 18t-18.5 47q0 45 37 83q49 50 106 50q27 0 43.5 -17t16.5 -44z" />
    <glyph glyph-name="circumflex" unicode="&#x2c6;" 
d="M358 721q0 -12 -6 -21t-18 -9q-7 0 -13.5 3t-28.5 32q-20 26 -28 26q-9 0 -24 -23q-18 -29 -27 -37q-6 -4 -13 -4q-12 0 -19 10t-7 23q5 24 35 58q32 36 55 38q19 -1 49 -28q45 -40 45 -68z" />
    <glyph glyph-name="caron" unicode="&#x2c7;" 
d="M313 716q-30 -27 -49 -28q-23 2 -55 38q-30 34 -35 58q0 13 7 23t19 10q7 0 13 -4q9 -8 27 -37q15 -23 24 -23q8 0 28 26q22 29 28.5 32t13.5 3q12 0 18 -9t6 -21q0 -28 -45 -68z" />
    <glyph glyph-name="breve" unicode="&#x2d8;" 
d="M313 716q-30 -27 -49 -28q-23 2 -55 38q-30 34 -35 58q0 13 7 23t19 10q7 0 13 -4q9 -8 27 -37q15 -23 24 -23q8 0 28 26q22 29 28.5 32t13.5 3q12 0 18 -9t6 -21q0 -28 -45 -68z" />
    <glyph glyph-name="dotaccent" unicode="&#x2d9;" 
d="M226 847q17 5 39 5q64 0 87 -62q5 -22 5 -40q0 -54 -43 -81q-23 -14 -50 -14q-43 0 -72 29.5t-29 72.5q0 71 63 90z" />
    <glyph glyph-name="ring" unicode="&#x2da;" 
d="M354 748q0 -36 -26 -61t-62 -25t-61.5 25t-25.5 61t25.5 61t61.5 25t62 -25t26 -61zM304 748q0 15 -11 26t-27 11q-15 0 -26 -11t-11 -26q0 -16 11 -26.5t26 -10.5q16 0 27 10.5t11 26.5z" />
    <glyph glyph-name="ogonek" unicode="&#x2db;" 
d="M401 -88q-13 -37 -45 -56q-30 -17 -71 -17q-36 0 -68 15q-39 18 -45 50q-5 16 -5 35q0 31 13 56q15 27 41 40q9 4 17 12l22 22q8 19 25 19q21 0 29 -20l3 -6q4 -13 4 -24q0 -18 -13 -30q-4 -4 -29 -19q-28 -17 -28 -34q0 -10 8 -23q13 -21 38 -21q36 0 65 36q41 0 41 -25
q0 -4 -2 -10z" />
    <glyph glyph-name="tilde" unicode="&#x2dc;" 
d="M229 721q-7 -2 -14 -9q-3 -4 -8 -10q-13 -15 -27 -15q-12 0 -18 8.5t-6 20.5q0 24 25 53q7 8 21.5 15.5t24.5 7.5q27 0 38 -9q2 -2 12 -17q6 -9 20 -10q9 0 17 11q5 8 12 17q9 8 20 8q13 0 21.5 -10t8.5 -23t-9 -26q-13 -22 -26 -31q-18 -14 -45 -15h-4q-17 0 -29 8
q-3 2 -17 18q-7 8 -15 8h-2z" />
    <glyph glyph-name="hungarumlaut" unicode="&#x2dd;" 
 />
    <glyph glyph-name="afii10023" unicode="&#x401;" horiz-adv-x="614" 
d="M163 927h103v-120h-103v120zM336 927h103v-120h-103v120zM82 729h457v-142h-288v-136h270v-142h-270v-167h297v-142h-466v729z" />
    <glyph glyph-name="afii10017" unicode="&#x410;" horiz-adv-x="696" 
d="M481 133h-265l-42 -133h-170l243 729h202l243 -729h-170zM258 268h180l-90 290z" />
    <glyph glyph-name="afii10018" unicode="&#x411;" horiz-adv-x="685" 
d="M351 128q53 0 77 22q25 24 25 69t-25 68q-24 22 -77 22h-100v-181h100zM363 0h-281v729h496v-142h-327v-136h112q124 0 195 -57q64 -52 64 -169q0 -116 -64 -168q-71 -57 -195 -57z" />
    <glyph glyph-name="afii10019" unicode="&#x412;" horiz-adv-x="685" 
d="M345 447q40 0 60.5 19.5t20.5 57.5t-20.5 57.5t-60.5 19.5h-94v-154h94zM351 128q51 0 76.5 24t25.5 72q0 47 -25.5 71t-76.5 24h-100v-191h100zM508 390q54 -17 84 -64.5t30 -116.5q0 -105 -64 -157t-195 -52h-281v729h254q137 0 198 -46t61 -147q0 -53 -22 -90.5
t-65 -55.5z" />
    <glyph glyph-name="afii10020" unicode="&#x413;" horiz-adv-x="573" 
d="M82 0v729h466v-142h-297v-587h-169z" />
    <glyph glyph-name="afii10021" unicode="&#x414;" horiz-adv-x="801" 
d="M302 142h182v445h-141v-45q0 -312 -41 -400zM102 142q46 34 58.5 83.5t12.5 365.5v138h481v-587h92v-299h-128v157h-437v-157h-128v299h49z" />
    <glyph glyph-name="afii10022" unicode="&#x415;" horiz-adv-x="614" 
d="M82 729h457v-142h-288v-136h270v-142h-270v-167h297v-142h-466v729z" />
    <glyph glyph-name="afii10024" unicode="&#x416;" horiz-adv-x="1101" 
d="M13 0l269 437l-240 292h177l247 -301v301h169v-301l247 301h178l-240 -292l268 -437h-186l-188 307l-79 -95v-212h-169v212l-78 95l-188 -307h-187z" />
    <glyph glyph-name="afii10025" unicode="&#x417;" horiz-adv-x="639" 
d="M444 393q67 -19 101.5 -66t34.5 -120q0 -108 -75 -164.5t-231 -56.5q-65 0 -116.5 9t-98.5 27v145q47 -26 94 -39.5t114 -13.5q72 0 108 26t36 74q0 50 -37 75.5t-122 25.5h-81v121h85q76 0 107.5 22t31.5 68q0 42 -30.5 65t-90.5 23q-62 0 -116 -12t-84 -29v138
q29 11 94 21t106 10q144 0 217 -46.5t73 -140.5q0 -64 -30.5 -104.5t-89.5 -57.5z" />
    <glyph glyph-name="afii10026" unicode="&#x418;" horiz-adv-x="752" 
d="M670 729v-729h-160v500l-239 -500h-189v729h161v-500l238 500h189z" />
    <glyph glyph-name="afii10027" unicode="&#x419;" horiz-adv-x="752" 
d="M670 729v-729h-160v500l-239 -500h-189v729h161v-500l238 500h189zM214 927h63q9 -30 30 -44.5t54 -14.5q34 0 55 14.5t30 44.5h63q-7 -63 -45 -96t-103 -33t-102.5 33t-44.5 96z" />
    <glyph glyph-name="afii10028" unicode="&#x41a;" horiz-adv-x="735" 
d="M82 729h169v-301l265 301h191l-260 -295l275 -434h-186l-198 311l-87 -99v-212h-169v729z" />
    <glyph glyph-name="afii10029" unicode="&#x41b;" horiz-adv-x="747" 
d="M41 0v142q111 14 133.5 94.5t22.5 354.5v138h468v-729h-170v587h-128v-45q0 -267 -43 -391t-283 -151z" />
    <glyph glyph-name="afii10030" unicode="&#x41c;" horiz-adv-x="895" 
d="M82 729h215l150 -390l150 390h215v-729h-160v533l-151 -393h-107l-151 393v-533h-161v729z" />
    <glyph glyph-name="afii10031" unicode="&#x41d;" horiz-adv-x="752" 
d="M82 729h169v-278h250v278h169v-729h-169v309h-250v-309h-169v729z" />
    <glyph glyph-name="afii10032" unicode="&#x41e;" horiz-adv-x="764" 
d="M381 606q-77 0 -119.5 -63.5t-42.5 -178.5t42.5 -178.5t119.5 -63.5q78 0 120.5 63.5t42.5 178.5t-42.5 178.5t-120.5 63.5zM381 742q159 0 248.5 -100.5t89.5 -277.5t-89.5 -277.5t-248.5 -100.5q-157 0 -247 100.5t-90 277.5t90 277.5t247 100.5z" />
    <glyph glyph-name="afii10033" unicode="&#x41f;" horiz-adv-x="752" 
d="M670 729v-729h-169v587h-250v-587h-169v729h588z" />
    <glyph glyph-name="afii10034" unicode="&#x420;" horiz-adv-x="659" 
d="M82 729h281q125 0 192 -62t67 -176q0 -115 -67 -176.5t-192 -61.5h-112v-253h-169v729zM251 593v-204h94q49 0 76 26.5t27 75.5t-27 75.5t-76 26.5h-94z" />
    <glyph glyph-name="afii10035" unicode="&#x421;" horiz-adv-x="660" 
d="M602 40q-47 -27 -97.5 -40.5t-105.5 -13.5q-164 0 -259.5 101.5t-95.5 276.5t95.5 276.5t259.5 101.5q55 0 105.5 -13.5t97.5 -40.5v-151q-47 36 -93 52.5t-96 16.5q-91 0 -142.5 -64.5t-51.5 -177.5t51.5 -177.5t142.5 -64.5q50 0 96 16.5t93 52.5v-151z" />
    <glyph glyph-name="afii10036" unicode="&#x422;" horiz-adv-x="613" 
d="M4 729h604v-142h-217v-587h-169v587h-218v142z" />
    <glyph glyph-name="afii10037" unicode="&#x423;" horiz-adv-x="693" 
d="M408 121q-17 -41 -43 -68q-53 -53 -202 -53h-31v142h46q62 0 76 34q4 7 7 14l-236 539h177l145 -332l142 332h177z" />
    <glyph glyph-name="afii10038" unicode="&#x424;" horiz-adv-x="892" 
d="M219 372q0 -74 34 -106.5t108 -39.5v292q-74 -7 -108 -40t-34 -106zM672 372q0 73 -34 106t-108 40v-292q74 7 108 39.5t34 106.5zM361 729h169v-72q161 -15 238.5 -82t77.5 -203q0 -137 -77.5 -203.5t-238.5 -81.5v-87h-169v87q-162 15 -239.5 81.5t-77.5 203.5
q0 136 77.5 203t239.5 82v72z" />
    <glyph glyph-name="afii10039" unicode="&#x425;" horiz-adv-x="693" 
d="M448 372l228 -372h-177l-153 249l-152 -249h-177l228 372l-219 357h177l143 -235l144 235h177z" />
    <glyph glyph-name="afii10040" unicode="&#x426;" horiz-adv-x="834" 
d="M652 0h-570v729h169v-587h250v587h169v-587h110v-299h-128v157z" />
    <glyph glyph-name="afii10041" unicode="&#x427;" horiz-adv-x="727" 
d="M475 0v278h-229q-84 0 -129 57.5t-45 169.5v224h169v-134q0 -116 16.5 -145.5t57.5 -29.5h160v309h169v-729h-169z" />
    <glyph glyph-name="afii10042" unicode="&#x428;" horiz-adv-x="1111" 
d="M640 142h219v587h169v-729h-946v729h169v-587h220v587h169v-587z" />
    <glyph glyph-name="afii10043" unicode="&#x429;" horiz-adv-x="1192" 
d="M1028 142h111v-299h-128v157h-929v729h169v-587h220v587h169v-587h219v587h169v-587z" />
    <glyph glyph-name="afii10044" unicode="&#x42a;" horiz-adv-x="845" 
d="M528 128q53 0 77.5 23t24.5 68t-24 67.5t-78 22.5h-99v-181h99zM260 587h-217v142h386v-278h112q124 0 191.5 -54.5t67.5 -171.5q0 -116 -67.5 -170.5t-191.5 -54.5h-281v587z" />
    <glyph glyph-name="afii10045" unicode="&#x42b;" horiz-adv-x="932" 
d="M351 128q53 0 77 22q25 24 25 69t-25 68q-24 22 -77 22h-100v-181h100zM622 225q0 -116 -64 -168q-71 -57 -195 -57h-281v729h169v-278h112q124 0 195 -57q64 -52 64 -169zM680 729h170v-729h-170v729z" />
    <glyph glyph-name="afii10046" unicode="&#x42c;" horiz-adv-x="685" 
d="M351 128q53 0 77 22q25 24 25 69t-25 68q-24 22 -77 22h-100v-181h100zM622 225q0 -116 -64 -168q-71 -57 -195 -57h-281v729h169v-278h112q124 0 195 -57q64 -52 64 -169z" />
    <glyph glyph-name="afii10047" unicode="&#x42d;" horiz-adv-x="660" 
d="M57 191q91 -69 186 -69q94 0 138.5 56t51.5 115h-295v142h295q-7 59 -51.5 115t-138.5 56q-95 0 -186 -69v151q94 54 203 54q163 0 259 -101.5t96 -276.5t-96 -276.5t-259 -101.5q-109 0 -203 54v151z" />
    <glyph glyph-name="afii10048" unicode="&#x42e;" horiz-adv-x="1056" 
d="M335 435q13 123 94 215q82 92 240 92t247.5 -100.5t89.5 -277.5t-89.5 -277.5t-247.5 -100.5t-240 92q-81 92 -94 215h-84v-293h-169v729h169v-294h84zM669 606q-78 0 -120.5 -63.5t-42.5 -178.5t42.5 -178.5t120.5 -63.5t120.5 63.5t42.5 178.5t-42.5 178.5t-120.5 63.5
z" />
    <glyph glyph-name="afii10049" unicode="&#x42f;" horiz-adv-x="692" 
d="M257 500q0 -50 23 -72t76 -22h85v187h-85q-53 0 -76 -21.5t-23 -71.5zM57 0l164 310q-34 21 -83.5 73.5t-49.5 124.5q0 110 60 165.5t190 55.5h272v-729h-169v276h-58l-146 -276h-180z" />
    <glyph glyph-name="afii10065" unicode="&#x430;" horiz-adv-x="606" 
d="M296 246q-50 0 -74.5 -18.5t-24.5 -54.5q0 -33 20 -52t55 -19q45 0 75 35.5t30 88.5v20h-81zM536 312v-312h-159v81q-31 -50 -70.5 -72.5t-96.5 -22.5q-77 0 -124.5 49.5t-47.5 128.5q0 96 59.5 141t187.5 45h92v14q0 41 -29.5 60.5t-91.5 19.5q-51 0 -94 -11.5
t-81 -33.5v133q51 14 102 21t102 7q133 0 192 -58.5t59 -189.5z" />
    <glyph glyph-name="afii10066" unicode="&#x431;" horiz-adv-x="628" 
d="M48 303l-3 82q-7 32 -7 65q0 96 25 158q48 116 110 139q53 20 268 39q22 2 47 6l35 -108q-33 -10 -205 -26q-74 -8 -106 -31q-50 -39 -54 -111q64 44 161 44q127 0 198.5 -76t71.5 -211t-71 -211t-199 -76q-127 0 -199 76t-72 211v30zM319 435q-52 0 -79.5 -41.5
t-27.5 -120.5t27.5 -120.5t79.5 -41.5t79 41.5t27 120.5t-27 120.5t-79 41.5z" />
    <glyph glyph-name="afii10067" unicode="&#x432;" horiz-adv-x="569" 
d="M306 341q28 0 42 12.5t14 36.5q0 25 -14 37t-42 12h-74v-98h74zM312 109q34 0 52 15.5t18 46.5q0 30 -18 45t-52 15h-80v-122h80zM75 547h225q110 0 159 -34.5t49 -110.5q0 -40 -18 -68t-52 -42q43 -13 67 -48.5t24 -86.5q0 -79 -51 -118t-156 -39h-247v547z" />
    <glyph glyph-name="afii10068" unicode="&#x433;" horiz-adv-x="470" 
d="M75 0v547h373v-108h-216v-439h-157z" />
    <glyph glyph-name="afii10069" unicode="&#x434;" horiz-adv-x="726" 
d="M76 125q50 19 71 80.5t21 237.5v104h426v-422h81v-263h-112v138h-401v-138h-112v263h26zM437 422h-111v-15q0 -179 -37 -282h148v297z" />
    <glyph glyph-name="afii10070" unicode="&#x435;" horiz-adv-x="610" 
d="M566 275v-50h-367q5 -61 39.5 -92t95.5 -31q50 0 102 16.5t107 49.5v-135q-56 -23 -112 -35t-111 -12q-134 0 -208 75.5t-74 211.5q0 134 73 210.5t200 76.5q116 0 185.5 -77.5t69.5 -207.5zM405 333q0 50 -26.5 80.5t-68.5 30.5q-45 0 -74 -28.5t-36 -82.5h205z" />
    <glyph glyph-name="afii10072" unicode="&#x436;" horiz-adv-x="895" 
d="M13 0l223 325l-206 222h172l167 -180v180h157v-180l167 180h172l-206 -222l223 -325h-162l-154 224l-40 -43v-181h-157v181l-40 43l-153 -224h-163z" />
    <glyph glyph-name="afii10073" unicode="&#x437;" horiz-adv-x="522" 
d="M126 341h72q64 0 87.5 15.5t23.5 37.5q0 50 -103 50q-87 0 -141 -34v127q81 23 175 23q111 0 162 -35t51 -108q0 -97 -97 -122q109 -30 109 -140q0 -84 -60 -126.5t-188 -42.5q-95 0 -174 27v135q99 -46 157 -46q64 0 93 19.5t29 43.5q0 68 -127 68h-69v108z" />
    <glyph glyph-name="afii10074" unicode="&#x438;" horiz-adv-x="630" 
d="M554 547v-547h-157v291l-158 -291h-164v547h157v-291l159 291h163z" />
    <glyph glyph-name="afii10075" unicode="&#x439;" horiz-adv-x="630" 
d="M554 547v-547h-157v291l-158 -291h-164v547h157v-291l159 291h163zM167 765h63q5 -35 26.5 -53t58.5 -18q36 0 58 18t26 53h63q-2 -71 -40.5 -108t-106.5 -37q-69 0 -107 37t-41 108z" />
    <glyph glyph-name="afii10076" unicode="&#x43a;" horiz-adv-x="610" 
d="M75 547h157v-185l176 185h172l-210 -222l227 -325h-163l-157 226l-45 -47v-179h-157v547z" />
    <glyph glyph-name="afii10077" unicode="&#x43b;" horiz-adv-x="659" 
d="M49 0v125q78 18 95 75q13 43 13 258v89h426v-547h-158v422h-110v-18q0 -215 -31 -277q-61 -127 -235 -127z" />
    <glyph glyph-name="afii10078" unicode="&#x43c;" horiz-adv-x="735" 
d="M75 547h181l111 -274l110 274h182v-547h-157v310l-83 -205h-103l-84 205v-310h-157v547z" />
    <glyph glyph-name="afii10079" unicode="&#x43d;" horiz-adv-x="621" 
d="M75 547h157v-208h156v208h158v-547h-158v231h-156v-231h-157v547z" />
    <glyph glyph-name="afii10080" unicode="&#x43e;" horiz-adv-x="618" 
d="M309 435q-52 0 -79.5 -41.5t-27.5 -120.5t27.5 -120.5t79.5 -41.5t79 41.5t27 120.5t-27 120.5t-79 41.5zM309 560q127 0 198.5 -76t71.5 -211t-71.5 -211t-198.5 -76t-199 76t-72 211t72 211t199 76z" />
    <glyph glyph-name="afii10081" unicode="&#x43f;" horiz-adv-x="621" 
d="M546 547v-547h-158v422h-156v-422h-157v547h471z" />
    <glyph glyph-name="afii10082" unicode="&#x440;" horiz-adv-x="644" 
d="M232 79v-287h-157v755h157v-80q33 48 72.5 70.5t90.5 22.5q91 0 149.5 -80.5t58.5 -206.5q0 -127 -58.5 -207t-149.5 -80q-51 0 -90.5 22.5t-72.5 70.5zM337 433q-51 0 -78 -41t-27 -119t27 -119t78 -41t77.5 41t26.5 119t-26.5 119t-77.5 41z" />
    <glyph glyph-name="afii10083" unicode="&#x441;" horiz-adv-x="533" 
d="M473 530v-143q-32 25 -64.5 36.5t-67.5 11.5q-66 0 -102.5 -42.5t-36.5 -119.5t36.5 -119.5t102.5 -42.5q37 0 70.5 12t61.5 36v-143q-37 -15 -75 -22.5t-76 -7.5q-134 0 -209 76t-75 211t75 211t209 76q38 0 75.5 -7.5t75.5 -22.5z" />
    <glyph glyph-name="afii10084" unicode="&#x442;" horiz-adv-x="521" 
d="M3 547h514v-108h-178v-439h-157v439h-179v108z" />
    <glyph glyph-name="afii10085" unicode="&#x443;" horiz-adv-x="586" 
d="M10 547h158l132 -371l112 371h158l-207 -599q-32 -91 -73.5 -127.5t-109.5 -36.5h-91v115h49q40 0 58.5 14t28.5 51l5 15z" />
    <glyph glyph-name="afii10086" unicode="&#x444;" horiz-adv-x="892" 
d="M293 433q-28 0 -54.5 -41t-26.5 -119t26.5 -119t54.5 -41q47 0 74 36v248q-27 36 -74 36zM367 760h158v-236q46 36 109 36q92 0 150 -80.5t58 -206.5q0 -127 -58 -207t-150 -80q-63 0 -109 35v-229h-158v229q-47 -35 -110 -35q-91 0 -149.5 80t-58.5 207
q0 126 58.5 206.5t149.5 80.5q63 0 110 -36v236zM598 433q-47 0 -73 -36v-248q26 -36 73 -36q29 0 55.5 41t26.5 119t-26.5 119t-55.5 41z" />
    <glyph glyph-name="afii10087" unicode="&#x445;" horiz-adv-x="580" 
d="M200 280l-178 267h166l101 -162l102 162h166l-177 -266l186 -281h-166l-111 173l-109 -173h-167z" />
    <glyph glyph-name="afii10088" unicode="&#x446;" horiz-adv-x="666" 
d="M515 -138v138h-440v547h157v-422h156v422h158v-422h81v-263h-112z" />
    <glyph glyph-name="afii10089" unicode="&#x447;" horiz-adv-x="617" 
d="M357 0v211h-161q-66 0 -102.5 43.5t-36.5 128.5v164h157v-97q0 -87 13 -109t46 -22h84v228h158v-547h-158z" />
    <glyph glyph-name="afii10090" unicode="&#x448;" horiz-adv-x="955" 
d="M553 125h164v422h157v-547h-799v547h157v-422h164v422h157v-422z" />
    <glyph glyph-name="afii10091" unicode="&#x449;" horiz-adv-x="994" 
d="M843 0h-768v547h157v-422h164v422h157v-422h164v422h157v-422h81v-263h-112v138z" />
    <glyph glyph-name="afii10092" unicode="&#x44a;" horiz-adv-x="676" 
d="M423 109q34 0 52 15.5t18 46.5q0 30 -17.5 45t-52.5 15h-80v-122h80zM186 0v439h-169v108h326v-208h89q100 0 154 -40.5t54 -129.5t-54.5 -129t-153.5 -40h-246z" />
    <glyph glyph-name="afii10093" unicode="&#x44b;" horiz-adv-x="813" 
d="M583 547h157v-547h-157v547zM382 171q0 31 -18 46q-17 14 -52 14h-80v-122h80q34 0 52 16q18 15 18 46zM75 547h157v-208h90q99 0 153 -40q54 -41 54 -130t-54 -129t-153 -40h-247v547z" />
    <glyph glyph-name="afii10094" unicode="&#x44c;" horiz-adv-x="568" 
d="M382 171q0 31 -18 46q-17 14 -52 14h-80v-122h80q34 0 52 16q18 15 18 46zM75 547h157v-208h90q99 0 153 -40q54 -41 54 -130t-54 -129t-153 -40h-247v547z" />
    <glyph glyph-name="afii10095" unicode="&#x44d;" horiz-adv-x="533" 
d="M118 324h208q-6 36 -37.5 73.5t-98.5 37.5t-130 -48v143q75 30 151 30q134 0 209 -76t75 -211t-75 -211t-209 -76q-77 0 -151 30v143q57 -48 127 -48q68 0 101 36.5t39 78.5h-209v98z" />
    <glyph glyph-name="afii10096" unicode="&#x44e;" horiz-adv-x="874" 
d="M75 547h157v-219h64q9 93 75 163q66 69 193 69q128 0 199 -76t71 -211t-71 -211t-199 -76q-127 0 -193 70t-74 164h-65v-220h-157v547zM564 435q-52 0 -79.5 -41.5t-27.5 -120.5t27.5 -120.5t79.5 -41.5t79 41.5t27 120.5t-27 120.5t-79 41.5z" />
    <glyph glyph-name="afii10097" unicode="&#x44f;" horiz-adv-x="577" 
d="M214 374q0 -35 17.5 -50.5t57.5 -15.5h56v132h-56q-40 0 -57.5 -15t-17.5 -51zM27 0l128 234q-37 24 -64.5 65.5t-27.5 93.5q0 78 47 116t153 38h240v-547h-158v200h-55l-110 -200h-153z" />
    <glyph glyph-name="afii10071" unicode="&#x451;" horiz-adv-x="610" 
d="M566 275v-50h-367q5 -61 39.5 -92t95.5 -31q50 0 102 16.5t107 49.5v-135q-56 -23 -112 -35t-111 -12q-134 0 -208 75.5t-74 211.5q0 134 73 210.5t200 76.5q116 0 185.5 -77.5t69.5 -207.5zM405 333q0 50 -26.5 80.5t-68.5 30.5q-45 0 -74 -28.5t-36 -82.5h205zM172 774
h104v-120h-104v120zM346 774h103v-120h-103v120z" />
    <glyph glyph-name="uni1325" unicode="&#x1325;" horiz-adv-x="0" 
d="M1 806q-132 0 -220.5 -18t-93.5 -53h-63q0 92 155 123q115 22 222 22v-74z" />
    <glyph glyph-name="uni1326" unicode="&#x1326;" horiz-adv-x="0" 
d="M0 806v74q107 0 222 -22q155 -31 155 -123h-63q-5 35 -93.5 53t-220.5 18z" />
    <glyph glyph-name="uni1327" unicode="&#x1327;" horiz-adv-x="0" 
d="M1 781h-2l-63 17q-41 13 -48 15q-19 4 -35 4q-37 0 -61 -17q-31 -24 -33 -44h-84q2 66 51 102q50 36 136 36q48 0 76 -7q12 -3 63 -17v-89z" />
    <glyph glyph-name="uni1328" unicode="&#x1328;" horiz-adv-x="0" 
d="M0 870l2 -1l63 -17q41 -13 47 -14q19 -5 35 -5q36 0 61 18q32 21 33 43h85q-2 -66 -52 -102q-49 -36 -135 -36q-49 0 -76 7q-12 3 -63 18v89z" />
    <glyph glyph-name="uni1329" unicode="&#x1329;" horiz-adv-x="307" 
d="M25 693v69l257 63v-68zM25 591v68l257 64v-69z" />
    <glyph glyph-name="uni132A" unicode="&#x132a;" horiz-adv-x="307" 
d="M26 693v69l257 63v-68zM26 591v68l257 64v-69zM-8 0v125h325v-125h-325z" />
    <glyph glyph-name="uni132B" unicode="&#x132b;" horiz-adv-x="307" 
d="M151 688l13 21q-7 2 -23 14q-36 28 -36 72q0 49 28 70q25 17 49 16q33 -1 56 -25q26 -27 26 -66q0 -22 -8 -37l14 -1l12 -1v-63h-30l-21 3q-8 -23 -41 -59q-39 -41 -84 -41q-51 0 -76 75q-5 16 -5 75h62q0 -47 5 -60q9 -22 16 -22q24 0 43 29zM192 763q4 5 6 9q4 12 4 18
q0 5 -4 14q-4 7 -14 7q-5 0 -10 -4q-8 -7 -8 -16q0 -12 15 -22q6 -4 11 -6z" />
    <glyph glyph-name="uni132C" unicode="&#x132c;" horiz-adv-x="311" 
d="M203 166q0 -20 21 -31q18 -10 63 -10h33v-125h-57q-117 0 -167 37q-51 37 -51 124v16h158v-11z" />
    <glyph glyph-name="uni132D" unicode="&#x132d;" horiz-adv-x="307" 
d="M25 -239v68l257 64v-69zM25 -137v69l257 63v-68z" />
    <glyph glyph-name="uni132E" unicode="&#x132e;" horiz-adv-x="307" 
d="M25 591v68l257 64v-69z" />
    <glyph glyph-name="uni132F" unicode="&#x132f;" horiz-adv-x="307" 
d="M26 591v68l257 64v-69zM-8 0v125h325v-125h-325z" />
    <glyph glyph-name="uni1330" unicode="&#x1330;" horiz-adv-x="307" 
d="M156 716q-9 2 -15 7q-36 27 -36 72q0 49 28 70q25 17 49 16q33 -1 56 -25q26 -27 26 -66q0 -22 -8 -37l14 -1l12 -1v-63h-30q-18 1 -28 3q-20 -25 -45 -45q-77 -60 -154 -56v69q62 0 110 38q6 4 21 19zM193 765q3 3 5 7q4 12 4 18q0 5 -4 14q-4 7 -14 7q-5 0 -10 -4
q-8 -7 -8 -16q0 -12 15 -22q4 -4 12 -4z" />
    <glyph glyph-name="uni1331" unicode="&#x1331;" horiz-adv-x="307" 
d="M157 716q-9 2 -15 7q-36 27 -36 72q0 49 29 70q24 17 48 16q33 -1 57 -25q25 -27 25 -66q0 -22 -7 -37l13 -1l12 -1v-63h-30q-18 1 -28 3q-20 -25 -45 -45q-77 -60 -154 -56v69q62 0 111 38q5 4 20 19zM195 765q2 3 4 7q4 12 4 18q0 5 -4 14q-3 7 -14 7q-5 0 -10 -4
q-8 -7 -8 -16q0 -12 15 -22q4 -4 13 -4zM-8 0v125h325v-125h-325z" />
    <glyph glyph-name="uni1332" unicode="&#x1332;" horiz-adv-x="307" 
d="M25 -137v69l257 63v-68z" />
    <glyph glyph-name="uni1333" unicode="&#x1333;" horiz-adv-x="307" 
d="M26 -137v69l257 63v-68zM-8 0v125h325v-125h-325z" />
    <glyph glyph-name="uni1334" unicode="&#x1334;" horiz-adv-x="307" 
d="M160 689q-7 -39 -20 -56q-25 -33 -56 -34q-43 -1 -62 31q-15 24 -15 78t7 102h58q-5 -61 -5 -89q1 -24 11 -47q6 -13 22 -3q20 13 22 85q1 40 1 83h59q0 -17 2 -44q4 -85 30 -85q26 1 26 75q0 56 -5 84h58q6 -36 6 -92q-2 -65 -13 -91q-15 -42 -64 -49q-31 -4 -45 12
q-12 15 -17 40z" />
    <glyph glyph-name="uni1335" unicode="&#x1335;" horiz-adv-x="307" 
d="M161 689q-7 -39 -19 -56q-25 -33 -57 -34q-42 -1 -62 31q-14 24 -14 78t6 102h59q-6 -61 -5 -89q0 -24 11 -47q6 -13 21 -3q20 13 22 85q1 40 1 83h60q-1 -17 1 -44q5 -85 31 -85q26 1 26 75q0 56 -6 84h59q6 -36 5 -92q-1 -65 -12 -91q-16 -42 -65 -49q-31 -4 -44 12
q-12 15 -18 40zM-8 0v125h325v-125h-325z" />
    <glyph glyph-name="uni1336" unicode="&#x1336;" horiz-adv-x="307" 
d="M200 744q0 22 -13.5 37.5t-33.5 15.5q-21 0 -34.5 -15t-13.5 -38t13.5 -38.5t34.5 -15.5q20 0 33.5 16t13.5 38zM273 744q0 -56 -35 -95t-85.5 -39t-85.5 39t-35 95t35 95t85.5 39t85.5 -39t35 -95z" />
    <glyph glyph-name="uni1337" unicode="&#x1337;" horiz-adv-x="307" 
d="M201 744q0 22 -13.5 37.5t-33.5 15.5q-21 0 -34.5 -15t-13.5 -38t13.5 -38.5t34.5 -15.5q20 0 33.5 16t13.5 38zM274 744q0 -56 -35 -95t-85.5 -39t-85.5 39t-35 95t35 95t85.5 39t85.5 -39t35 -95zM-8 0v125h325v-125h-325z" />
    <glyph glyph-name="uni1338" unicode="&#x1338;" horiz-adv-x="459" 
d="M76 20v125q23 1 46 9q33 11 42 18q-53 14 -69 45q-30 61 -20 117q15 81 65 119q51 40 96 40q67 0 132 -30v-121q-29 21 -59 28q-36 8 -60 -12q-25 -23 -25 -53q0 -45 71 -62q52 -13 108 21v-125q-54 -36 -150 -75q-76 -31 -177 -44z" />
    <glyph glyph-name="uni1339" unicode="&#x1339;" horiz-adv-x="308" 
d="M76 760h157v-760h-157v760zM-17 887l73 60q46 -43 67 -48q34 -8 61 -9q31 0 57 10q51 20 86 55v-83q-28 -25 -79 -43q-37 -13 -67 -13q-44 0 -67 11q-25 11 -56 37l-75 -60v83z" />
    <glyph glyph-name="uni133A" unicode="&#x133a;" horiz-adv-x="337" 
d="M-17 887l73 60q46 -43 67 -48q34 -8 61 -9q31 0 57 10q51 20 86 55v-83q-28 -25 -79 -43q-37 -13 -67 -13q-44 0 -67 11q-25 11 -56 37l-75 -60v83zM76 181v579h157v-538q0 -52 22 -76q20 -21 49 -21h43v-125h-156q-57 0 -85 45q-30 47 -30 136z" />
    <glyph glyph-name="uni133B" unicode="&#x133b;" horiz-adv-x="308" 
d="M75 760h158v-760h-158v760zM71 834l34 9q-24 6 -31 22t-7 36q1 52 25 73q21 19 79 19q28 0 56 -11v-61q-31 10 -56 10q-19 0 -27 -4q-13 -7 -13 -31q0 -25 28 -33q10 -3 23 0l49 10v-63l-160 -38v62z" />
    <glyph glyph-name="uni133C" unicode="&#x133c;" horiz-adv-x="337" 
d="M75 181v579h158v-538q0 -52 21 -76q20 -21 49 -21h43v-125h-156q-57 0 -85 45q-30 47 -30 136zM71 834l34 9q-24 6 -31 22t-7 36q1 52 25 73q21 19 79 19q28 0 56 -11v-61q-31 10 -56 10q-19 0 -27 -4q-13 -7 -13 -31q0 -25 28 -33q10 -3 23 0l49 10v-63l-160 -38v62z
" />
    <glyph glyph-name="uni133D" unicode="&#x133d;" horiz-adv-x="559" 
d="M192 443l34 9q-24 6 -31 22q-7 17 -6 36q1 52 24 73q21 20 79 20q28 0 56 -11v-61q-31 10 -56 10q-19 0 -27 -5q-13 -7 -13 -30q0 -26 28 -33q10 -3 23 -1l49 10v-63l-160 -38v62zM492 76q0 -99 -39 -170q-41 -73 -137 -110q-108 -40 -353 -40v125q105 -4 180 9
q79 14 115 40q44 31 56 70q-14 0 -58 1q-98 2 -139 42q-43 41 -43 105q0 26 4 47q12 79 76 106q48 21 115 21q97 0 143 -27.5t69 -102.5q11 -40 11 -116zM329 159q-2 20 -23 39q-13 11 -30 11q-19 -1 -31 -15q-13 -14 -13 -28q0 -22 15 -31q16 -10 31 -10h54q0 20 -3 34z
" />
    <glyph glyph-name="uni133E" unicode="&#x133e;" horiz-adv-x="563" 
d="M192 443l34 9q-24 6 -31 22q-7 17 -6 36q1 52 24 73q21 20 79 20q28 0 56 -11v-61q-31 10 -56 10q-19 0 -27 -5q-13 -7 -13 -30q0 -26 28 -33q10 -3 23 -1l49 10v-63l-160 -38v62zM314 0q-14 0 -58 1q-98 2 -139 42q-43 41 -43 105q0 26 4 47q12 79 76 106q48 21 115 21
q108 1 149 -28q39 -26 63 -102q8 -27 11 -67h81v-125h-88q-4 -44 -32 -94q-41 -73 -137 -110q-108 -40 -353 -40v125q105 -4 180 9q77 14 115 40q44 31 56 70zM329 159q-2 20 -23 39q-13 11 -30 11q-19 -1 -31 -15q-13 -14 -13 -28q0 -22 15 -31q16 -10 31 -10h54
q0 20 -3 34z" />
    <glyph glyph-name="uni133F" unicode="&#x133f;" horiz-adv-x="308" 
d="M75 760h158v-760h-158v760zM72 -182l34 9q-24 6 -31 22t-7 36q1 52 25 73q21 19 79 19q28 0 56 -11v-61q-31 10 -56 10q-19 0 -27 -4q-13 -7 -13 -31q0 -25 28 -33q10 -3 23 0l49 9v-63l-160 -37v62z" />
    <glyph glyph-name="uni1340" unicode="&#x1340;" horiz-adv-x="337" 
d="M75 181v579h158v-538q0 -52 21 -76q20 -21 49 -21h43v-125h-156q-57 0 -85 45q-30 47 -30 136zM72 -182l34 9q-24 6 -31 22t-7 36q1 52 25 73q21 19 79 19q28 0 56 -11v-61q-31 10 -56 10q-19 0 -27 -4q-13 -7 -13 -31q0 -25 28 -33q10 -3 23 0l49 9v-63l-160 -37v62z
" />
    <glyph glyph-name="uni1341" unicode="&#x1341;" horiz-adv-x="824" 
d="M721 32q-39 -77 -216 -119q-87 -20 -148 -20q-134 0 -171 14q-128 52 -129 178q0 68 28 113h158q-31 -50 -29 -113q1 -38 57 -59q22 -8 78 -8q64 0 123 17q108 32 109 78q0 47 -54 68l-79 29q-32 16 -55 39q-28 27 -29 84q0 82 84 109q61 20 124 20q75 0 122 -23
q71 -34 83 -123h-139q-10 34 -60 33q-41 0 -51 -15q-11 -16 -11 -21q1 -17 55 -32q95 -26 134 -80q34 -47 34 -96q1 -36 -18 -73zM159 443l34 9q-24 6 -31 22q-7 17 -6 36q1 52 24 73q21 20 79 20q28 0 56 -11v-61q-31 10 -56 10q-19 0 -27 -5q-13 -7 -13 -30q0 -26 28 -33
q10 -3 23 -1l49 10v-63l-160 -38v62z" />
    <glyph glyph-name="uni1342" unicode="&#x1342;" horiz-adv-x="824" 
d="M247 321l34 9q-24 6 -31 22q-7 17 -6 36q1 52 24 73q21 19 79 19q28 0 56 -10v-61q-31 9 -56 9q-19 0 -27 -4q-13 -7 -13 -30q0 -26 28 -33q10 -3 23 -1l49 10v-63l-160 -38v62zM536 -106q-83 -20 -163 -20q-149 -1 -187 14q-128 51 -129 173q0 67 28 112h158
q-31 -49 -29 -112q1 -34 57 -54q22 -8 93 -8q82 0 139 17q64 19 64 36q0 12 -11 21q-24 18 -29 23q-14 18 -14 59q0 48 22 71q32 36 54 47q33 17 99 17q113 0 158 -90q38 -75 61 -75h13v-125h-27q-75 0 -124 88q-39 72 -69 72q-8 0 -11 -2q-20 -8 -20 -27q0 -21 25 -33
q29 -13 29 -72q0 -87 -187 -132z" />
    <glyph glyph-name="uni1343" unicode="&#x1343;" horiz-adv-x="337" 
d="M101 468l35 9q-24 5 -31 22q-8 16 -7 36q1 51 24 72q21 20 79 20q29 0 56 -11v-61q-31 10 -56 10q-19 0 -27 -4q-13 -7 -13 -31q0 -25 28 -33q11 -3 24 0l48 9v-63l-160 -37v62zM263 181q0 -89 -30 -136q-28 -45 -84 -45h-157v125h43q30 0 49 21q22 24 22 76v71h157v-112
z" />
    <glyph glyph-name="uni1344" unicode="&#x1344;" horiz-adv-x="367" 
d="M101 468l35 9q-24 5 -31 22q-8 16 -7 36q1 51 24 72q21 20 79 20q29 0 56 -11v-61q-31 10 -56 10q-19 0 -27 -4q-13 -7 -13 -31q0 -25 28 -33q11 -3 24 0l48 9v-63l-160 -37v62zM377 0h-111q-47 0 -82 53q-33 -53 -82 -53h-110v125h43q30 0 49 21q22 24 22 76v71h157v-71
q0 -52 21 -76q20 -21 50 -21h43v-125z" />
    <glyph glyph-name="uni1345" unicode="&#x1345;" horiz-adv-x="308" 
d="M75 760h157v-760h-157v760z" />
    <glyph glyph-name="uni1346" unicode="&#x1346;" horiz-adv-x="337" 
d="M75 181v579h157v-538q0 -52 22 -76q19 -21 49 -21h43v-125h-157q-56 0 -84 45q-30 47 -30 136z" />
    <glyph glyph-name="uni1347" unicode="&#x1347;" horiz-adv-x="904" 
d="M829 327q22 -125 -27 -194q-50 -69 -149 -99q-124 -38 -292 -39q-103 0 -158 14q-145 37 -146 178q0 67 28 112h158q-23 -46 -23 -90t83 -76q32 -12 68 -12q91 0 159 23q107 34 129 77q28 55 13 106h157zM396 -76h66v-73h-66v73z" />
    <glyph glyph-name="uni1348" unicode="&#x1348;" horiz-adv-x="952" 
d="M396 -76h66v-73h-66v73zM741 79q-19 -25 -88 -45q-128 -38 -292 -39q-103 0 -158 14q-145 37 -146 178q0 67 28 112h158q-23 -46 -23 -90t83 -76q32 -12 68 -12q91 0 159 23q107 35 129 77q28 55 13 106h157q7 -37 7 -59q0 -72 24 -109q22 -34 69 -34h33v-125h-57
q-119 0 -164 79z" />
    <glyph glyph-name="uni1349" unicode="&#x1349;" horiz-adv-x="337" 
d="M152 -100h66v-73h-66v73zM263 181q0 -89 -30 -136q-28 -45 -84 -45h-157v125h43q30 0 49 21q22 24 22 76v71h157v-112z" />
    <glyph glyph-name="uni134A" unicode="&#x134a;" horiz-adv-x="367" 
d="M152 -100h66v-73h-66v73zM377 0h-111q-47 0 -82 53q-33 -53 -82 -53h-110v125h43q30 0 49 21q22 24 22 76v71h157v-71q0 -52 21 -76q20 -21 50 -21h43v-125z" />
    <glyph glyph-name="uni134B" unicode="&#x134b;" horiz-adv-x="531" 
d="M250 234q-38 0 -44 -21q-7 -21 -6 -59q0 -33 26 -50q14 -8 38 -8q18 0 36 12q28 21 28 43q0 20 -20 44q-34 39 -58 39zM234 358q97 0 189 -78q63 -52 62 -133q-1 -83 -65 -134q-52 -42 -155 -42q-76 0 -138 20q-84 28 -85 151q0 88 17 126q40 90 175 90zM241 513h66v-74
h-66v74zM131 513h66v-74h-66v74z" />
    <glyph glyph-name="uni134C" unicode="&#x134c;" horiz-adv-x="545" 
d="M285 513h66v-74h-66v74zM175 513h66v-74h-66v74zM308 155q-6 19 -9 44l-4 25q-42 -5 -60 -21q-20 -17 -20 -43q0 -24 30 -24q42 0 63 19zM288 340q-2 16 -2 26h157q1 -97 16 -167q9 -40 27 -53q30 -21 35 -21h33v-125h-99q-40 0 -71 17q-29 15 -36 32q-48 -32 -152 -31
q-24 0 -50 7q-88 23 -88 114q0 93 95 160q47 34 135 41z" />
    <glyph glyph-name="uni134D" unicode="&#x134d;" horiz-adv-x="904" 
d="M829 327q22 -125 -27 -194q-50 -69 -149 -99q-124 -38 -292 -39q-103 0 -158 14q-145 37 -146 178q0 67 28 112h158q-23 -46 -23 -90t83 -76q32 -12 68 -12q91 0 159 23q107 34 129 77q28 55 13 106h157zM451 415h66v-73h-66v73zM341 415h66v-73h-66v73z" />
    <glyph glyph-name="uni134E" unicode="&#x134e;" horiz-adv-x="952" 
d="M451 415h66v-73h-66v73zM341 415h66v-73h-66v73zM741 79q-19 -25 -88 -45q-128 -38 -292 -39q-103 0 -158 14q-145 37 -146 178q0 67 28 112h158q-23 -46 -23 -90t83 -76q32 -12 68 -12q91 0 159 23q107 35 129 77q28 55 13 106h157q7 -37 7 -59q0 -72 24 -109
q22 -34 69 -34h33v-125h-57q-119 0 -164 79z" />
    <glyph glyph-name="uni134F" unicode="&#x134f;" horiz-adv-x="337" 
d="M206 488h66v-73h-66v73zM96 488h66v-73h-66v73zM263 181q0 -89 -30 -136q-28 -45 -84 -45h-157v125h43q30 0 49 21q22 24 22 76v71h157v-112z" />
    <glyph glyph-name="uni1350" unicode="&#x1350;" horiz-adv-x="367" 
d="M206 488h66v-73h-66v73zM96 488h66v-73h-66v73zM377 0h-111q-47 0 -82 53q-33 -53 -82 -53h-110v125h43q30 0 49 21q22 24 22 76v71h157v-71q0 -52 21 -76q20 -21 50 -21h43v-125z" />
    <glyph glyph-name="uni1351" unicode="&#x1351;" horiz-adv-x="904" 
d="M829 327q22 -125 -27 -194q-50 -69 -149 -99q-124 -38 -292 -39q-103 0 -158 14q-145 37 -146 178q0 67 28 112h158q-23 -46 -23 -90t83 -76q32 -12 68 -12q91 0 159 23q107 34 129 77q28 55 13 106h157zM396 537h66v-73h-66v73zM451 415h66v-73h-66v73zM341 415h66v-73
h-66v73z" />
    <glyph glyph-name="uni1352" unicode="&#x1352;" horiz-adv-x="952" 
d="M396 537h66v-73h-66v73zM451 415h66v-73h-66v73zM341 415h66v-73h-66v73zM741 79q-19 -25 -88 -45q-128 -38 -292 -39q-103 0 -158 14q-145 37 -146 178q0 67 28 112h158q-23 -46 -23 -90t83 -76q32 -12 68 -12q91 0 159 23q107 35 129 77q28 55 13 106h157q7 -37 7 -59
q0 -72 24 -109q22 -34 69 -34h33v-125h-57q-119 0 -164 79z" />
    <glyph glyph-name="uni1353" unicode="&#x1353;" horiz-adv-x="337" 
d="M151 610h67v-73h-67v73zM206 488h66v-73h-66v73zM96 488h66v-73h-66v73zM263 181q0 -89 -30 -136q-28 -45 -84 -45h-157v125h43q30 0 49 21q22 24 22 76v71h157v-112z" />
    <glyph glyph-name="uni1354" unicode="&#x1354;" horiz-adv-x="367" 
d="M151 610h67v-73h-67v73zM206 488h66v-73h-66v73zM96 488h66v-73h-66v73zM377 0h-111q-47 0 -82 53q-33 -53 -82 -53h-110v125h43q30 0 49 21q22 24 22 76v71h157v-71q0 -52 21 -76q20 -21 50 -21h43v-125z" />
    <glyph glyph-name="uni1355" unicode="&#x1355;" horiz-adv-x="648" 
d="M557 281q-147 10 -233 -67q-89 -80 -89 -177q0 -59 45 -111q40 -45 144 -45q132 0 223 75v-135q-72 -65 -221 -65q-191 0 -279 97q-69 75 -69 184q0 87 61 171q45 61 132 99q-36 1 -102 -9q-59 -9 -101 -29v125q120 31 207 31q155 0 282 -19v-125zM405 90h66v-73h-66v73z
" />
    <glyph glyph-name="uni1356" unicode="&#x1356;" horiz-adv-x="648" 
d="M532 282q0 -29 32 -99q27 -58 64 -58h28v-125h-37q-70 0 -123 73q-31 43 -57 103q-22 53 -30 88q-48 -17 -85 -50q-89 -80 -89 -177q0 -59 45 -111q40 -45 144 -45q132 0 223 75v-135q-72 -65 -221 -65q-191 0 -279 97q-69 75 -69 184q0 87 61 171q45 61 132 99
q-36 1 -102 -9q-59 -9 -101 -29v125q120 31 207 31q155 0 282 -19v-125q-6 1 -11 1h-14zM340 42h66v-74h-66v74z" />
    <glyph glyph-name="uni1357" unicode="&#x1357;" horiz-adv-x="648" 
d="M275 -100h66v-73h-66v73zM382 246q-33 12 -83 20q-41 5 -109 12q-31 3 -107 -2v125q32 3 65 4q106 0 190 -17q123 -25 228 -60v-125q-40 -15 -89 -48q-57 -37 -116 -82q-51 -38 -144 -56q-85 -17 -169 -17h-56v125h44q91 0 151 17q63 17 111 51q42 30 84 53z" />
    <glyph glyph-name="uni1358" unicode="&#x1358;" horiz-adv-x="648" 
d="M275 -100h66v-73h-66v73zM440 131q-36 -28 -79 -58q-60 -40 -144 -56q-85 -17 -169 -17h-56v125h44q91 0 151 17q63 17 111 51q42 30 84 53q-33 12 -83 20q-41 5 -109 12q-31 3 -107 -2v125q32 3 65 4q106 0 190 -17q123 -25 228 -60v-125l-20 -9q9 -24 19 -36
q26 -33 64 -33h29v-125h-38q-89 0 -136 57q-23 28 -44 74z" />
    <glyph glyph-name="uni1359" unicode="&#x1359;" horiz-adv-x="648" 
d="M557 281q-147 10 -233 -67q-89 -80 -89 -177q0 -59 45 -111q40 -45 144 -45q132 0 223 75v-135q-72 -65 -221 -65q-191 0 -279 97q-69 75 -69 184q0 87 61 171q45 61 132 99q-36 1 -102 -9q-59 -9 -101 -29v125q120 31 207 31q155 0 282 -19v-125z" />
    <glyph glyph-name="uni135A" unicode="&#x135a;" horiz-adv-x="648" 
d="M532 282q0 -29 32 -99q27 -58 64 -58h28v-125h-37q-70 0 -123 73q-31 43 -57 103q-22 53 -30 88q-48 -17 -85 -50q-89 -80 -89 -177q0 -59 45 -111q40 -45 144 -45q132 0 223 75v-135q-72 -65 -221 -65q-191 0 -279 97q-69 75 -69 184q0 87 61 171q45 61 132 99
q-36 1 -102 -9q-59 -9 -101 -29v125q120 31 207 31q155 0 282 -19v-125q-6 1 -11 1h-14z" />
    <glyph glyph-name="uni135B" unicode="&#x135b;" horiz-adv-x="648" 
d="M382 246q-33 12 -83 20q-41 5 -109 12q-31 3 -107 -2v125q32 3 65 4q106 0 190 -17q123 -25 228 -60v-125q-40 -15 -89 -48q-57 -37 -116 -82q-51 -38 -144 -56q-85 -17 -169 -17h-56v125h44q91 0 151 17q63 17 111 51q42 30 84 53z" />
    <glyph glyph-name="uni135C" unicode="&#x135c;" horiz-adv-x="648" 
d="M440 131q-36 -28 -79 -58q-60 -40 -144 -56q-85 -17 -169 -17h-56v125h44q91 0 151 17q63 17 111 51q42 30 84 53q-33 12 -83 20q-41 5 -109 12q-31 3 -107 -2v125q32 3 65 4q106 0 190 -17q123 -25 228 -60v-125l-20 -9q9 -24 19 -36q26 -33 64 -33h29v-125h-38
q-89 0 -136 57q-23 28 -44 74z" />
    <glyph glyph-name="uni135D" unicode="&#x135d;" horiz-adv-x="648" 
d="M557 281q-147 10 -233 -67q-89 -80 -89 -177q0 -59 45 -111q40 -45 144 -45q132 0 223 75v-135q-72 -65 -221 -65q-191 0 -279 97q-69 75 -69 184q0 87 61 171q45 61 132 99q-36 1 -102 -9q-59 -9 -101 -29v125q120 31 207 31q155 0 282 -19v-125zM274 579h65v-74h-65v74
z" />
    <glyph glyph-name="uni135E" unicode="&#x135e;" horiz-adv-x="648" 
d="M274 579h65v-74h-65v74zM532 282q0 -29 32 -99q27 -58 64 -58h28v-125h-37q-70 0 -123 73q-31 43 -57 103q-22 53 -30 88q-48 -17 -85 -50q-89 -80 -89 -177q0 -59 45 -111q40 -45 144 -45q132 0 223 75v-135q-72 -65 -221 -65q-191 0 -279 97q-69 75 -69 184
q0 87 61 171q45 61 132 99q-36 1 -102 -9q-59 -9 -101 -29v125q120 31 207 31q155 0 282 -19v-125q-6 1 -11 1h-14z" />
    <glyph glyph-name="uni135F" unicode="&#x135f;" horiz-adv-x="648" 
d="M382 246q-33 12 -83 20q-41 5 -109 12q-31 3 -107 -2v125q32 3 65 4q106 0 190 -17q123 -25 228 -60v-125q-40 -15 -89 -48q-57 -37 -116 -82q-51 -38 -144 -56q-85 -17 -169 -17h-56v125h44q91 0 151 17q63 17 111 51q42 30 84 53zM275 530h66v-73h-66v73z" />
    <glyph glyph-name="uni1360" unicode="&#x1360;" horiz-adv-x="648" 
d="M440 131q-36 -28 -79 -58q-60 -40 -144 -56q-85 -17 -169 -17h-56v125h44q91 0 151 17q63 17 111 51q42 30 84 53q-33 12 -83 20q-41 5 -109 12q-31 3 -107 -2v125q32 3 65 4q106 0 190 -17q123 -25 228 -60v-125l-20 -9q9 -24 19 -36q26 -33 64 -33h29v-125h-38
q-89 0 -136 57q-23 28 -44 74zM275 530h66v-73h-66v73z" />
    <glyph glyph-name="uni1361" unicode="&#x1361;" horiz-adv-x="461" 
d="M171 108q77 23 88 62q12 43 -20 111q-27 59 -96 134h162q58 -80 70 -105q56 -111 22 -210q-32 -93 -194 -115q-84 -12 -149 15v125q69 -30 117 -17z" />
    <glyph glyph-name="uni1362" unicode="&#x1362;" horiz-adv-x="519" 
d="M404 231q12 -54 40 -85q19 -21 51 -21h33v-125h-57q-80 0 -104 51q-55 -51 -164 -66q-84 -12 -149 15v125q69 -30 117 -17q77 22 88 62q12 43 -20 111q-27 59 -96 134h162q58 -80 70 -105q20 -40 29 -79z" />
    <glyph glyph-name="uni1363" unicode="&#x1363;" horiz-adv-x="461" 
d="M171 108q77 23 88 62q12 43 -20 111q-27 59 -96 134h162q58 -80 70 -105q56 -111 22 -210q-32 -93 -194 -115q-84 -12 -149 15v125q69 -30 117 -17zM186 579h66v-74h-66v74z" />
    <glyph glyph-name="uni1364" unicode="&#x1364;" horiz-adv-x="519" 
d="M186 579h66v-74h-66v74zM404 231q12 -54 40 -85q19 -21 51 -21h33v-125h-57q-80 0 -104 51q-55 -51 -164 -66q-84 -12 -149 15v125q69 -30 117 -17q77 22 88 62q12 43 -20 111q-27 59 -96 134h162q58 -80 70 -105q20 -40 29 -79z" />
    <glyph glyph-name="uni1365" unicode="&#x1365;" horiz-adv-x="518" 
d="M270 0q31 50 31 139q-1 70 -23 130h157q22 -74 22 -130q0 -130 -38 -194q-57 -92 -154 -140q-101 -49 -302 -49v125q136 0 204 33q67 32 103 86z" />
    <glyph glyph-name="uni1366" unicode="&#x1366;" horiz-adv-x="559" 
d="M445 13q-10 -40 -26 -68q-57 -92 -154 -140q-101 -49 -302 -49v125q136 0 204 33q67 33 103 86q31 49 31 139q-1 70 -23 130h157q5 -17 9 -33q15 -61 40 -90q20 -21 52 -21h33v-125h-57q-38 0 -67 13z" />
    <glyph glyph-name="uni1367" unicode="&#x1367;" horiz-adv-x="518" 
d="M270 0q31 50 31 139q-1 70 -23 130h157q22 -74 22 -130q0 -130 -38 -194q-57 -92 -154 -140q-101 -49 -302 -49v125q136 0 204 33q67 32 103 86zM318 457h66v-74h-66v74z" />
    <glyph glyph-name="uni1368" unicode="&#x1368;" horiz-adv-x="559" 
d="M318 457h66v-74h-66v74zM445 13q-10 -40 -26 -68q-57 -92 -154 -140q-101 -49 -302 -49v125q136 0 204 33q67 33 103 86q31 49 31 139q-1 70 -23 130h157q5 -17 9 -33q15 -61 40 -90q20 -21 52 -21h33v-125h-57q-38 0 -67 13z" />
    <glyph glyph-name="uni1369" unicode="&#x1369;" horiz-adv-x="1241" 
d="M455 -20q26 51 26 108q0 59 -7 91l-28 114h157l16 -76q7 -36 19 -66q12 -28 48 -29q32 0 42 26q17 41 17 145h157q0 -100 8 -125q16 -46 45 -46q55 0 55 101v143h157v-167q0 -97 -40 -152q-32 -44 -94 -55q-29 -6 -79 -6q-36 0 -61 14q-65 35 -70 83q-15 -65 -76 -83
q-32 -9 -63 -9q-37 0 -67 44q0 -89 -35 -147q-52 -88 -155 -119q-42 -13 -108 -13q-87 0 -133 17q-129 50 -129 216q0 96 46 184h158q-48 -101 -48 -184q1 -77 64 -97q16 -6 40 -6q48 0 82 29q39 32 56 65z" />
    <glyph glyph-name="uni136A" unicode="&#x136a;" horiz-adv-x="1271" 
d="M686 122q33 -1 42 26q17 48 17 145h157q0 -100 8 -125q16 -46 45 -46q55 0 55 101v143h157v-144q0 -52 21 -76q20 -21 50 -21h43v-125h-118q-35 0 -57 25q-38 -26 -73 -33q-27 -6 -79 -6q-36 0 -61 14q-65 35 -70 83q-15 -65 -76 -83q-32 -9 -63 -9q-37 0 -67 44
q0 -89 -35 -147q-52 -88 -155 -119q-42 -13 -108 -13q-87 0 -133 17q-129 50 -129 216q0 96 46 184h158q-48 -101 -48 -184q1 -77 64 -97q16 -6 40 -6q48 0 82 29q39 32 56 65q26 51 26 108q0 59 -7 91l-28 114h157l16 -76q7 -36 19 -66q11 -27 48 -29z" />
    <glyph glyph-name="uni136B" unicode="&#x136b;" horiz-adv-x="884" 
d="M180 38q-32 -38 -70 -38h-118v125h43q30 0 49 21q22 25 22 76l-1 71h158v-76q0 -18 20 -66q11 -28 48 -29q31 0 41 26q17 41 17 145h157q0 -100 9 -125q15 -46 44 -46q55 0 55 101v143h157v-167q0 -97 -40 -152q-31 -44 -93 -55q-30 -6 -80 -6q-35 0 -61 14
q-65 35 -69 83q-16 -65 -77 -83q-31 -9 -62 -9q-112 0 -149 47z" />
    <glyph glyph-name="uni136C" unicode="&#x136c;" horiz-adv-x="915" 
d="M678 -8q-30 -6 -80 -6q-35 0 -61 14q-65 35 -69 83q-16 -65 -77 -83q-31 -9 -62 -9q-112 0 -149 47q-32 -38 -70 -38h-118v125h43q30 0 49 21q22 25 22 76l-1 71h158v-76q0 -18 20 -66q11 -28 48 -29q31 0 41 26q17 41 17 145h157q0 -100 9 -125q15 -46 44 -46
q55 0 55 101v143h157v-144q0 -52 22 -76q19 -21 49 -21h44v-125h-119q-34 0 -56 25q-39 -26 -73 -33z" />
    <glyph glyph-name="uni136D" unicode="&#x136d;" horiz-adv-x="1241" 
d="M696 586h67v-73h-67v73zM751 464h66v-73h-66v73zM641 464h66v-73h-66v73zM455 -20q26 51 26 108q0 59 -7 91l-28 114h157l16 -76q7 -36 19 -66q12 -28 48 -29q32 0 42 26q17 41 17 145h157q0 -100 8 -125q16 -46 45 -46q55 0 55 101v143h157v-167q0 -97 -40 -152
q-32 -44 -94 -55q-29 -6 -79 -6q-36 0 -61 14q-65 35 -70 83q-15 -65 -76 -83q-32 -9 -63 -9q-37 0 -67 44q0 -89 -35 -147q-52 -88 -155 -119q-42 -13 -108 -13q-87 0 -133 17q-129 50 -129 216q0 96 46 184h158q-48 -101 -48 -184q1 -77 64 -97q16 -6 40 -6q48 0 82 29
q39 32 56 65z" />
    <glyph glyph-name="uni136E" unicode="&#x136e;" horiz-adv-x="1271" 
d="M696 586h67v-73h-67v73zM751 464h66v-73h-66v73zM641 464h66v-73h-66v73zM686 122q33 -1 42 26q17 48 17 145h157q0 -100 8 -125q16 -46 45 -46q55 0 55 101v143h157v-144q0 -52 21 -76q20 -21 50 -21h43v-125h-118q-35 0 -57 25q-38 -26 -73 -33q-27 -6 -79 -6
q-36 0 -61 14q-65 35 -70 83q-15 -65 -76 -83q-32 -9 -63 -9q-37 0 -67 44q0 -89 -35 -147q-52 -88 -155 -119q-42 -13 -108 -13q-87 0 -133 17q-129 50 -129 216q0 96 46 184h158q-48 -101 -48 -184q1 -77 64 -97q16 -6 40 -6q48 0 82 29q39 32 56 65q26 51 26 108
q0 59 -7 91l-28 114h157l16 -76q7 -36 19 -66q11 -27 48 -29z" />
    <glyph glyph-name="uni136F" unicode="&#x136f;" horiz-adv-x="884" 
d="M411 586h67v-73h-67v73zM467 464h66v-73h-66v73zM357 464h66v-73h-66v73zM180 38q-32 -38 -70 -38h-118v125h43q30 0 49 21q22 25 22 76l-1 71h158v-76q0 -18 20 -66q11 -28 48 -29q31 0 41 26q17 41 17 145h157q0 -100 9 -125q15 -46 44 -46q55 0 55 101v143h157v-167
q0 -97 -40 -152q-31 -44 -93 -55q-30 -6 -80 -6q-35 0 -61 14q-65 35 -69 83q-16 -65 -77 -83q-31 -9 -62 -9q-112 0 -149 47z" />
    <glyph glyph-name="uni1370" unicode="&#x1370;" horiz-adv-x="915" 
d="M411 586h67v-73h-67v73zM467 464h66v-73h-66v73zM357 464h66v-73h-66v73zM678 -8q-30 -6 -80 -6q-35 0 -61 14q-65 35 -69 83q-16 -65 -77 -83q-31 -9 -62 -9q-112 0 -149 47q-32 -38 -70 -38h-118v125h43q30 0 49 21q22 25 22 76l-1 71h158v-76q0 -18 20 -66
q11 -28 48 -29q31 0 41 26q17 41 17 145h157q0 -100 9 -125q15 -46 44 -46q55 0 55 101v143h157v-144q0 -52 22 -76q19 -21 49 -21h44v-125h-119q-34 0 -56 25q-39 -26 -73 -33z" />
    <glyph glyph-name="uni1371" unicode="&#x1371;" horiz-adv-x="1210" 
d="M481 88q0 44 -23 132h146q1 -15 6 -34q7 -22 22 -44q46 108 131 169q71 51 140 51q81 0 133 -25q102 -48 102 -143q0 -103 -81 -150q-76 -44 -253 -44h-109q-27 0 -57 15q-12 6 -21 20q0 -89 -35 -147q-52 -88 -155 -119q-42 -13 -108 -13q-87 0 -133 17
q-129 50 -129 216q0 96 46 184h158q-48 -101 -48 -184q1 -77 64 -97q16 -6 40 -6q48 0 82 29q39 32 56 65q26 51 26 108zM775 125h30q69 0 124 24q52 23 52 50q0 14 -26 27q-23 11 -45 11q-33 -1 -82 -40q-29 -24 -53 -72z" />
    <glyph glyph-name="uni1372" unicode="&#x1372;" horiz-adv-x="1227" 
d="M695 0q-27 0 -57 15q-12 6 -21 20q0 -89 -35 -147q-52 -88 -155 -119q-42 -13 -108 -13q-87 0 -133 17q-129 50 -129 216q0 96 46 184h158q-48 -101 -48 -184q1 -77 64 -97q16 -6 40 -6q48 0 82 29q39 32 56 65q26 51 26 108q0 44 -23 132h146q1 -15 6 -34q7 -22 22 -44
q46 108 131 169q71 51 140 51q81 0 133 -25q102 -48 102 -143q0 -24 31 -52q20 -17 38 -17h30v-125h-38q-83 0 -122 59q-9 -8 -20 -15q-71 -44 -253 -44h-109zM775 125h30q69 0 124 24q52 23 52 50q0 14 -26 27q-23 11 -45 11q-33 -1 -82 -40q-29 -24 -53 -72z" />
    <glyph glyph-name="uni1373" unicode="&#x1373;" horiz-adv-x="869" 
d="M201 56q-47 -56 -91 -56h-118v125h43q30 0 49 21q22 25 22 76l-1 71h158v-76q0 -50 29 -75q46 108 130 169q72 51 141 51q81 0 134 -25q101 -48 101 -143q0 -103 -81 -150q-76 -44 -253 -44h-121q-45 0 -87 15q-34 11 -55 41zM434 125h31q69 0 124 24q51 23 51 50
q0 14 -25 27q-23 11 -45 11q-33 -1 -81 -40q-30 -24 -55 -72z" />
    <glyph glyph-name="uni1374" unicode="&#x1374;" horiz-adv-x="886" 
d="M717 44q-73 -44 -253 -44h-121q-45 0 -87 15q-34 11 -55 41q-47 -56 -91 -56h-118v125h43q30 0 49 21q22 25 22 76l-1 71h158v-76q0 -50 29 -75q46 108 130 169q72 51 141 51q81 0 134 -25q101 -48 101 -143q0 -24 31 -52q20 -17 38 -17h29v-125h-37q-83 0 -122 59
q-11 -10 -20 -15zM434 125h31q69 0 124 24q51 23 51 50q0 14 -25 27q-23 11 -45 11q-33 -1 -81 -40q-30 -24 -55 -72z" />
    <glyph glyph-name="uni1375" unicode="&#x1375;" horiz-adv-x="1210" 
d="M604 457h66v-74h-66v74zM481 88q0 44 -23 132h146q1 -15 6 -34q7 -22 22 -44q46 108 131 169q71 51 140 51q81 0 133 -25q102 -48 102 -143q0 -103 -81 -150q-76 -44 -253 -44h-109q-27 0 -57 15q-12 6 -21 20q0 -89 -35 -147q-52 -88 -155 -119q-42 -13 -108 -13
q-87 0 -133 17q-129 50 -129 216q0 96 46 184h158q-48 -101 -48 -184q1 -77 64 -97q16 -6 40 -6q48 0 82 29q39 32 56 65q26 51 26 108zM775 125h30q69 0 124 24q52 23 52 50q0 14 -26 27q-23 11 -45 11q-33 -1 -82 -40q-29 -24 -53 -72z" />
    <glyph glyph-name="uni1376" unicode="&#x1376;" horiz-adv-x="1227" 
d="M604 457h66v-74h-66v74zM695 0q-27 0 -57 15q-12 6 -21 20q0 -89 -35 -147q-52 -88 -155 -119q-42 -13 -108 -13q-87 0 -133 17q-129 50 -129 216q0 96 46 184h158q-48 -101 -48 -184q1 -77 64 -97q16 -6 40 -6q48 0 82 29q39 32 56 65q26 51 26 108q0 44 -23 132h146
q1 -15 6 -34q7 -22 22 -44q46 108 131 169q71 51 140 51q81 0 133 -25q102 -48 102 -143q0 -24 31 -52q20 -17 38 -17h30v-125h-38q-83 0 -122 59q-9 -8 -20 -15q-71 -44 -253 -44h-109zM775 125h30q69 0 124 24q52 23 52 50q0 14 -26 27q-23 11 -45 11q-33 -1 -82 -40
q-29 -24 -53 -72z" />
    <glyph glyph-name="uni1377" unicode="&#x1377;" horiz-adv-x="869" 
d="M275 481h66v-73h-66v73zM201 56q-47 -56 -91 -56h-118v125h43q30 0 49 21q22 25 22 76l-1 71h158v-76q0 -50 29 -75q46 108 130 169q72 51 141 51q81 0 134 -25q101 -48 101 -143q0 -103 -81 -150q-76 -44 -253 -44h-121q-45 0 -87 15q-34 11 -55 41zM434 125h31
q69 0 124 24q51 23 51 50q0 14 -25 27q-23 11 -45 11q-33 -1 -81 -40q-30 -24 -55 -72z" />
    <glyph glyph-name="uni1378" unicode="&#x1378;" horiz-adv-x="886" 
d="M275 481h66v-73h-66v73zM717 44q-73 -44 -253 -44h-121q-45 0 -87 15q-34 11 -55 41q-47 -56 -91 -56h-118v125h43q30 0 49 21q22 25 22 76l-1 71h158v-76q0 -50 29 -75q46 108 130 169q72 51 141 51q81 0 134 -25q101 -48 101 -143q0 -24 31 -52q20 -17 38 -17h29v-125
h-37q-83 0 -122 59q-11 -10 -20 -15zM434 125h31q69 0 124 24q51 23 51 50q0 14 -25 27q-23 11 -45 11q-33 -1 -81 -40q-30 -24 -55 -72z" />
    <glyph glyph-name="uni1379" unicode="&#x1379;" horiz-adv-x="934" 
d="M509 125h30q69 0 125 24q51 23 51 50q0 14 -26 27q-23 11 -44 11q-33 -1 -82 -40q-29 -24 -54 -72zM539 0h-287h-190v125h147v635h158v-583q61 84 130 134q72 51 141 51q81 0 133 -25q102 -48 102 -143q0 -103 -82 -150q-76 -44 -252 -44z" />
    <glyph glyph-name="uni137A" unicode="&#x137a;" horiz-adv-x="963" 
d="M791 44q-73 -44 -252 -44h-287h-190v125h147v635h158v-583q61 84 130 134q72 51 141 51q81 0 133 -25q102 -48 102 -143q0 -24 31 -52q19 -17 38 -17h29v-125h-38q-83 0 -121 59q-7 -6 -21 -15zM509 125h30q69 0 125 24q51 23 51 50q0 14 -26 27q-23 11 -44 11
q-33 -1 -82 -40q-29 -24 -54 -72z" />
    <glyph glyph-name="uni137B" unicode="&#x137b;" horiz-adv-x="847" 
d="M425 125h29q70 0 125 24q52 23 52 50q0 14 -26 27q-24 11 -45 11q-33 -1 -82 -40q-29 -24 -53 -72zM454 0h-287h-175v125h133v635h157v-583q61 84 130 134q72 51 141 51q81 0 133 -25q102 -48 102 -143q0 -103 -81 -150q-76 -44 -253 -44z" />
    <glyph glyph-name="uni137C" unicode="&#x137c;" horiz-adv-x="876" 
d="M167 0h-175v125h133v635h157v-583q61 84 130 134q72 51 141 51q81 0 133 -25q102 -48 102 -143q0 -24 31 -52q20 -17 38 -17h30v-125h-39q-83 0 -121 59q-6 -6 -20 -15q-73 -44 -253 -44h-287zM425 125h29q70 0 125 24q52 23 52 50q0 14 -26 27q-24 11 -45 11
q-33 -1 -82 -40q-29 -24 -53 -72z" />
    <glyph glyph-name="uni137D" unicode="&#x137d;" horiz-adv-x="934" 
d="M509 125h30q69 0 125 24q51 23 51 50q0 14 -26 27q-23 11 -44 11q-33 -1 -82 -40q-29 -24 -54 -72zM539 0h-287h-190v125h147v635h158v-583q61 84 130 134q72 51 141 51q81 0 133 -25q102 -48 102 -143q0 -103 -82 -150q-76 -44 -252 -44zM498 481h65v-73h-65v73z" />
    <glyph glyph-name="uni137E" unicode="&#x137e;" horiz-adv-x="963" 
d="M498 481h65v-73h-65v73zM791 44q-73 -44 -252 -44h-287h-190v125h147v635h158v-583q61 84 130 134q72 51 141 51q81 0 133 -25q102 -48 102 -143q0 -24 31 -52q19 -17 38 -17h29v-125h-38q-83 0 -121 59q-7 -6 -21 -15zM509 125h30q69 0 125 24q51 23 51 50q0 14 -26 27
q-23 11 -44 11q-33 -1 -82 -40q-29 -24 -54 -72z" />
    <glyph glyph-name="uni137F" unicode="&#x137f;" horiz-adv-x="847" 
d="M412 481h66v-73h-66v73zM425 125h29q70 0 125 24q52 23 52 50q0 14 -26 27q-24 11 -45 11q-33 -1 -82 -40q-29 -24 -53 -72zM454 0h-287h-175v125h133v635h157v-583q61 84 130 134q72 51 141 51q81 0 133 -25q102 -48 102 -143q0 -103 -81 -150q-76 -44 -253 -44z" />
    <glyph glyph-name="uni1380" unicode="&#x1380;" horiz-adv-x="876" 
d="M412 481h66v-73h-66v73zM167 0h-175v125h133v635h157v-583q61 84 130 134q72 51 141 51q81 0 133 -25q102 -48 102 -143q0 -24 31 -52q20 -17 38 -17h30v-125h-39q-83 0 -121 59q-6 -6 -20 -15q-73 -44 -253 -44h-287zM425 125h29q70 0 125 24q52 23 52 50q0 14 -26 27
q-24 11 -45 11q-33 -1 -82 -40q-29 -24 -53 -72z" />
    <glyph glyph-name="uni1381" unicode="&#x1381;" horiz-adv-x="614" 
d="M131 172q21 27 42 40q-22 2 -44 17q-39 27 -38 105q0 74 100 153q52 41 232 34v-125q-102 2 -136 -16q-41 -22 -41 -61q0 -24 21 -38q20 -13 76 10q65 26 181 35v-125q-160 -25 -213 -64q-76 -58 -76 -125q0 -50 46 -94q39 -38 143 -37q133 0 223 75v-135
q-72 -65 -220 -65q-208 0 -280 79q-69 75 -69 165q0 104 53 172z" />
    <glyph glyph-name="uni1382" unicode="&#x1382;" horiz-adv-x="614" 
d="M209 0q0 -38 45 -82q39 -38 143 -37q133 0 223 75v-135q-72 -65 -220 -65q-208 0 -280 79q-69 75 -69 165q0 67 39 124q36 55 59 70q-19 15 -32 35q-13 21 -13 42q0 16 6 37q7 27 52 52q39 22 128.5 22t128.5 -22q46 -25 53 -52q5 -20 5 -37q0 -21 -13 -42
q-14 -22 -51 -54q18 -17 44 -28q59 -22 124 -22h42v-125h-51q-203 0 -299 104q-64 -43 -64 -104z" />
    <glyph glyph-name="uni1383" unicode="&#x1383;" horiz-adv-x="614" 
d="M298 369q-53 -32 -53 -74q0 -53 26 -73q40 -30 73 -20q79 24 181 71v-125q-83 -45 -217 -92q-161 -56 -256 -56h-60v125h48q77 0 134 20q-44 41 -61 72q-26 48 -21 115q5 69 93 139q56 44 240 50v-125q-79 2 -127 -27z" />
    <glyph glyph-name="uni1384" unicode="&#x1384;" horiz-adv-x="507" 
d="M255 80q-110 -80 -211 -80h-52v125h42q46 0 72 22q8 7 27 28q-37 32 -52 54q-13 21 -13 42q0 17 6 37q7 27 52 52q40 22 129 22t128 -22q46 -25 53 -52q6 -20 6 -37q0 -21 -13 -42q-15 -22 -52 -54q19 -21 26 -28q26 -22 72 -22h42v-125h-51q-101 0 -211 80z" />
    <glyph glyph-name="uni1385" unicode="&#x1385;" horiz-adv-x="614" 
d="M131 172q21 27 42 40q-22 2 -44 17q-39 27 -38 105q0 74 100 153q52 41 232 34v-125q-102 2 -136 -16q-41 -22 -41 -61q0 -24 21 -38q20 -13 76 10q65 26 181 35v-125q-160 -25 -213 -64q-76 -58 -76 -125q0 -50 46 -94q39 -38 143 -37q133 0 223 75v-135
q-72 -65 -220 -65q-208 0 -280 79q-69 75 -69 165q0 104 53 172zM208 652h66v-73h-66v73z" />
    <glyph glyph-name="uni1386" unicode="&#x1386;" horiz-adv-x="614" 
d="M253 530h66v-73h-66v73zM209 0q0 -38 45 -82q39 -38 143 -37q133 0 223 75v-135q-72 -65 -220 -65q-208 0 -280 79q-69 75 -69 165q0 67 39 124q36 55 59 70q-19 15 -32 35q-13 21 -13 42q0 16 6 37q7 27 52 52q39 22 128.5 22t128.5 -22q46 -25 53 -52q5 -20 5 -37
q0 -21 -13 -42q-14 -22 -51 -54q18 -17 44 -28q59 -22 124 -22h42v-125h-51q-203 0 -299 104q-64 -43 -64 -104z" />
    <glyph glyph-name="uni1387" unicode="&#x1387;" horiz-adv-x="614" 
d="M210 652h66v-73h-66v73zM298 369q-53 -32 -53 -74q0 -53 26 -73q40 -30 73 -20q79 24 181 71v-125q-83 -45 -217 -92q-161 -56 -256 -56h-60v125h48q77 0 134 20q-44 41 -61 72q-26 48 -21 115q5 69 93 139q56 44 240 50v-125q-79 2 -127 -27z" />
    <glyph glyph-name="uni1388" unicode="&#x1388;" horiz-adv-x="507" 
d="M222 530h66v-73h-66v73zM255 80q-110 -80 -211 -80h-52v125h42q46 0 72 22q8 7 27 28q-37 32 -52 54q-13 21 -13 42q0 17 6 37q7 27 52 52q40 22 129 22t128 -22q46 -25 53 -52q6 -20 6 -37q0 -21 -13 -42q-15 -22 -52 -54q19 -21 26 -28q26 -22 72 -22h42v-125h-51
q-101 0 -211 80z" />
    <glyph glyph-name="uni1389" unicode="&#x1389;" horiz-adv-x="1045" 
d="M792 289q16 13 16 32q0 29 -22 43q-12 8 -31 7q-21 0 -33 -14q-12 -13 -12 -37q0 -19 16 -33q10 -9 31 -9q23 0 35 11zM789 173q-24 -10 -54 -10q-97 2 -139 42q-43 41 -43 106q0 25 4 46q11 79 76 106q48 21 115 21q103 0 149 -27q35 -22 62 -103q15 -43 15 -127
q0 -91 -50 -152q-41 -52 -130 -70q-137 -29 -357 -29q-218 0 -235 4q-145 38 -145 173q0 55 28 113h157q-32 -66 -22 -90q20 -50 83 -62q59 -12 145 -12q102 0 223 23q101 19 118 48zM725 627h66v-73h-66v73z" />
    <glyph glyph-name="uni138A" unicode="&#x138a;" horiz-adv-x="1071" 
d="M725 627h66v-73h-66v73zM935 132q56 -7 125 -7h21v-125h-47q-85 0 -155 7q-28 3 -53 7l-32 -14q-44 -27 -357 -28q-178 -1 -234 13q-145 37 -146 168q0 68 28 113h158q-23 -46 -23 -90q0 -34 83 -67q32 -12 145 -12q151 0 180 5q-6 6 -10 12q-62 78 -62 163q0 51 10 82
q22 66 73 97q45 28 109 28q87 0 149 -32q38 -20 61 -77q16 -40 16 -115q0 -64 -39 -128zM776 177q32 47 32 102q0 36 -22 66q-10 14 -31 14t-32 -20q-12 -20 -12 -58q0 -50 30 -80q11 -13 35 -24z" />
    <glyph glyph-name="uni138B" unicode="&#x138b;" horiz-adv-x="588" 
d="M264 627h66v-73h-66v73zM337 289q16 13 16 32q0 29 -22 43q-12 8 -31 7q-21 0 -34 -14q-11 -13 -11 -37q0 -19 16 -33q9 -9 31 -9t35 11zM280 0h-288v125h253q26 0 42 4q37 10 46 44q0 -3 -53 -3q-103 0 -139 35q-43 41 -43 106q0 25 3 46q13 79 77 106q47 21 115 21
q102 1 149 -27q35 -22 62 -103q14 -43 14 -127q0 -74 -49 -152q-21 -33 -83 -57q-44 -18 -106 -18z" />
    <glyph glyph-name="uni138C" unicode="&#x138c;" horiz-adv-x="647" 
d="M292 627h66v-73h-66v73zM325 484q87 0 148 -32q39 -20 62 -77q16 -40 16 -115q0 -62 -74 -125q74 -10 160 -10h21v-125h-48q-84 0 -154 7q-87 10 -131 34q-45 -24 -131 -34q-70 -7 -155 -7h-47v125h21q86 0 159 10q-73 63 -73 125q0 75 16 115q23 57 61 77q62 32 149 32z
M325 203q60 26 60 76q0 38 -20 65q-11 15 -40 15t-41 -15q-20 -27 -20 -65q0 -50 61 -76z" />
    <glyph glyph-name="uni138D" unicode="&#x138d;" horiz-adv-x="804" 
d="M559 289q16 13 16 32q0 29 -22 43q-12 8 -31 7q-20 0 -33 -14q-11 -13 -11 -37q0 -19 15 -33q10 -9 31 -9q22 0 35 11zM287 -90q95 0 164 48q134 96 134 230q-33 -25 -83 -25q-96 0 -139 42q-43 41 -43 106q0 25 4 46q11 79 76 106q48 21 115 21q104 0 149 -27
q35 -22 62 -103q15 -43 15 -127q0 -101 -27 -168q-45 -117 -149 -197q-101 -77 -281 -77q-146 1 -204 94q-34 54 -34 139q0 87 36 193h157q-37 -90 -39 -166q0 -24 5 -55q13 -79 82 -80zM548 635h66v-73h-66v73zM438 635h66v-73h-66v73z" />
    <glyph glyph-name="uni138E" unicode="&#x138e;" horiz-adv-x="811" 
d="M551 476h66v-73h-66v73zM442 476h65v-73h-65v73zM579 159q-3 20 -24 39q-12 11 -30 11q-18 -1 -31 -15t-13 -28q0 -22 15 -31q16 -10 31 -10h54q0 20 -2 34zM734 0q-9 -54 -40 -104q-42 -63 -119 -94q-123 -48 -267 -46q-168 1 -225 94q-37 60 -34 118q4 59 21 81h157
q-23 -22 -23 -53q0 -29 5 -42q26 -73 101 -73q116 0 190 48q47 31 59 71q-10 0 -54 1q-98 2 -138 42q-43 41 -43 105q0 26 3 47q12 79 76 106q48 21 116 21q107 1 149 -28q39 -26 62 -102q8 -27 12 -67h80v-125h-88z" />
    <glyph glyph-name="uni138F" unicode="&#x138f;" horiz-adv-x="588" 
d="M320 635h66v-73h-66v73zM210 635h66v-73h-66v73zM337 289q16 13 16 32q0 29 -22 43q-12 8 -31 7q-21 0 -34 -14q-11 -13 -11 -37q0 -19 16 -33q9 -9 31 -9t35 11zM280 0h-288v125h253q26 0 42 4q37 10 46 44q0 -3 -53 -3q-103 0 -139 35q-43 41 -43 106q0 25 3 46
q13 79 77 106q47 21 115 21q102 1 149 -27q35 -22 62 -103q14 -43 14 -127q0 -74 -49 -152q-21 -33 -83 -57q-44 -18 -106 -18z" />
    <glyph glyph-name="uni1390" unicode="&#x1390;" horiz-adv-x="647" 
d="M346 635h66v-73h-66v73zM237 635h66v-73h-66v73zM325 484q87 0 148 -32q39 -20 62 -77q16 -40 16 -115q0 -62 -74 -125q74 -10 160 -10h21v-125h-48q-84 0 -154 7q-87 10 -131 34q-45 -24 -131 -34q-70 -7 -155 -7h-47v125h21q86 0 159 10q-73 63 -73 125q0 75 16 115
q23 57 61 77q62 32 149 32zM325 203q60 26 60 76q0 38 -20 65q-11 15 -40 15t-41 -15q-20 -27 -20 -65q0 -50 61 -76z" />
    <glyph glyph-name="uni1391" unicode="&#x1391;" horiz-adv-x="824" 
d="M470 570v-56q-26 1 -49 -3q-35 -5 -35 -20q0 -21 16 -32q15 -10 25 -13q45 -15 45 -57q0 -54 -39 -74q-36 -19 -95 -19q-29 0 -53 5v59q29 -4 49 -4q38 0 52 7q26 12 26 33q0 11 -34 20q-28 8 -41 28q-14 23 -13 45q1 39 33 58q37 21 113 23zM542 167q32 47 32 131v462
h157v-462q0 -159 -48 -219q-66 -82 -163 -97q-61 -9 -146 -9q-139 1 -184 16q-128 43 -128 138q0 37 7 62h157q-6 -16 -6 -29q0 -23 71 -52q26 -10 81 -10q50 0 94 16q54 19 76 53z" />
    <glyph glyph-name="uni1392" unicode="&#x1392;" horiz-adv-x="837" 
d="M470 570v-56q-26 1 -49 -3q-35 -5 -35 -20q0 -21 16 -32q15 -10 25 -13q45 -15 45 -57q0 -54 -39 -74q-36 -19 -95 -19q-29 0 -53 5v59q29 -4 49 -4q38 0 52 7q26 12 26 33q0 11 -34 20q-28 8 -41 28q-14 23 -13 45q1 39 33 58q37 21 113 23zM629 26q-48 -35 -109 -44
t-146 -9q-139 1 -184 16q-128 43 -128 138q0 37 7 62h157q-6 -16 -6 -29q0 -23 71 -52q26 -10 81 -10q50 0 94 16q54 19 76 53q32 47 32 131v462h157v-538q0 -52 22 -76q19 -21 49 -21h43v-125h-157q-32 0 -59 26z" />
    <glyph glyph-name="uni1393" unicode="&#x1393;" horiz-adv-x="522" 
d="M220 0h-228v125h174q50 0 57 19q8 18 8 35q0 14 -35 63l-130 185q-22 31 -22 70q0 17 4 33q15 62 60 78l416 152v-125l-251 -97q-30 -12 -40 -35q-3 -5 -3 -17q0 -13 14 -34l102 -152q68 -102 68 -146q0 -82 -45 -117q-46 -37 -149 -37z" />
    <glyph glyph-name="uni1394" unicode="&#x1394;" horiz-adv-x="522" 
d="M369 37q-46 -37 -149 -37h-228v125h174q50 0 57 19q8 18 8 35q0 14 -35 63l-130 185q-22 31 -22 70q0 17 4 33q15 62 60 78l416 152v-125l-251 -97q-30 -12 -40 -35q-3 -5 -3 -17q0 -14 14 -34l184 -273q16 -24 37 -41q15 -13 39 -13h29v-125h-63q-67 0 -101 37z" />
    <glyph glyph-name="uni1395" unicode="&#x1395;" horiz-adv-x="780" 
d="M507 36q35 47 35 172v552h157v-552q0 -155 -43 -225q-51 -83 -168 -119q-154 -47 -297 -6q-128 38 -129 179q0 67 28 112h157q-31 -50 -28 -112q2 -56 72 -73q58 -13 119 9q70 26 97 63z" />
    <glyph glyph-name="uni1396" unicode="&#x1396;" horiz-adv-x="803" 
d="M669 8q-49 -104 -181 -144q-154 -47 -297 -6q-128 38 -129 179q0 67 28 112h157q-31 -50 -28 -112q2 -56 72 -73q58 -13 119 9q70 26 97 63q35 47 35 172v552h157v-552q0 -38 22 -62q19 -21 49 -21h41v-125h-108q-29 0 -34 8z" />
    <glyph glyph-name="uni1397" unicode="&#x1397;" horiz-adv-x="337" 
d="M263 181q0 -89 -30 -136q-28 -45 -84 -45h-157v125h43q30 0 49 21q22 24 22 76v538h157v-579z" />
    <glyph glyph-name="uni1398" unicode="&#x1398;" horiz-adv-x="367" 
d="M-8 0v125h43q30 0 49 21q22 24 22 76v538h157v-538q0 -52 21 -76q20 -21 50 -21h43v-125h-111q-47 0 -82 53q-33 -53 -82 -53h-110z" />
    <glyph glyph-name="uni1399" unicode="&#x1399;" horiz-adv-x="659" 
d="M434 169q14 12 14 25q0 20 -10 32q-5 5 -19 15q-4 4 -22 3q-14 -1 -22 -10q-12 -15 -12 -41q0 -13 4 -26q11 -7 38 -7q17 0 29 9zM252 68q-9 9 -26 -25q-8 -15 -8 -43v-244h-157v244q0 109 53 143q65 41 105 47v11q0 72 71 137q34 31 103 31t105 -18q82 -41 92 -122
q3 -26 3 -49q0 -70 -43 -103q-52 -42 -139 -42q-123 0 -159 33z" />
    <glyph glyph-name="uni139A" unicode="&#x139a;" horiz-adv-x="705" 
d="M550 18q-52 -41 -139 -41q-123 0 -159 32q-9 9 -26 -24q-8 -16 -8 -44v-185h-157v185q0 109 53 143q65 41 105 47v12q0 72 71 136q34 31 103 31t105 -18q60 -30 82 -82q21 -51 34 -68t67 -17h33v-125h-57q-78 0 -95 29q-9 -8 -12 -11zM434 111q14 11 14 25q0 20 -10 31
q-5 6 -19 16q-4 4 -22 3q-14 -1 -22 -11q-12 -15 -12 -40q0 -14 4 -27q11 -6 38 -6q17 0 29 9z" />
    <glyph glyph-name="uni139B" unicode="&#x139b;" horiz-adv-x="557" 
d="M333 111q14 11 14 25q0 20 -10 31q-2 3 -19 16q-5 4 -22 3q-14 -1 -21 -11q-14 -16 -16 -30q-1 -14 -8 -24q27 -19 53 -19q17 0 29 9zM125 189q16 47 63 90q34 31 104 31q69 0 104 -18q82 -41 93 -122q3 -25 3 -49q0 -69 -43 -103q-53 -41 -140 -41q-103 0 -158 32
q-12 7 -14 14q-29 -23 -74 -23h-71v125h51q28 0 52 19q20 15 30 45z" />
    <glyph glyph-name="uni139C" unicode="&#x139c;" horiz-adv-x="603" 
d="M449 18q-53 -41 -140 -41q-103 0 -158 32q-12 7 -14 14q-29 -23 -74 -23h-71v125h51q28 0 52 19q20 15 30 45q16 47 63 90q34 31 104 31q72 0 104 -18q62 -33 82 -82q21 -51 35 -68q13 -17 67 -17h33v-125h-57q-79 0 -95 29q-9 -8 -12 -11zM333 111q14 11 14 25
q0 20 -10 31q-2 3 -19 16q-5 4 -22 3q-14 -1 -21 -11q-14 -16 -16 -30q-1 -14 -8 -24q27 -19 53 -19q17 0 29 9z" />
    <glyph glyph-name="uni139D" unicode="&#x139d;" horiz-adv-x="768" 
d="M701 152q0 -84 -44 -171q-55 -107 -158 -129q-77 -17 -139 -17q-84 0 -151 21q-154 49 -154 226q0 68 18 154h157q-18 -78 -18 -143q0 -87 88 -123q24 -10 58 -10q25 0 52 8q93 27 118 105q15 47 15 105q0 80 -45 188h158q45 -80 45 -214zM297 457h66v-74h-66v74z" />
    <glyph glyph-name="uni139E" unicode="&#x139e;" horiz-adv-x="809" 
d="M297 383h66v-73h-66v73zM672 256q17 -47 22 -52q57 -79 104 -79h21v-125h-28q-74 0 -93 29q0 -48 -41 -127q-56 -108 -158 -130q-77 -16 -139 -16q-84 0 -151 21q-154 49 -154 226q0 68 18 154h157q-18 -78 -18 -143q0 -87 88 -123q24 -10 58 -10q25 0 52 8
q94 28 118 105q15 47 15 105q0 80 -45 188h158q12 -22 16 -31z" />
    <glyph glyph-name="uni139F" unicode="&#x139f;" horiz-adv-x="337" 
d="M263 181q0 -89 -30 -136q-28 -45 -84 -45h-157v125h43q30 0 49 21q22 24 22 76v71h157v-112zM152 481h66v-73h-66v73z" />
    </font>
</defs>
</svg>
